G04 EAGLE Gerber RS-274X export*
G75*
%MOIN*%
%FSLAX36Y36*%
%LPD*%
%INTop Copper Layer*%
%IPPOS*%
%AMOC8*
5,1,8,0,0,1.08239X$1,22.5*%
G01*
%ADD10R,0.062992X0.070866*%
%ADD11R,0.015748X0.027559*%
%ADD12C,0.005000*%
%ADD13C,0.006000*%
%ADD14C,0.064000*%
%ADD15R,0.062992X0.070984*%
%ADD16R,0.011811X0.047236*%
%ADD17C,0.007874*%
%ADD18R,0.133858X0.051181*%
%ADD19C,0.008000*%
%ADD20C,0.010000*%
%ADD21C,0.041654*%

G36*
X1522472Y-89941D02*
X1522472Y-89941D01*
X1522939Y-89912D01*
X1523092Y-89862D01*
X1523250Y-89842D01*
X1523685Y-89670D01*
X1524131Y-89526D01*
X1524266Y-89440D01*
X1524415Y-89382D01*
X1524793Y-89107D01*
X1525189Y-88857D01*
X1525299Y-88740D01*
X1525428Y-88646D01*
X1525727Y-88286D01*
X1526048Y-87945D01*
X1526125Y-87805D01*
X1526227Y-87681D01*
X1526427Y-87258D01*
X1526653Y-86849D01*
X1526693Y-86694D01*
X1526761Y-86549D01*
X1526849Y-86090D01*
X1526967Y-85636D01*
X1526982Y-85398D01*
X1526997Y-85319D01*
X1526992Y-85238D01*
X1527007Y-85000D01*
X1527007Y1184606D01*
X1526949Y1185070D01*
X1526920Y1185538D01*
X1526870Y1185690D01*
X1526850Y1185849D01*
X1526678Y1186284D01*
X1526534Y1186729D01*
X1526448Y1186865D01*
X1526390Y1187013D01*
X1526115Y1187391D01*
X1525865Y1187787D01*
X1525748Y1187897D01*
X1525654Y1188027D01*
X1525294Y1188325D01*
X1524953Y1188646D01*
X1524813Y1188723D01*
X1524689Y1188826D01*
X1524266Y1189025D01*
X1523856Y1189251D01*
X1523701Y1189291D01*
X1523557Y1189360D01*
X1523098Y1189448D01*
X1522644Y1189565D01*
X1522406Y1189580D01*
X1522327Y1189595D01*
X1522246Y1189590D01*
X1522008Y1189606D01*
X-35000Y1189606D01*
X-35464Y1189547D01*
X-35931Y1189518D01*
X-36084Y1189469D01*
X-36242Y1189449D01*
X-36677Y1189277D01*
X-37123Y1189133D01*
X-37258Y1189047D01*
X-37407Y1188988D01*
X-37785Y1188714D01*
X-38181Y1188463D01*
X-38291Y1188346D01*
X-38421Y1188252D01*
X-38719Y1187892D01*
X-39040Y1187551D01*
X-39117Y1187411D01*
X-39219Y1187288D01*
X-39419Y1186865D01*
X-39645Y1186455D01*
X-39685Y1186300D01*
X-39753Y1186155D01*
X-39841Y1185696D01*
X-39959Y1185242D01*
X-39974Y1185004D01*
X-39989Y1184925D01*
X-39984Y1184844D01*
X-39999Y1184606D01*
X-39999Y-85000D01*
X-39941Y-85464D01*
X-39912Y-85931D01*
X-39862Y-86084D01*
X-39842Y-86242D01*
X-39670Y-86677D01*
X-39526Y-87123D01*
X-39440Y-87258D01*
X-39382Y-87407D01*
X-39107Y-87785D01*
X-38857Y-88181D01*
X-38740Y-88291D01*
X-38646Y-88421D01*
X-38286Y-88719D01*
X-37945Y-89040D01*
X-37805Y-89117D01*
X-37681Y-89219D01*
X-37258Y-89419D01*
X-36849Y-89645D01*
X-36694Y-89685D01*
X-36549Y-89753D01*
X-36090Y-89841D01*
X-35636Y-89959D01*
X-35398Y-89974D01*
X-35319Y-89989D01*
X-35238Y-89984D01*
X-35000Y-89999D01*
X1522008Y-89999D01*
X1522472Y-89941D01*
G37*
%LPC*%
G36*
X1045443Y38999D02*
X1045443Y38999D01*
X1037535Y46908D01*
X946908Y137535D01*
X946907Y137535D01*
X938999Y145443D01*
X938999Y393373D01*
X938951Y393758D01*
X938939Y394147D01*
X938872Y394377D01*
X938842Y394615D01*
X938700Y394976D01*
X938592Y395350D01*
X938470Y395557D01*
X938382Y395780D01*
X938153Y396094D01*
X937956Y396429D01*
X937694Y396728D01*
X937646Y396793D01*
X937609Y396824D01*
X937535Y396908D01*
X896908Y437535D01*
X896600Y437773D01*
X896318Y438040D01*
X896108Y438156D01*
X895918Y438303D01*
X895561Y438457D01*
X895221Y438645D01*
X894989Y438705D01*
X894769Y438800D01*
X894385Y438861D01*
X894009Y438959D01*
X893612Y438984D01*
X893532Y438997D01*
X893484Y438992D01*
X893373Y438999D01*
X856627Y438999D01*
X856242Y438951D01*
X855853Y438939D01*
X855623Y438872D01*
X855385Y438842D01*
X855024Y438700D01*
X854650Y438592D01*
X854443Y438470D01*
X854220Y438382D01*
X853906Y438153D01*
X853571Y437956D01*
X853272Y437694D01*
X853207Y437646D01*
X853176Y437609D01*
X853092Y437535D01*
X826441Y410884D01*
X826203Y410577D01*
X825937Y410294D01*
X825821Y410084D01*
X825674Y409895D01*
X825519Y409538D01*
X825331Y409198D01*
X825271Y408965D01*
X825176Y408745D01*
X825115Y408362D01*
X825018Y407985D01*
X824992Y407588D01*
X824980Y407508D01*
X824984Y407460D01*
X824977Y407349D01*
X824977Y398791D01*
X825036Y398327D01*
X825064Y397860D01*
X825114Y397708D01*
X825134Y397549D01*
X825306Y397114D01*
X825450Y396668D01*
X825536Y396533D01*
X825595Y396384D01*
X825869Y396006D01*
X826120Y395610D01*
X826236Y395500D01*
X826330Y395371D01*
X826690Y395072D01*
X827031Y394751D01*
X827172Y394674D01*
X827295Y394572D01*
X827718Y394373D01*
X828128Y394146D01*
X828283Y394106D01*
X828428Y394038D01*
X828886Y393950D01*
X829340Y393833D01*
X829578Y393817D01*
X829657Y393802D01*
X829738Y393807D01*
X829976Y393792D01*
X847958Y393792D01*
X848825Y392925D01*
X849195Y392638D01*
X849545Y392328D01*
X849688Y392255D01*
X849814Y392157D01*
X850244Y391971D01*
X850661Y391758D01*
X850817Y391723D01*
X850964Y391659D01*
X851426Y391586D01*
X851882Y391483D01*
X852043Y391488D01*
X852201Y391463D01*
X852666Y391507D01*
X853134Y391521D01*
X853288Y391565D01*
X853447Y391580D01*
X853887Y391738D01*
X854337Y391868D01*
X854475Y391949D01*
X854626Y392003D01*
X855014Y392266D01*
X855417Y392504D01*
X855595Y392661D01*
X855662Y392706D01*
X855716Y392767D01*
X855895Y392925D01*
X856762Y393792D01*
X873545Y393792D01*
X877060Y390277D01*
X877060Y338070D01*
X873545Y334554D01*
X856762Y334554D01*
X855895Y335422D01*
X855525Y335709D01*
X855175Y336018D01*
X855032Y336091D01*
X854906Y336189D01*
X854476Y336375D01*
X854060Y336588D01*
X853903Y336623D01*
X853756Y336687D01*
X853294Y336760D01*
X852838Y336863D01*
X852678Y336858D01*
X852520Y336883D01*
X852054Y336840D01*
X851586Y336826D01*
X851432Y336781D01*
X851273Y336766D01*
X850832Y336608D01*
X850383Y336478D01*
X850245Y336397D01*
X850094Y336343D01*
X849707Y336080D01*
X849304Y335843D01*
X849125Y335685D01*
X849058Y335640D01*
X849004Y335579D01*
X848825Y335422D01*
X847958Y334554D01*
X831176Y334554D01*
X830307Y335424D01*
X829936Y335711D01*
X829586Y336020D01*
X829444Y336093D01*
X829317Y336191D01*
X828887Y336377D01*
X828471Y336590D01*
X828315Y336625D01*
X828168Y336689D01*
X827706Y336762D01*
X827249Y336865D01*
X827089Y336860D01*
X826931Y336885D01*
X826466Y336842D01*
X825997Y336828D01*
X825843Y336783D01*
X825684Y336768D01*
X825244Y336610D01*
X824794Y336480D01*
X824656Y336399D01*
X824506Y336345D01*
X824118Y336082D01*
X823715Y335845D01*
X823536Y335687D01*
X823469Y335642D01*
X823415Y335581D01*
X823236Y335423D01*
X822367Y334554D01*
X805585Y334554D01*
X804716Y335424D01*
X804345Y335711D01*
X803996Y336020D01*
X803853Y336093D01*
X803727Y336191D01*
X803297Y336377D01*
X802880Y336590D01*
X802724Y336625D01*
X802577Y336689D01*
X802115Y336762D01*
X801659Y336865D01*
X801498Y336860D01*
X801340Y336885D01*
X800875Y336842D01*
X800407Y336828D01*
X800253Y336783D01*
X800094Y336768D01*
X799653Y336610D01*
X799204Y336480D01*
X799066Y336399D01*
X798915Y336345D01*
X798528Y336082D01*
X798125Y335845D01*
X797946Y335687D01*
X797879Y335642D01*
X797825Y335581D01*
X797646Y335423D01*
X796777Y334554D01*
X779995Y334554D01*
X779125Y335424D01*
X778755Y335711D01*
X778405Y336020D01*
X778263Y336093D01*
X778136Y336191D01*
X777706Y336377D01*
X777290Y336590D01*
X777134Y336625D01*
X776987Y336689D01*
X776524Y336762D01*
X776068Y336865D01*
X775908Y336860D01*
X775750Y336885D01*
X775285Y336842D01*
X774816Y336828D01*
X774662Y336783D01*
X774503Y336768D01*
X774063Y336610D01*
X773613Y336480D01*
X773475Y336399D01*
X773324Y336345D01*
X772937Y336082D01*
X772534Y335845D01*
X772355Y335687D01*
X772288Y335642D01*
X772234Y335581D01*
X772055Y335423D01*
X771186Y334554D01*
X754404Y334554D01*
X753535Y335424D01*
X753164Y335711D01*
X752814Y336020D01*
X752672Y336093D01*
X752545Y336191D01*
X752116Y336377D01*
X751699Y336590D01*
X751543Y336625D01*
X751396Y336689D01*
X750934Y336762D01*
X750477Y336865D01*
X750317Y336860D01*
X750159Y336885D01*
X749694Y336842D01*
X749226Y336828D01*
X749072Y336783D01*
X748913Y336768D01*
X748472Y336610D01*
X748023Y336480D01*
X747885Y336399D01*
X747734Y336345D01*
X747347Y336082D01*
X746943Y335845D01*
X746765Y335687D01*
X746697Y335642D01*
X746644Y335581D01*
X746465Y335423D01*
X745596Y334554D01*
X728814Y334554D01*
X727944Y335424D01*
X727574Y335711D01*
X727224Y336020D01*
X727081Y336093D01*
X726955Y336191D01*
X726525Y336377D01*
X726109Y336590D01*
X725953Y336625D01*
X725806Y336689D01*
X725343Y336762D01*
X724887Y336865D01*
X724727Y336860D01*
X724569Y336885D01*
X724103Y336842D01*
X723635Y336828D01*
X723481Y336783D01*
X723322Y336768D01*
X722882Y336610D01*
X722432Y336480D01*
X722294Y336399D01*
X722143Y336345D01*
X721756Y336082D01*
X721353Y335845D01*
X721174Y335687D01*
X721107Y335642D01*
X721053Y335581D01*
X720874Y335423D01*
X720005Y334554D01*
X703223Y334554D01*
X702354Y335424D01*
X701983Y335711D01*
X701633Y336020D01*
X701491Y336093D01*
X701364Y336191D01*
X700935Y336377D01*
X700518Y336590D01*
X700362Y336625D01*
X700215Y336689D01*
X699753Y336762D01*
X699296Y336865D01*
X699136Y336860D01*
X698978Y336885D01*
X698513Y336842D01*
X698045Y336828D01*
X697891Y336783D01*
X697731Y336768D01*
X697291Y336610D01*
X696841Y336480D01*
X696704Y336399D01*
X696553Y336345D01*
X696165Y336082D01*
X695762Y335845D01*
X695584Y335687D01*
X695516Y335642D01*
X695463Y335581D01*
X695284Y335423D01*
X694415Y334554D01*
X677633Y334554D01*
X676765Y335422D01*
X676395Y335709D01*
X676045Y336018D01*
X675902Y336091D01*
X675776Y336189D01*
X675346Y336375D01*
X674930Y336588D01*
X674773Y336623D01*
X674626Y336687D01*
X674164Y336760D01*
X673708Y336863D01*
X673548Y336858D01*
X673390Y336883D01*
X672924Y336840D01*
X672456Y336826D01*
X672302Y336781D01*
X672143Y336766D01*
X671703Y336608D01*
X671253Y336478D01*
X671115Y336397D01*
X670964Y336343D01*
X670577Y336080D01*
X670174Y335843D01*
X669995Y335685D01*
X669928Y335640D01*
X669874Y335579D01*
X669695Y335422D01*
X668828Y334554D01*
X650965Y334554D01*
X650579Y334506D01*
X650191Y334494D01*
X649960Y334428D01*
X649723Y334398D01*
X649361Y334255D01*
X648988Y334147D01*
X648781Y334025D01*
X648558Y333937D01*
X648244Y333709D01*
X647909Y333511D01*
X647610Y333249D01*
X647545Y333201D01*
X647514Y333164D01*
X647430Y333090D01*
X646892Y332552D01*
X644612Y331236D01*
X642069Y330554D01*
X639846Y330554D01*
X639846Y364172D01*
X639846Y364174D01*
X639846Y397792D01*
X642069Y397792D01*
X644612Y397110D01*
X646892Y395794D01*
X647430Y395256D01*
X647737Y395018D01*
X648020Y394751D01*
X648230Y394636D01*
X648420Y394489D01*
X648776Y394334D01*
X649117Y394146D01*
X649349Y394086D01*
X649569Y393991D01*
X649952Y393930D01*
X650329Y393833D01*
X650726Y393807D01*
X650806Y393795D01*
X650854Y393799D01*
X650965Y393792D01*
X668828Y393792D01*
X669695Y392925D01*
X670065Y392638D01*
X670415Y392328D01*
X670558Y392255D01*
X670685Y392157D01*
X671114Y391971D01*
X671531Y391758D01*
X671687Y391723D01*
X671834Y391659D01*
X672296Y391586D01*
X672752Y391483D01*
X672913Y391488D01*
X673071Y391463D01*
X673536Y391507D01*
X674004Y391521D01*
X674158Y391565D01*
X674317Y391580D01*
X674757Y391738D01*
X675207Y391868D01*
X675345Y391949D01*
X675496Y392003D01*
X675884Y392266D01*
X676287Y392504D01*
X676466Y392661D01*
X676532Y392706D01*
X676586Y392767D01*
X676765Y392925D01*
X677633Y393792D01*
X695614Y393792D01*
X696078Y393851D01*
X696545Y393879D01*
X696698Y393929D01*
X696857Y393949D01*
X697291Y394121D01*
X697737Y394265D01*
X697872Y394351D01*
X698021Y394410D01*
X698399Y394684D01*
X698795Y394935D01*
X698905Y395051D01*
X699035Y395145D01*
X699333Y395505D01*
X699654Y395846D01*
X699731Y395986D01*
X699833Y396110D01*
X700033Y396533D01*
X700259Y396943D01*
X700299Y397098D01*
X700367Y397242D01*
X700455Y397701D01*
X700573Y398155D01*
X700588Y398393D01*
X700603Y398472D01*
X700598Y398553D01*
X700613Y398791D01*
X700613Y516171D01*
X995443Y811001D01*
X1093373Y811001D01*
X1093758Y811049D01*
X1094147Y811061D01*
X1094377Y811127D01*
X1094615Y811157D01*
X1094976Y811300D01*
X1095350Y811408D01*
X1095557Y811530D01*
X1095780Y811618D01*
X1096094Y811846D01*
X1096429Y812044D01*
X1096727Y812306D01*
X1096793Y812354D01*
X1096824Y812391D01*
X1096908Y812465D01*
X1145443Y861001D01*
X1172178Y861001D01*
X1172293Y861015D01*
X1172407Y861006D01*
X1172912Y861093D01*
X1173421Y861157D01*
X1173528Y861200D01*
X1173641Y861219D01*
X1174109Y861430D01*
X1174585Y861618D01*
X1174679Y861686D01*
X1174784Y861733D01*
X1175183Y862052D01*
X1175599Y862354D01*
X1175672Y862443D01*
X1175762Y862515D01*
X1176071Y862924D01*
X1176398Y863318D01*
X1176447Y863422D01*
X1176516Y863515D01*
X1176797Y864087D01*
X1177257Y865196D01*
X1184804Y872743D01*
X1194664Y876827D01*
X1205336Y876827D01*
X1215196Y872743D01*
X1222743Y865196D01*
X1226827Y855336D01*
X1226827Y844664D01*
X1222743Y834804D01*
X1215196Y827257D01*
X1205336Y823172D01*
X1194664Y823172D01*
X1184804Y827257D01*
X1177257Y834804D01*
X1176797Y835913D01*
X1176740Y836013D01*
X1176705Y836123D01*
X1176431Y836556D01*
X1176177Y837001D01*
X1176097Y837084D01*
X1176035Y837181D01*
X1175662Y837532D01*
X1175305Y837901D01*
X1175207Y837961D01*
X1175123Y838040D01*
X1174676Y838287D01*
X1174238Y838555D01*
X1174128Y838589D01*
X1174027Y838645D01*
X1173530Y838773D01*
X1173041Y838924D01*
X1172927Y838930D01*
X1172815Y838959D01*
X1172178Y838999D01*
X1156627Y838999D01*
X1156242Y838951D01*
X1155853Y838939D01*
X1155623Y838872D01*
X1155385Y838842D01*
X1155024Y838700D01*
X1154650Y838592D01*
X1154443Y838470D01*
X1154220Y838382D01*
X1153906Y838153D01*
X1153571Y837956D01*
X1153272Y837694D01*
X1153207Y837646D01*
X1153176Y837609D01*
X1153092Y837535D01*
X1104556Y788999D01*
X1006627Y788999D01*
X1006242Y788951D01*
X1005853Y788939D01*
X1005623Y788872D01*
X1005385Y788842D01*
X1005024Y788700D01*
X1004650Y788592D01*
X1004443Y788470D01*
X1004220Y788382D01*
X1003905Y788153D01*
X1003571Y787956D01*
X1003272Y787694D01*
X1003207Y787646D01*
X1003176Y787609D01*
X1003092Y787535D01*
X724079Y508522D01*
X723841Y508214D01*
X723574Y507932D01*
X723458Y507722D01*
X723311Y507532D01*
X723157Y507175D01*
X722969Y506835D01*
X722909Y506603D01*
X722814Y506383D01*
X722753Y506000D01*
X722655Y505623D01*
X722633Y505274D01*
X722625Y505232D01*
X722627Y505205D01*
X722617Y505146D01*
X722622Y505098D01*
X722615Y504987D01*
X722615Y500241D01*
X722683Y499698D01*
X722734Y499154D01*
X722762Y499078D01*
X722772Y498999D01*
X722973Y498490D01*
X723158Y497975D01*
X723203Y497909D01*
X723232Y497834D01*
X723554Y497391D01*
X723861Y496939D01*
X723921Y496886D01*
X723968Y496821D01*
X724389Y496472D01*
X724799Y496110D01*
X724871Y496073D01*
X724933Y496022D01*
X725426Y495789D01*
X725914Y495540D01*
X725993Y495522D01*
X726065Y495488D01*
X726602Y495385D01*
X727136Y495265D01*
X727217Y495267D01*
X727295Y495252D01*
X727841Y495286D01*
X728388Y495302D01*
X728465Y495325D01*
X728545Y495329D01*
X729066Y495498D01*
X729591Y495650D01*
X729660Y495690D01*
X729737Y495715D01*
X730200Y496008D01*
X730671Y496285D01*
X730754Y496358D01*
X730795Y496385D01*
X730851Y496444D01*
X731149Y496706D01*
X887535Y653092D01*
X895443Y661001D01*
X1143373Y661001D01*
X1143758Y661049D01*
X1144147Y661061D01*
X1144377Y661127D01*
X1144615Y661157D01*
X1144976Y661300D01*
X1145350Y661408D01*
X1145557Y661530D01*
X1145780Y661618D01*
X1146094Y661846D01*
X1146429Y662044D01*
X1146727Y662306D01*
X1146793Y662354D01*
X1146824Y662391D01*
X1146908Y662465D01*
X1237535Y753092D01*
X1237773Y753400D01*
X1238040Y753682D01*
X1238156Y753892D01*
X1238303Y754082D01*
X1238457Y754439D01*
X1238645Y754779D01*
X1238705Y755011D01*
X1238800Y755231D01*
X1238861Y755615D01*
X1238959Y755991D01*
X1238984Y756388D01*
X1238997Y756468D01*
X1238992Y756516D01*
X1238999Y756627D01*
X1238999Y928085D01*
X1238985Y928199D01*
X1238994Y928314D01*
X1238907Y928818D01*
X1238842Y929327D01*
X1238800Y929434D01*
X1238780Y929548D01*
X1238570Y930015D01*
X1238382Y930492D01*
X1238314Y930585D01*
X1238267Y930690D01*
X1237947Y931090D01*
X1237646Y931505D01*
X1237557Y931578D01*
X1237485Y931668D01*
X1237076Y931977D01*
X1236681Y932304D01*
X1236578Y932353D01*
X1236485Y932422D01*
X1235913Y932703D01*
X1228474Y935784D01*
X1217784Y946474D01*
X1211999Y960441D01*
X1211999Y1020373D01*
X1211951Y1020758D01*
X1211939Y1021147D01*
X1211872Y1021377D01*
X1211842Y1021615D01*
X1211700Y1021976D01*
X1211592Y1022350D01*
X1211470Y1022557D01*
X1211382Y1022780D01*
X1211153Y1023094D01*
X1210956Y1023429D01*
X1210694Y1023728D01*
X1210646Y1023793D01*
X1210609Y1023824D01*
X1210535Y1023908D01*
X1196535Y1037908D01*
X1196102Y1038244D01*
X1195681Y1038592D01*
X1195609Y1038626D01*
X1195545Y1038675D01*
X1195043Y1038893D01*
X1194549Y1039126D01*
X1194470Y1039141D01*
X1194396Y1039173D01*
X1193856Y1039259D01*
X1193319Y1039362D01*
X1193239Y1039357D01*
X1193159Y1039369D01*
X1192615Y1039318D01*
X1192069Y1039285D01*
X1191992Y1039260D01*
X1191913Y1039252D01*
X1191399Y1039068D01*
X1190877Y1038899D01*
X1190809Y1038856D01*
X1190734Y1038829D01*
X1190283Y1038523D01*
X1189819Y1038229D01*
X1189764Y1038171D01*
X1189697Y1038126D01*
X1189336Y1037716D01*
X1188960Y1037318D01*
X1188922Y1037248D01*
X1188868Y1037188D01*
X1188619Y1036699D01*
X1188355Y1036221D01*
X1188335Y1036144D01*
X1188298Y1036072D01*
X1188178Y1035539D01*
X1188041Y1035009D01*
X1188034Y1034898D01*
X1188023Y1034851D01*
X1188026Y1034769D01*
X1188001Y1034373D01*
X1188001Y960441D01*
X1182215Y946474D01*
X1171525Y935784D01*
X1157559Y929999D01*
X1147627Y929999D01*
X1147242Y929951D01*
X1146853Y929939D01*
X1146623Y929872D01*
X1146385Y929842D01*
X1146024Y929700D01*
X1145650Y929592D01*
X1145443Y929470D01*
X1145220Y929382D01*
X1144906Y929153D01*
X1144571Y928956D01*
X1144272Y928694D01*
X1144207Y928646D01*
X1144176Y928609D01*
X1144092Y928535D01*
X1054556Y838999D01*
X590325Y838999D01*
X472223Y957102D01*
X471916Y957340D01*
X471633Y957607D01*
X471423Y957723D01*
X471233Y957870D01*
X470876Y958024D01*
X470536Y958212D01*
X470304Y958272D01*
X470084Y958367D01*
X469700Y958428D01*
X469324Y958526D01*
X468927Y958551D01*
X468847Y958564D01*
X468799Y958559D01*
X468688Y958566D01*
X410900Y958566D01*
X407385Y962081D01*
X407385Y985000D01*
X407327Y985464D01*
X407298Y985931D01*
X407248Y986084D01*
X407228Y986242D01*
X407056Y986677D01*
X406912Y987123D01*
X406826Y987258D01*
X406767Y987407D01*
X406493Y987785D01*
X406242Y988181D01*
X406126Y988291D01*
X406032Y988421D01*
X405672Y988719D01*
X405331Y989040D01*
X405191Y989117D01*
X405067Y989219D01*
X404644Y989419D01*
X404234Y989645D01*
X404079Y989685D01*
X403935Y989753D01*
X403476Y989841D01*
X403022Y989959D01*
X402784Y989974D01*
X402705Y989989D01*
X402624Y989984D01*
X402386Y989999D01*
X348480Y989999D01*
X348016Y989941D01*
X347549Y989912D01*
X347397Y989862D01*
X347238Y989842D01*
X346803Y989670D01*
X346357Y989526D01*
X346222Y989440D01*
X346073Y989382D01*
X345695Y989107D01*
X345299Y988857D01*
X345189Y988740D01*
X345060Y988646D01*
X344761Y988286D01*
X344440Y987945D01*
X344363Y987805D01*
X344261Y987681D01*
X344062Y987258D01*
X343835Y986849D01*
X343795Y986694D01*
X343727Y986549D01*
X343639Y986090D01*
X343522Y985636D01*
X343506Y985398D01*
X343491Y985319D01*
X343496Y985238D01*
X343481Y985000D01*
X343481Y962022D01*
X339966Y958507D01*
X272003Y958507D01*
X268487Y962022D01*
X268487Y1037978D01*
X272003Y1041493D01*
X339966Y1041493D01*
X343481Y1037978D01*
X343481Y1015000D01*
X343539Y1014536D01*
X343568Y1014069D01*
X343618Y1013916D01*
X343638Y1013757D01*
X343810Y1013323D01*
X343954Y1012877D01*
X344040Y1012742D01*
X344099Y1012593D01*
X344373Y1012215D01*
X344624Y1011819D01*
X344740Y1011709D01*
X344834Y1011579D01*
X345194Y1011281D01*
X345535Y1010960D01*
X345675Y1010883D01*
X345799Y1010781D01*
X346222Y1010581D01*
X346632Y1010355D01*
X346787Y1010315D01*
X346931Y1010247D01*
X347390Y1010159D01*
X347844Y1010041D01*
X348082Y1010026D01*
X348161Y1010011D01*
X348242Y1010016D01*
X348480Y1010001D01*
X402386Y1010001D01*
X402850Y1010059D01*
X403317Y1010088D01*
X403469Y1010137D01*
X403628Y1010157D01*
X404063Y1010329D01*
X404509Y1010474D01*
X404644Y1010559D01*
X404793Y1010618D01*
X405171Y1010892D01*
X405567Y1011143D01*
X405677Y1011260D01*
X405806Y1011354D01*
X406105Y1011714D01*
X406426Y1012055D01*
X406503Y1012195D01*
X406605Y1012318D01*
X406805Y1012742D01*
X407031Y1013151D01*
X407071Y1013306D01*
X407139Y1013451D01*
X407227Y1013910D01*
X407344Y1014364D01*
X407360Y1014602D01*
X407375Y1014681D01*
X407370Y1014762D01*
X407385Y1015000D01*
X407385Y1037919D01*
X410900Y1041434D01*
X478863Y1041434D01*
X482379Y1037919D01*
X482379Y980131D01*
X482427Y979746D01*
X482439Y979357D01*
X482505Y979127D01*
X482535Y978889D01*
X482678Y978528D01*
X482786Y978154D01*
X482908Y977947D01*
X482996Y977724D01*
X483224Y977410D01*
X483422Y977075D01*
X483684Y976776D01*
X483732Y976711D01*
X483769Y976680D01*
X483843Y976596D01*
X507356Y953083D01*
X507833Y952713D01*
X508300Y952343D01*
X508324Y952332D01*
X508345Y952316D01*
X508895Y952077D01*
X509444Y951833D01*
X509470Y951828D01*
X509495Y951818D01*
X510086Y951724D01*
X510679Y951624D01*
X510705Y951626D01*
X510718Y951624D01*
X510734Y951062D01*
X510742Y951036D01*
X510743Y951009D01*
X510915Y950436D01*
X511082Y949859D01*
X511095Y949836D01*
X511103Y949810D01*
X511414Y949295D01*
X511717Y948779D01*
X511741Y948753D01*
X511750Y948738D01*
X511780Y948708D01*
X512138Y948301D01*
X597974Y862465D01*
X598281Y862226D01*
X598564Y861960D01*
X598774Y861844D01*
X598964Y861697D01*
X599320Y861543D01*
X599661Y861355D01*
X599893Y861295D01*
X600113Y861200D01*
X600496Y861139D01*
X600873Y861041D01*
X601270Y861016D01*
X601350Y861003D01*
X601398Y861008D01*
X601509Y861001D01*
X861373Y861001D01*
X861916Y861069D01*
X862460Y861120D01*
X862536Y861147D01*
X862615Y861157D01*
X863124Y861359D01*
X863639Y861544D01*
X863705Y861589D01*
X863780Y861618D01*
X864223Y861940D01*
X864675Y862247D01*
X864728Y862307D01*
X864793Y862354D01*
X865142Y862775D01*
X865504Y863185D01*
X865541Y863257D01*
X865592Y863318D01*
X865825Y863812D01*
X866074Y864300D01*
X866092Y864379D01*
X866126Y864451D01*
X866229Y864988D01*
X866349Y865522D01*
X866347Y865602D01*
X866362Y865681D01*
X866328Y866227D01*
X866312Y866774D01*
X866289Y866851D01*
X866285Y866931D01*
X866116Y867451D01*
X865964Y867977D01*
X865924Y868046D01*
X865899Y868123D01*
X865606Y868586D01*
X865329Y869056D01*
X865256Y869140D01*
X865229Y869181D01*
X865170Y869237D01*
X864908Y869535D01*
X796908Y937535D01*
X796600Y937773D01*
X796318Y938040D01*
X796108Y938156D01*
X795918Y938303D01*
X795561Y938457D01*
X795221Y938645D01*
X794989Y938705D01*
X794769Y938800D01*
X794385Y938861D01*
X794009Y938959D01*
X793612Y938984D01*
X793532Y938997D01*
X793484Y938992D01*
X793373Y938999D01*
X777821Y938999D01*
X777707Y938985D01*
X777592Y938994D01*
X777088Y938907D01*
X776579Y938842D01*
X776472Y938800D01*
X776358Y938780D01*
X775891Y938570D01*
X775414Y938382D01*
X775321Y938314D01*
X775216Y938267D01*
X774817Y937948D01*
X774401Y937646D01*
X774327Y937557D01*
X774238Y937485D01*
X773929Y937076D01*
X773602Y936681D01*
X773553Y936578D01*
X773484Y936485D01*
X773203Y935913D01*
X772743Y934804D01*
X765196Y927257D01*
X755336Y923172D01*
X744664Y923172D01*
X734804Y927257D01*
X727257Y934804D01*
X723172Y944664D01*
X723172Y955336D01*
X727257Y965196D01*
X734804Y972743D01*
X744664Y976827D01*
X755336Y976827D01*
X765196Y972743D01*
X772743Y965196D01*
X773203Y964087D01*
X773260Y963987D01*
X773295Y963877D01*
X773569Y963444D01*
X773823Y962999D01*
X773903Y962916D01*
X773965Y962819D01*
X774337Y962468D01*
X774694Y962099D01*
X774793Y962039D01*
X774876Y961960D01*
X775324Y961713D01*
X775762Y961445D01*
X775872Y961411D01*
X775973Y961355D01*
X776470Y961226D01*
X776959Y961076D01*
X777073Y961070D01*
X777185Y961041D01*
X777821Y961001D01*
X804556Y961001D01*
X812465Y953092D01*
X903092Y862465D01*
X903399Y862226D01*
X903682Y861960D01*
X903892Y861844D01*
X904082Y861697D01*
X904438Y861543D01*
X904779Y861355D01*
X905011Y861295D01*
X905231Y861200D01*
X905614Y861139D01*
X905991Y861041D01*
X906388Y861016D01*
X906468Y861003D01*
X906516Y861008D01*
X906627Y861001D01*
X1043373Y861001D01*
X1043758Y861049D01*
X1044147Y861061D01*
X1044377Y861127D01*
X1044615Y861157D01*
X1044976Y861300D01*
X1045350Y861408D01*
X1045557Y861530D01*
X1045780Y861618D01*
X1046094Y861846D01*
X1046429Y862044D01*
X1046727Y862306D01*
X1046793Y862354D01*
X1046824Y862391D01*
X1046908Y862465D01*
X1120816Y936373D01*
X1121103Y936743D01*
X1121412Y937094D01*
X1121485Y937236D01*
X1121583Y937363D01*
X1121769Y937792D01*
X1121982Y938209D01*
X1122017Y938365D01*
X1122081Y938512D01*
X1122155Y938974D01*
X1122257Y939430D01*
X1122252Y939591D01*
X1122277Y939749D01*
X1122234Y940214D01*
X1122220Y940682D01*
X1122175Y940836D01*
X1122160Y940995D01*
X1122002Y941436D01*
X1121872Y941885D01*
X1121791Y942023D01*
X1121737Y942174D01*
X1121474Y942561D01*
X1121237Y942965D01*
X1121079Y943143D01*
X1121034Y943211D01*
X1120973Y943264D01*
X1120816Y943443D01*
X1117785Y946474D01*
X1111999Y960441D01*
X1111999Y1039559D01*
X1117784Y1053525D01*
X1128474Y1064215D01*
X1142441Y1070001D01*
X1152373Y1070001D01*
X1152916Y1070069D01*
X1153460Y1070120D01*
X1153536Y1070147D01*
X1153615Y1070157D01*
X1154124Y1070359D01*
X1154639Y1070544D01*
X1154705Y1070589D01*
X1154780Y1070618D01*
X1155223Y1070940D01*
X1155675Y1071247D01*
X1155728Y1071307D01*
X1155793Y1071354D01*
X1156143Y1071776D01*
X1156504Y1072185D01*
X1156541Y1072257D01*
X1156592Y1072318D01*
X1156825Y1072813D01*
X1157074Y1073300D01*
X1157092Y1073379D01*
X1157126Y1073451D01*
X1157229Y1073988D01*
X1157349Y1074522D01*
X1157347Y1074602D01*
X1157362Y1074681D01*
X1157328Y1075227D01*
X1157312Y1075774D01*
X1157289Y1075851D01*
X1157285Y1075931D01*
X1157116Y1076451D01*
X1156964Y1076977D01*
X1156924Y1077047D01*
X1156899Y1077123D01*
X1156606Y1077585D01*
X1156329Y1078056D01*
X1156256Y1078140D01*
X1156229Y1078181D01*
X1156170Y1078237D01*
X1155908Y1078535D01*
X1146907Y1087535D01*
X1146601Y1087773D01*
X1146318Y1088040D01*
X1146108Y1088156D01*
X1145918Y1088303D01*
X1145561Y1088457D01*
X1145221Y1088645D01*
X1144989Y1088705D01*
X1144769Y1088800D01*
X1144385Y1088861D01*
X1144009Y1088959D01*
X1143612Y1088984D01*
X1143532Y1088997D01*
X1143484Y1088992D01*
X1143373Y1088999D01*
X299229Y1088999D01*
X298843Y1088951D01*
X298455Y1088939D01*
X298224Y1088872D01*
X297986Y1088842D01*
X297625Y1088700D01*
X297252Y1088592D01*
X297045Y1088470D01*
X296822Y1088382D01*
X296508Y1088153D01*
X296172Y1087956D01*
X295874Y1087694D01*
X295808Y1087646D01*
X295778Y1087609D01*
X295694Y1087535D01*
X232977Y1024818D01*
X232738Y1024511D01*
X232472Y1024228D01*
X232356Y1024018D01*
X232209Y1023828D01*
X232055Y1023472D01*
X231867Y1023131D01*
X231807Y1022899D01*
X231711Y1022679D01*
X231650Y1022296D01*
X231553Y1021919D01*
X231528Y1021522D01*
X231515Y1021442D01*
X231520Y1021394D01*
X231512Y1021283D01*
X231512Y962022D01*
X227997Y958507D01*
X160034Y958507D01*
X156519Y962022D01*
X156519Y1037978D01*
X160034Y1041493D01*
X219295Y1041493D01*
X219680Y1041541D01*
X220069Y1041553D01*
X220299Y1041620D01*
X220537Y1041650D01*
X220898Y1041792D01*
X221272Y1041900D01*
X221479Y1042022D01*
X221702Y1042110D01*
X222016Y1042339D01*
X222351Y1042536D01*
X222650Y1042798D01*
X222715Y1042846D01*
X222746Y1042883D01*
X222830Y1042957D01*
X281551Y1101678D01*
X281789Y1101985D01*
X282055Y1102268D01*
X282171Y1102478D01*
X282318Y1102668D01*
X282473Y1103024D01*
X282661Y1103365D01*
X282721Y1103597D01*
X282816Y1103817D01*
X282877Y1104200D01*
X282953Y1104494D01*
X289459Y1111001D01*
X1154556Y1111001D01*
X1162465Y1103092D01*
X1211373Y1054184D01*
X1211743Y1053897D01*
X1212093Y1053587D01*
X1212236Y1053515D01*
X1212362Y1053416D01*
X1212791Y1053231D01*
X1213208Y1053018D01*
X1213365Y1052982D01*
X1213512Y1052919D01*
X1213974Y1052845D01*
X1214430Y1052743D01*
X1214591Y1052748D01*
X1214749Y1052722D01*
X1215214Y1052766D01*
X1215682Y1052780D01*
X1215836Y1052825D01*
X1215995Y1052840D01*
X1216435Y1052998D01*
X1216885Y1053127D01*
X1217023Y1053209D01*
X1217174Y1053263D01*
X1217561Y1053525D01*
X1217964Y1053763D01*
X1218143Y1053921D01*
X1218210Y1053966D01*
X1218264Y1054026D01*
X1218443Y1054184D01*
X1228474Y1064215D01*
X1242441Y1070001D01*
X1257559Y1070001D01*
X1271525Y1064215D01*
X1282215Y1053525D01*
X1288001Y1039559D01*
X1288001Y960441D01*
X1282215Y946474D01*
X1271525Y935784D01*
X1264087Y932703D01*
X1263987Y932646D01*
X1263877Y932611D01*
X1263443Y932336D01*
X1262999Y932083D01*
X1262917Y932003D01*
X1262819Y931941D01*
X1262466Y931567D01*
X1262099Y931211D01*
X1262039Y931113D01*
X1261960Y931030D01*
X1261712Y930581D01*
X1261445Y930144D01*
X1261411Y930034D01*
X1261355Y929933D01*
X1261226Y929436D01*
X1261076Y928947D01*
X1261070Y928833D01*
X1261041Y928721D01*
X1261001Y928085D01*
X1261001Y745443D01*
X1154556Y638999D01*
X906627Y638999D01*
X906242Y638951D01*
X905853Y638939D01*
X905623Y638872D01*
X905385Y638842D01*
X905024Y638700D01*
X904650Y638592D01*
X904443Y638470D01*
X904220Y638382D01*
X903906Y638153D01*
X903571Y637956D01*
X903272Y637694D01*
X903207Y637646D01*
X903176Y637609D01*
X903092Y637535D01*
X749670Y484112D01*
X749431Y483805D01*
X749165Y483522D01*
X749049Y483312D01*
X748902Y483123D01*
X748747Y482766D01*
X748560Y482426D01*
X748500Y482194D01*
X748404Y481974D01*
X748343Y481590D01*
X748246Y481213D01*
X748221Y480817D01*
X748208Y480737D01*
X748212Y480689D01*
X748205Y480577D01*
X748205Y475832D01*
X748274Y475288D01*
X748325Y474744D01*
X748352Y474669D01*
X748362Y474589D01*
X748564Y474080D01*
X748748Y473566D01*
X748793Y473499D01*
X748823Y473425D01*
X749144Y472982D01*
X749451Y472529D01*
X749511Y472476D01*
X749559Y472411D01*
X749979Y472063D01*
X750390Y471700D01*
X750462Y471664D01*
X750523Y471613D01*
X751016Y471380D01*
X751505Y471130D01*
X751583Y471113D01*
X751656Y471078D01*
X752192Y470976D01*
X752727Y470855D01*
X752807Y470858D01*
X752886Y470843D01*
X753431Y470876D01*
X753979Y470893D01*
X754056Y470915D01*
X754136Y470920D01*
X754656Y471088D01*
X755182Y471240D01*
X755251Y471281D01*
X755327Y471306D01*
X755791Y471599D01*
X756261Y471876D01*
X756344Y471949D01*
X756386Y471975D01*
X756442Y472035D01*
X756740Y472297D01*
X887535Y603092D01*
X895443Y611001D01*
X1193373Y611001D01*
X1193758Y611049D01*
X1194147Y611061D01*
X1194377Y611127D01*
X1194615Y611157D01*
X1194976Y611300D01*
X1195350Y611408D01*
X1195557Y611530D01*
X1195780Y611618D01*
X1196094Y611846D01*
X1196429Y612044D01*
X1196727Y612306D01*
X1196793Y612354D01*
X1196824Y612391D01*
X1196908Y612465D01*
X1295816Y711373D01*
X1296103Y711743D01*
X1296412Y712093D01*
X1296456Y712179D01*
X1296474Y712200D01*
X1296499Y712254D01*
X1296583Y712362D01*
X1296769Y712791D01*
X1296982Y713208D01*
X1297017Y713365D01*
X1297081Y713512D01*
X1297154Y713974D01*
X1297257Y714430D01*
X1297252Y714591D01*
X1297277Y714749D01*
X1297234Y715214D01*
X1297220Y715682D01*
X1297175Y715836D01*
X1297160Y715995D01*
X1297002Y716435D01*
X1296872Y716885D01*
X1296791Y717023D01*
X1296737Y717174D01*
X1296474Y717561D01*
X1296237Y717964D01*
X1296079Y718143D01*
X1296034Y718210D01*
X1295973Y718264D01*
X1295816Y718443D01*
X1285784Y728474D01*
X1279999Y742441D01*
X1279999Y757559D01*
X1285784Y771525D01*
X1296474Y782215D01*
X1310441Y788001D01*
X1389559Y788001D01*
X1403525Y782215D01*
X1414215Y771525D01*
X1420001Y757559D01*
X1420001Y742441D01*
X1414215Y728474D01*
X1403525Y717784D01*
X1389559Y711999D01*
X1329627Y711999D01*
X1329242Y711951D01*
X1328853Y711939D01*
X1328623Y711872D01*
X1328385Y711842D01*
X1328024Y711700D01*
X1327650Y711592D01*
X1327443Y711470D01*
X1327220Y711382D01*
X1326906Y711153D01*
X1326571Y710956D01*
X1326272Y710694D01*
X1326207Y710646D01*
X1326176Y710609D01*
X1326092Y710535D01*
X1312092Y696535D01*
X1311756Y696102D01*
X1311408Y695681D01*
X1311374Y695609D01*
X1311324Y695545D01*
X1311106Y695042D01*
X1310874Y694549D01*
X1310859Y694470D01*
X1310827Y694396D01*
X1310741Y693856D01*
X1310638Y693319D01*
X1310643Y693239D01*
X1310630Y693159D01*
X1310681Y692615D01*
X1310715Y692069D01*
X1310740Y691992D01*
X1310748Y691913D01*
X1310932Y691399D01*
X1311101Y690877D01*
X1311144Y690809D01*
X1311171Y690734D01*
X1311477Y690283D01*
X1311770Y689819D01*
X1311829Y689764D01*
X1311874Y689697D01*
X1312283Y689336D01*
X1312682Y688960D01*
X1312752Y688922D01*
X1312812Y688868D01*
X1313302Y688618D01*
X1313779Y688355D01*
X1313856Y688335D01*
X1313928Y688298D01*
X1314461Y688178D01*
X1314991Y688041D01*
X1315102Y688034D01*
X1315149Y688023D01*
X1315231Y688026D01*
X1315627Y688001D01*
X1389559Y688001D01*
X1403525Y682215D01*
X1414215Y671525D01*
X1420001Y657559D01*
X1420001Y642441D01*
X1414215Y628474D01*
X1403525Y617784D01*
X1389559Y611999D01*
X1329627Y611999D01*
X1329242Y611951D01*
X1328853Y611939D01*
X1328623Y611872D01*
X1328385Y611842D01*
X1328024Y611700D01*
X1327650Y611592D01*
X1327443Y611470D01*
X1327220Y611382D01*
X1326906Y611153D01*
X1326571Y610956D01*
X1326272Y610694D01*
X1326207Y610646D01*
X1326176Y610609D01*
X1326092Y610535D01*
X1262465Y546908D01*
X1254556Y538999D01*
X906627Y538999D01*
X906242Y538951D01*
X905853Y538939D01*
X905623Y538872D01*
X905385Y538842D01*
X905023Y538699D01*
X904650Y538592D01*
X904443Y538470D01*
X904220Y538382D01*
X903906Y538153D01*
X903571Y537956D01*
X903272Y537694D01*
X903207Y537646D01*
X903176Y537609D01*
X903092Y537535D01*
X800851Y435293D01*
X800612Y434986D01*
X800346Y434703D01*
X800230Y434493D01*
X800083Y434304D01*
X799929Y433947D01*
X799741Y433607D01*
X799681Y433375D01*
X799585Y433155D01*
X799524Y432771D01*
X799427Y432395D01*
X799402Y431998D01*
X799389Y431918D01*
X799394Y431870D01*
X799386Y431758D01*
X799386Y427013D01*
X799455Y426470D01*
X799506Y425925D01*
X799533Y425850D01*
X799543Y425770D01*
X799744Y425263D01*
X799930Y424747D01*
X799975Y424680D01*
X800004Y424606D01*
X800325Y424163D01*
X800633Y423710D01*
X800693Y423657D01*
X800740Y423592D01*
X801162Y423243D01*
X801571Y422881D01*
X801642Y422845D01*
X801704Y422794D01*
X802199Y422560D01*
X802686Y422311D01*
X802764Y422294D01*
X802837Y422260D01*
X803374Y422157D01*
X803908Y422037D01*
X803988Y422039D01*
X804067Y422024D01*
X804612Y422058D01*
X805160Y422074D01*
X805237Y422096D01*
X805317Y422101D01*
X805838Y422270D01*
X806363Y422421D01*
X806432Y422462D01*
X806508Y422487D01*
X806972Y422780D01*
X807442Y423057D01*
X807525Y423130D01*
X807567Y423156D01*
X807623Y423216D01*
X807921Y423478D01*
X810882Y426439D01*
X810884Y426441D01*
X837535Y453092D01*
X845443Y461001D01*
X904556Y461001D01*
X953092Y412465D01*
X953093Y412464D01*
X961001Y404556D01*
X961001Y156627D01*
X961049Y156242D01*
X961061Y155853D01*
X961127Y155623D01*
X961157Y155385D01*
X961300Y155024D01*
X961408Y154650D01*
X961530Y154443D01*
X961618Y154220D01*
X961846Y153906D01*
X962044Y153571D01*
X962306Y153272D01*
X962354Y153207D01*
X962391Y153176D01*
X962465Y153092D01*
X1053092Y62465D01*
X1053400Y62226D01*
X1053682Y61960D01*
X1053892Y61844D01*
X1054082Y61697D01*
X1054439Y61543D01*
X1054779Y61355D01*
X1055011Y61295D01*
X1055231Y61200D01*
X1055615Y61139D01*
X1055991Y61041D01*
X1056388Y61016D01*
X1056468Y61003D01*
X1056516Y61008D01*
X1056627Y61001D01*
X1193373Y61001D01*
X1193758Y61049D01*
X1194147Y61061D01*
X1194377Y61127D01*
X1194615Y61157D01*
X1194976Y61300D01*
X1195350Y61408D01*
X1195557Y61530D01*
X1195780Y61618D01*
X1196094Y61846D01*
X1196429Y62044D01*
X1196727Y62306D01*
X1196793Y62354D01*
X1196824Y62391D01*
X1196908Y62465D01*
X1223057Y88615D01*
X1223394Y89048D01*
X1223742Y89468D01*
X1223776Y89541D01*
X1223825Y89604D01*
X1224043Y90106D01*
X1224276Y90601D01*
X1224291Y90680D01*
X1224323Y90753D01*
X1224408Y91294D01*
X1224511Y91831D01*
X1224507Y91911D01*
X1224519Y91990D01*
X1224468Y92534D01*
X1224434Y93081D01*
X1224409Y93157D01*
X1224402Y93237D01*
X1224217Y93751D01*
X1224049Y94272D01*
X1224006Y94340D01*
X1223979Y94416D01*
X1223673Y94867D01*
X1223379Y95331D01*
X1223320Y95386D01*
X1223276Y95452D01*
X1222866Y95814D01*
X1222467Y96189D01*
X1222397Y96228D01*
X1222337Y96281D01*
X1221849Y96531D01*
X1221371Y96795D01*
X1221293Y96815D01*
X1221222Y96851D01*
X1220689Y96971D01*
X1220159Y97108D01*
X1220047Y97115D01*
X1220000Y97126D01*
X1219919Y97124D01*
X1219522Y97149D01*
X1180585Y97149D01*
X1177070Y100664D01*
X1177070Y156816D01*
X1180585Y160331D01*
X1319415Y160331D01*
X1322930Y156816D01*
X1322930Y100664D01*
X1319415Y97149D01*
X1264777Y97149D01*
X1264391Y97100D01*
X1264003Y97089D01*
X1263772Y97022D01*
X1263534Y96992D01*
X1263173Y96849D01*
X1262799Y96741D01*
X1262592Y96619D01*
X1262370Y96531D01*
X1262056Y96303D01*
X1261720Y96106D01*
X1261422Y95844D01*
X1261356Y95796D01*
X1261325Y95758D01*
X1261242Y95685D01*
X1253093Y87536D01*
X1253092Y87535D01*
X1204556Y38999D01*
X1045443Y38999D01*
G37*
%LPD*%
%LPC*%
G36*
X394664Y-26827D02*
X394664Y-26827D01*
X384804Y-22743D01*
X377257Y-15196D01*
X373172Y-5336D01*
X373172Y5336D01*
X377257Y15196D01*
X384804Y22743D01*
X394664Y26827D01*
X405336Y26827D01*
X415196Y22743D01*
X422743Y15196D01*
X423203Y14087D01*
X423260Y13987D01*
X423295Y13877D01*
X423569Y13444D01*
X423823Y12999D01*
X423903Y12916D01*
X423965Y12819D01*
X424337Y12468D01*
X424694Y12099D01*
X424793Y12039D01*
X424876Y11960D01*
X425324Y11713D01*
X425762Y11445D01*
X425872Y11411D01*
X425973Y11355D01*
X426470Y11226D01*
X426959Y11076D01*
X427073Y11070D01*
X427185Y11041D01*
X427821Y11001D01*
X743373Y11001D01*
X743758Y11049D01*
X744147Y11061D01*
X744377Y11127D01*
X744615Y11157D01*
X744976Y11300D01*
X745350Y11408D01*
X745557Y11530D01*
X745780Y11618D01*
X746094Y11846D01*
X746429Y12044D01*
X746727Y12306D01*
X746793Y12354D01*
X746824Y12391D01*
X746908Y12465D01*
X750330Y15888D01*
X750569Y16195D01*
X750835Y16478D01*
X750951Y16688D01*
X751098Y16877D01*
X751252Y17234D01*
X751440Y17574D01*
X751500Y17806D01*
X751596Y18026D01*
X751656Y18410D01*
X751754Y18786D01*
X751779Y19183D01*
X751792Y19263D01*
X751787Y19311D01*
X751795Y19423D01*
X751795Y101205D01*
X751736Y101669D01*
X751707Y102136D01*
X751658Y102288D01*
X751638Y102447D01*
X751466Y102882D01*
X751321Y103328D01*
X751236Y103463D01*
X751177Y103612D01*
X750903Y103990D01*
X750652Y104386D01*
X750535Y104496D01*
X750441Y104625D01*
X750081Y104923D01*
X749740Y105244D01*
X749600Y105322D01*
X749477Y105424D01*
X749054Y105623D01*
X748644Y105850D01*
X748489Y105890D01*
X748344Y105958D01*
X747885Y106046D01*
X747431Y106163D01*
X747193Y106179D01*
X747114Y106194D01*
X747033Y106189D01*
X746795Y106204D01*
X727614Y106204D01*
X727150Y106145D01*
X726683Y106117D01*
X726530Y106067D01*
X726372Y106047D01*
X725937Y105875D01*
X725491Y105731D01*
X725356Y105645D01*
X725207Y105586D01*
X724829Y105312D01*
X724433Y105061D01*
X724323Y104945D01*
X724194Y104851D01*
X723895Y104491D01*
X723574Y104150D01*
X723497Y104009D01*
X723395Y103886D01*
X723195Y103463D01*
X722969Y103053D01*
X722929Y102898D01*
X722861Y102753D01*
X722773Y102295D01*
X722655Y101841D01*
X722640Y101603D01*
X722625Y101523D01*
X722630Y101443D01*
X722615Y101205D01*
X722615Y57058D01*
X704556Y38999D01*
X295443Y38999D01*
X287536Y46907D01*
X287535Y46908D01*
X46908Y287535D01*
X46907Y287535D01*
X38999Y295443D01*
X38999Y604556D01*
X78908Y644465D01*
X99630Y644465D01*
X100094Y644524D01*
X100561Y644553D01*
X100714Y644602D01*
X100872Y644622D01*
X101307Y644794D01*
X101753Y644938D01*
X101888Y645024D01*
X102037Y645083D01*
X102415Y645357D01*
X102811Y645608D01*
X102921Y645725D01*
X103050Y645819D01*
X103349Y646179D01*
X103670Y646519D01*
X103747Y646660D01*
X103849Y646783D01*
X104049Y647206D01*
X104275Y647616D01*
X104315Y647771D01*
X104383Y647916D01*
X104471Y648375D01*
X104589Y648828D01*
X104604Y649066D01*
X104619Y649146D01*
X104614Y649226D01*
X104629Y649464D01*
X104629Y649730D01*
X108144Y653245D01*
X129349Y653245D01*
X129724Y653053D01*
X129880Y653018D01*
X130027Y652955D01*
X130488Y652881D01*
X130946Y652778D01*
X131106Y652783D01*
X131263Y652758D01*
X131729Y652802D01*
X132198Y652816D01*
X132351Y652860D01*
X132510Y652875D01*
X132950Y653033D01*
X133401Y653163D01*
X133539Y653244D01*
X133689Y653298D01*
X134076Y653561D01*
X134480Y653799D01*
X134659Y653956D01*
X134725Y654001D01*
X134779Y654061D01*
X134959Y654220D01*
X135986Y655247D01*
X138266Y656563D01*
X140809Y657245D01*
X145000Y657245D01*
X145000Y633466D01*
X145000Y633465D01*
X145000Y633463D01*
X145000Y609684D01*
X140809Y609684D01*
X138266Y610366D01*
X135986Y611682D01*
X134959Y612709D01*
X134588Y612997D01*
X134238Y613306D01*
X134095Y613379D01*
X133969Y613477D01*
X133540Y613663D01*
X133122Y613876D01*
X132966Y613911D01*
X132820Y613975D01*
X132358Y614048D01*
X131901Y614151D01*
X131740Y614146D01*
X131583Y614171D01*
X131117Y614127D01*
X130649Y614113D01*
X130495Y614069D01*
X130336Y614054D01*
X129896Y613896D01*
X129446Y613766D01*
X129308Y613684D01*
X129307Y613684D01*
X108144Y613684D01*
X104629Y617199D01*
X104629Y617465D01*
X104571Y617929D01*
X104542Y618396D01*
X104492Y618548D01*
X104472Y618707D01*
X104300Y619142D01*
X104156Y619587D01*
X104070Y619723D01*
X104012Y619872D01*
X103737Y620249D01*
X103487Y620646D01*
X103370Y620756D01*
X103276Y620885D01*
X102916Y621183D01*
X102575Y621504D01*
X102435Y621582D01*
X102311Y621684D01*
X101888Y621883D01*
X101478Y622109D01*
X101323Y622150D01*
X101179Y622218D01*
X100720Y622306D01*
X100266Y622423D01*
X100028Y622438D01*
X99949Y622454D01*
X99868Y622449D01*
X99630Y622464D01*
X90092Y622464D01*
X89706Y622415D01*
X89318Y622404D01*
X89087Y622337D01*
X88849Y622307D01*
X88488Y622164D01*
X88115Y622056D01*
X87908Y621934D01*
X87685Y621846D01*
X87370Y621618D01*
X87035Y621421D01*
X86737Y621158D01*
X86671Y621110D01*
X86641Y621073D01*
X86557Y621000D01*
X62465Y596908D01*
X62226Y596600D01*
X61960Y596318D01*
X61844Y596108D01*
X61697Y595918D01*
X61543Y595561D01*
X61355Y595221D01*
X61295Y594989D01*
X61200Y594769D01*
X61139Y594385D01*
X61041Y594009D01*
X61016Y593612D01*
X61003Y593532D01*
X61008Y593484D01*
X61001Y593373D01*
X61001Y306627D01*
X61049Y306242D01*
X61061Y305853D01*
X61127Y305623D01*
X61157Y305385D01*
X61300Y305024D01*
X61408Y304650D01*
X61530Y304443D01*
X61618Y304220D01*
X61846Y303906D01*
X62044Y303571D01*
X62306Y303272D01*
X62354Y303207D01*
X62391Y303176D01*
X62465Y303092D01*
X303092Y62465D01*
X303399Y62226D01*
X303682Y61960D01*
X303892Y61844D01*
X304082Y61697D01*
X304438Y61543D01*
X304779Y61355D01*
X305011Y61295D01*
X305231Y61200D01*
X305614Y61139D01*
X305991Y61041D01*
X306388Y61016D01*
X306468Y61003D01*
X306516Y61008D01*
X306627Y61001D01*
X693373Y61001D01*
X693758Y61049D01*
X694147Y61061D01*
X694377Y61127D01*
X694615Y61157D01*
X694976Y61300D01*
X695350Y61408D01*
X695557Y61530D01*
X695780Y61618D01*
X696094Y61846D01*
X696429Y62044D01*
X696727Y62306D01*
X696793Y62354D01*
X696824Y62391D01*
X696908Y62465D01*
X699149Y64706D01*
X699388Y65014D01*
X699654Y65297D01*
X699770Y65506D01*
X699917Y65696D01*
X700071Y66053D01*
X700259Y66393D01*
X700319Y66625D01*
X700414Y66845D01*
X700475Y67229D01*
X700573Y67605D01*
X700598Y68002D01*
X700611Y68082D01*
X700606Y68130D01*
X700613Y68242D01*
X700613Y101205D01*
X700555Y101669D01*
X700526Y102136D01*
X700477Y102288D01*
X700457Y102447D01*
X700285Y102882D01*
X700140Y103328D01*
X700055Y103463D01*
X699996Y103612D01*
X699722Y103990D01*
X699471Y104386D01*
X699354Y104496D01*
X699260Y104625D01*
X698900Y104923D01*
X698559Y105244D01*
X698419Y105322D01*
X698296Y105424D01*
X697873Y105623D01*
X697463Y105850D01*
X697308Y105890D01*
X697163Y105958D01*
X696704Y106046D01*
X696250Y106163D01*
X696012Y106179D01*
X695933Y106194D01*
X695852Y106189D01*
X695614Y106204D01*
X677633Y106204D01*
X676765Y107071D01*
X676395Y107359D01*
X676045Y107668D01*
X675902Y107741D01*
X675776Y107839D01*
X675346Y108025D01*
X674930Y108238D01*
X674773Y108273D01*
X674626Y108336D01*
X674164Y108410D01*
X673708Y108513D01*
X673548Y108508D01*
X673390Y108533D01*
X672924Y108489D01*
X672456Y108475D01*
X672302Y108431D01*
X672143Y108416D01*
X671703Y108258D01*
X671253Y108128D01*
X671115Y108047D01*
X670964Y107992D01*
X670577Y107730D01*
X670174Y107492D01*
X669995Y107335D01*
X669928Y107289D01*
X669874Y107229D01*
X669695Y107071D01*
X668828Y106204D01*
X652046Y106204D01*
X651177Y107073D01*
X650806Y107361D01*
X650456Y107670D01*
X650314Y107743D01*
X650187Y107841D01*
X649758Y108027D01*
X649341Y108240D01*
X649185Y108275D01*
X649038Y108338D01*
X648576Y108412D01*
X648119Y108515D01*
X647959Y108510D01*
X647801Y108535D01*
X647336Y108491D01*
X646867Y108477D01*
X646713Y108433D01*
X646554Y108418D01*
X646114Y108260D01*
X645664Y108130D01*
X645526Y108048D01*
X645376Y107994D01*
X644988Y107732D01*
X644585Y107494D01*
X644406Y107337D01*
X644339Y107291D01*
X644285Y107231D01*
X644107Y107073D01*
X643237Y106204D01*
X626455Y106204D01*
X622940Y109719D01*
X622940Y119823D01*
X622882Y120287D01*
X622853Y120754D01*
X622803Y120906D01*
X622783Y121065D01*
X622611Y121500D01*
X622467Y121946D01*
X622381Y122081D01*
X622323Y122230D01*
X622048Y122608D01*
X621798Y123004D01*
X621681Y123114D01*
X621587Y123243D01*
X621227Y123542D01*
X620886Y123863D01*
X620746Y123940D01*
X620622Y124042D01*
X620199Y124242D01*
X619789Y124468D01*
X619634Y124508D01*
X619490Y124576D01*
X619031Y124664D01*
X618577Y124781D01*
X618339Y124797D01*
X618260Y124812D01*
X618179Y124807D01*
X617941Y124822D01*
X559621Y124822D01*
X488999Y195443D01*
X488999Y393373D01*
X488951Y393758D01*
X488939Y394147D01*
X488872Y394377D01*
X488842Y394615D01*
X488700Y394976D01*
X488592Y395350D01*
X488470Y395557D01*
X488382Y395780D01*
X488153Y396094D01*
X487956Y396429D01*
X487694Y396727D01*
X487646Y396793D01*
X487609Y396824D01*
X487535Y396908D01*
X396908Y487535D01*
X396600Y487773D01*
X396318Y488040D01*
X396108Y488156D01*
X395918Y488303D01*
X395561Y488457D01*
X395221Y488645D01*
X394989Y488705D01*
X394769Y488800D01*
X394385Y488861D01*
X394009Y488959D01*
X393612Y488984D01*
X393532Y488997D01*
X393484Y488992D01*
X393373Y488999D01*
X195443Y488999D01*
X187536Y496907D01*
X187535Y496908D01*
X146908Y537535D01*
X146907Y537536D01*
X138039Y546404D01*
X137607Y546739D01*
X137185Y547088D01*
X137113Y547122D01*
X137049Y547172D01*
X136547Y547389D01*
X136053Y547622D01*
X135974Y547637D01*
X135900Y547669D01*
X135360Y547755D01*
X134823Y547858D01*
X134742Y547853D01*
X134663Y547866D01*
X134119Y547814D01*
X133573Y547781D01*
X133496Y547756D01*
X133416Y547748D01*
X132903Y547564D01*
X132381Y547395D01*
X132313Y547352D01*
X132238Y547325D01*
X131787Y547019D01*
X131323Y546726D01*
X131267Y546667D01*
X131201Y546622D01*
X130839Y546212D01*
X130464Y545814D01*
X130425Y545744D01*
X130372Y545684D01*
X130123Y545195D01*
X129859Y544717D01*
X129839Y544640D01*
X129802Y544568D01*
X129682Y544035D01*
X129545Y543505D01*
X129538Y543394D01*
X129527Y543347D01*
X129530Y543265D01*
X129505Y542869D01*
X129505Y338123D01*
X129553Y337738D01*
X129565Y337349D01*
X129631Y337119D01*
X129661Y336881D01*
X129804Y336520D01*
X129912Y336146D01*
X130034Y335939D01*
X130122Y335716D01*
X130350Y335402D01*
X130548Y335067D01*
X130810Y334768D01*
X130858Y334703D01*
X130895Y334672D01*
X130969Y334588D01*
X338106Y127451D01*
X338197Y127381D01*
X338272Y127293D01*
X338690Y126998D01*
X339095Y126684D01*
X339201Y126638D01*
X339295Y126571D01*
X339774Y126390D01*
X340244Y126186D01*
X340359Y126168D01*
X340466Y126127D01*
X340975Y126070D01*
X341481Y125990D01*
X341596Y126000D01*
X341711Y125988D01*
X342219Y126059D01*
X342728Y126107D01*
X342836Y126146D01*
X342951Y126162D01*
X343554Y126368D01*
X344664Y126827D01*
X355336Y126827D01*
X365196Y122743D01*
X372743Y115196D01*
X376827Y105336D01*
X376827Y94664D01*
X372743Y84804D01*
X365196Y77257D01*
X355336Y73172D01*
X344664Y73172D01*
X334804Y77257D01*
X327257Y84804D01*
X323172Y94664D01*
X323172Y105336D01*
X323632Y106446D01*
X323663Y106557D01*
X323715Y106660D01*
X323828Y107160D01*
X323963Y107654D01*
X323965Y107769D01*
X323990Y107881D01*
X323975Y108394D01*
X323983Y108906D01*
X323956Y109018D01*
X323953Y109133D01*
X323810Y109627D01*
X323691Y110124D01*
X323637Y110225D01*
X323605Y110336D01*
X323345Y110778D01*
X323106Y111231D01*
X323028Y111316D01*
X322970Y111416D01*
X322549Y111894D01*
X115412Y319031D01*
X107503Y326939D01*
X107503Y545326D01*
X107454Y545711D01*
X107443Y546100D01*
X107376Y546330D01*
X107346Y546568D01*
X107203Y546930D01*
X107095Y547303D01*
X106974Y547509D01*
X106886Y547733D01*
X106657Y548047D01*
X106460Y548382D01*
X106198Y548680D01*
X106150Y548746D01*
X106112Y548777D01*
X106039Y548861D01*
X104629Y550270D01*
X104629Y582800D01*
X108144Y586316D01*
X128864Y586316D01*
X130717Y584462D01*
X131086Y584175D01*
X131437Y583866D01*
X131580Y583793D01*
X131706Y583695D01*
X132136Y583508D01*
X132552Y583296D01*
X132708Y583261D01*
X132855Y583197D01*
X133318Y583123D01*
X133774Y583021D01*
X133934Y583026D01*
X134092Y583000D01*
X134558Y583044D01*
X135026Y583058D01*
X135180Y583103D01*
X135339Y583118D01*
X135779Y583276D01*
X136229Y583406D01*
X136367Y583487D01*
X136518Y583541D01*
X136905Y583804D01*
X137308Y584041D01*
X137487Y584198D01*
X137554Y584244D01*
X137608Y584305D01*
X137787Y584462D01*
X139640Y586316D01*
X160359Y586316D01*
X162213Y584462D01*
X162583Y584175D01*
X162933Y583866D01*
X163076Y583793D01*
X163203Y583695D01*
X163632Y583508D01*
X164049Y583296D01*
X164205Y583261D01*
X164352Y583197D01*
X164814Y583123D01*
X165270Y583021D01*
X165431Y583026D01*
X165589Y583000D01*
X166054Y583044D01*
X166522Y583058D01*
X166676Y583103D01*
X166835Y583118D01*
X167276Y583276D01*
X167725Y583406D01*
X167863Y583487D01*
X168014Y583541D01*
X168401Y583804D01*
X168805Y584041D01*
X168983Y584198D01*
X169050Y584244D01*
X169104Y584305D01*
X169283Y584462D01*
X171136Y586316D01*
X191856Y586316D01*
X195371Y582800D01*
X195371Y550270D01*
X191856Y546755D01*
X180871Y546755D01*
X180328Y546687D01*
X179784Y546635D01*
X179708Y546608D01*
X179629Y546598D01*
X179120Y546397D01*
X178605Y546212D01*
X178539Y546167D01*
X178464Y546138D01*
X178021Y545816D01*
X177569Y545509D01*
X177516Y545449D01*
X177451Y545402D01*
X177102Y544981D01*
X176740Y544571D01*
X176703Y544499D01*
X176652Y544437D01*
X176419Y543944D01*
X176170Y543455D01*
X176152Y543377D01*
X176118Y543305D01*
X176015Y542768D01*
X175895Y542234D01*
X175897Y542153D01*
X175882Y542075D01*
X175916Y541529D01*
X175932Y540982D01*
X175954Y540905D01*
X175959Y540825D01*
X176128Y540304D01*
X176280Y539779D01*
X176320Y539710D01*
X176345Y539633D01*
X176638Y539170D01*
X176915Y538699D01*
X176988Y538616D01*
X177015Y538575D01*
X177074Y538519D01*
X177336Y538221D01*
X203092Y512465D01*
X203399Y512226D01*
X203682Y511960D01*
X203892Y511844D01*
X204082Y511697D01*
X204438Y511543D01*
X204779Y511355D01*
X205011Y511295D01*
X205231Y511200D01*
X205614Y511139D01*
X205991Y511041D01*
X206388Y511016D01*
X206468Y511003D01*
X206516Y511008D01*
X206627Y511001D01*
X384000Y511001D01*
X384464Y511059D01*
X384931Y511088D01*
X385084Y511137D01*
X385242Y511157D01*
X385677Y511329D01*
X386123Y511474D01*
X386258Y511559D01*
X386407Y511618D01*
X386785Y511892D01*
X387181Y512143D01*
X387291Y512260D01*
X387421Y512354D01*
X387719Y512714D01*
X388040Y513055D01*
X388117Y513195D01*
X388219Y513318D01*
X388419Y513742D01*
X388645Y514151D01*
X388685Y514306D01*
X388753Y514451D01*
X388841Y514910D01*
X388959Y515364D01*
X388974Y515602D01*
X388989Y515681D01*
X388984Y515762D01*
X388999Y516000D01*
X388999Y843373D01*
X388951Y843758D01*
X388939Y844147D01*
X388872Y844377D01*
X388842Y844615D01*
X388700Y844976D01*
X388592Y845350D01*
X388470Y845557D01*
X388382Y845780D01*
X388153Y846094D01*
X387956Y846429D01*
X387694Y846727D01*
X387646Y846793D01*
X387609Y846824D01*
X387535Y846908D01*
X361894Y872549D01*
X361803Y872619D01*
X361728Y872707D01*
X361310Y873002D01*
X360905Y873316D01*
X360799Y873362D01*
X360705Y873428D01*
X360226Y873610D01*
X359755Y873814D01*
X359641Y873832D01*
X359534Y873873D01*
X359025Y873930D01*
X358519Y874010D01*
X358404Y873999D01*
X358289Y874012D01*
X357781Y873941D01*
X357272Y873893D01*
X357163Y873854D01*
X357049Y873838D01*
X356446Y873632D01*
X355336Y873172D01*
X344664Y873172D01*
X334804Y877257D01*
X327257Y884804D01*
X323172Y894664D01*
X323172Y905336D01*
X327257Y915196D01*
X334804Y922743D01*
X344664Y926827D01*
X355336Y926827D01*
X365196Y922743D01*
X372743Y915196D01*
X376827Y905336D01*
X376827Y894664D01*
X376368Y893554D01*
X376337Y893443D01*
X376285Y893340D01*
X376172Y892840D01*
X376037Y892346D01*
X376035Y892231D01*
X376010Y892118D01*
X376025Y891605D01*
X376017Y891094D01*
X376044Y890982D01*
X376047Y890867D01*
X376190Y890373D01*
X376309Y889876D01*
X376363Y889775D01*
X376395Y889663D01*
X376655Y889221D01*
X376894Y888769D01*
X376972Y888684D01*
X377030Y888584D01*
X377451Y888106D01*
X403092Y862465D01*
X411001Y854556D01*
X411001Y506627D01*
X411049Y506242D01*
X411061Y505853D01*
X411127Y505623D01*
X411157Y505385D01*
X411300Y505024D01*
X411408Y504650D01*
X411530Y504443D01*
X411618Y504220D01*
X411846Y503906D01*
X412044Y503571D01*
X412306Y503272D01*
X412354Y503207D01*
X412391Y503176D01*
X412465Y503092D01*
X511001Y404556D01*
X511001Y206627D01*
X511049Y206242D01*
X511061Y205853D01*
X511127Y205623D01*
X511157Y205385D01*
X511300Y205024D01*
X511408Y204650D01*
X511530Y204443D01*
X511618Y204220D01*
X511846Y203906D01*
X512044Y203571D01*
X512306Y203272D01*
X512354Y203207D01*
X512391Y203176D01*
X512465Y203092D01*
X567269Y148288D01*
X567577Y148049D01*
X567859Y147783D01*
X568069Y147667D01*
X568259Y147520D01*
X568616Y147366D01*
X568956Y147178D01*
X569188Y147118D01*
X569408Y147022D01*
X569792Y146961D01*
X570168Y146864D01*
X570565Y146839D01*
X570645Y146826D01*
X570693Y146831D01*
X570805Y146823D01*
X617941Y146823D01*
X618405Y146882D01*
X618872Y146911D01*
X619025Y146960D01*
X619183Y146980D01*
X619618Y147152D01*
X620064Y147297D01*
X620199Y147382D01*
X620348Y147441D01*
X620726Y147715D01*
X621122Y147966D01*
X621232Y148083D01*
X621361Y148177D01*
X621660Y148537D01*
X621981Y148878D01*
X622058Y149018D01*
X622160Y149141D01*
X622360Y149564D01*
X622586Y149974D01*
X622626Y150129D01*
X622694Y150274D01*
X622782Y150733D01*
X622900Y151187D01*
X622915Y151425D01*
X622930Y151504D01*
X622925Y151585D01*
X622940Y151823D01*
X622940Y161926D01*
X626455Y165442D01*
X643237Y165442D01*
X644107Y164572D01*
X644476Y164286D01*
X644827Y163976D01*
X644969Y163903D01*
X645096Y163805D01*
X645526Y163619D01*
X645942Y163406D01*
X646098Y163371D01*
X646245Y163307D01*
X646707Y163234D01*
X647164Y163131D01*
X647324Y163136D01*
X647482Y163111D01*
X647947Y163154D01*
X648416Y163168D01*
X648570Y163213D01*
X648729Y163228D01*
X649169Y163386D01*
X649619Y163516D01*
X649757Y163597D01*
X649907Y163651D01*
X650295Y163914D01*
X650698Y164151D01*
X650877Y164309D01*
X650944Y164354D01*
X650997Y164415D01*
X651177Y164572D01*
X652046Y165442D01*
X668828Y165442D01*
X669695Y164574D01*
X670065Y164288D01*
X670415Y163978D01*
X670558Y163905D01*
X670685Y163807D01*
X671114Y163621D01*
X671531Y163408D01*
X671687Y163373D01*
X671834Y163309D01*
X672296Y163236D01*
X672752Y163133D01*
X672913Y163138D01*
X673071Y163113D01*
X673536Y163156D01*
X674004Y163170D01*
X674158Y163215D01*
X674317Y163230D01*
X674757Y163388D01*
X675207Y163518D01*
X675345Y163599D01*
X675496Y163653D01*
X675884Y163916D01*
X676287Y164153D01*
X676466Y164311D01*
X676532Y164356D01*
X676586Y164417D01*
X676765Y164574D01*
X677633Y165442D01*
X694415Y165442D01*
X695284Y164572D01*
X695653Y164286D01*
X696004Y163976D01*
X696147Y163903D01*
X696273Y163805D01*
X696703Y163619D01*
X697119Y163406D01*
X697275Y163371D01*
X697422Y163307D01*
X697885Y163234D01*
X698341Y163131D01*
X698501Y163136D01*
X698659Y163111D01*
X699125Y163154D01*
X699593Y163168D01*
X699747Y163213D01*
X699906Y163228D01*
X700346Y163386D01*
X700796Y163516D01*
X700934Y163597D01*
X701085Y163651D01*
X701472Y163914D01*
X701875Y164151D01*
X702054Y164309D01*
X702121Y164354D01*
X702175Y164415D01*
X702354Y164572D01*
X703223Y165442D01*
X720005Y165442D01*
X720874Y164572D01*
X721244Y164286D01*
X721595Y163976D01*
X721737Y163903D01*
X721864Y163805D01*
X722293Y163619D01*
X722710Y163406D01*
X722866Y163371D01*
X723013Y163307D01*
X723475Y163234D01*
X723932Y163131D01*
X724092Y163136D01*
X724250Y163111D01*
X724715Y163154D01*
X725183Y163168D01*
X725338Y163213D01*
X725497Y163228D01*
X725936Y163386D01*
X726387Y163516D01*
X726524Y163597D01*
X726675Y163651D01*
X727063Y163914D01*
X727466Y164151D01*
X727645Y164309D01*
X727712Y164354D01*
X727765Y164415D01*
X727944Y164572D01*
X728814Y165442D01*
X745596Y165442D01*
X746465Y164572D01*
X746834Y164286D01*
X747185Y163976D01*
X747328Y163903D01*
X747454Y163805D01*
X747884Y163619D01*
X748300Y163406D01*
X748456Y163371D01*
X748603Y163307D01*
X749066Y163234D01*
X749522Y163131D01*
X749682Y163136D01*
X749840Y163111D01*
X750306Y163154D01*
X750774Y163168D01*
X750928Y163213D01*
X751087Y163228D01*
X751527Y163386D01*
X751977Y163516D01*
X752115Y163597D01*
X752266Y163651D01*
X752653Y163914D01*
X753056Y164151D01*
X753235Y164309D01*
X753302Y164354D01*
X753356Y164415D01*
X753535Y164572D01*
X754404Y165442D01*
X771186Y165442D01*
X772055Y164572D01*
X772425Y164286D01*
X772776Y163976D01*
X772918Y163903D01*
X773045Y163805D01*
X773474Y163619D01*
X773891Y163406D01*
X774047Y163371D01*
X774194Y163307D01*
X774656Y163234D01*
X775113Y163131D01*
X775273Y163136D01*
X775431Y163111D01*
X775896Y163154D01*
X776365Y163168D01*
X776519Y163213D01*
X776678Y163228D01*
X777117Y163386D01*
X777568Y163516D01*
X777706Y163597D01*
X777856Y163651D01*
X778244Y163914D01*
X778647Y164151D01*
X778826Y164309D01*
X778893Y164354D01*
X778946Y164415D01*
X779125Y164572D01*
X779995Y165442D01*
X796777Y165442D01*
X797646Y164572D01*
X798016Y164286D01*
X798366Y163976D01*
X798509Y163903D01*
X798635Y163805D01*
X799065Y163619D01*
X799481Y163406D01*
X799638Y163371D01*
X799785Y163307D01*
X800247Y163234D01*
X800703Y163131D01*
X800863Y163136D01*
X801021Y163111D01*
X801487Y163154D01*
X801955Y163168D01*
X802109Y163213D01*
X802268Y163228D01*
X802708Y163386D01*
X803158Y163516D01*
X803296Y163597D01*
X803447Y163651D01*
X803835Y163914D01*
X804237Y164151D01*
X804416Y164309D01*
X804483Y164354D01*
X804537Y164415D01*
X804716Y164572D01*
X805585Y165442D01*
X822367Y165442D01*
X823236Y164572D01*
X823606Y164286D01*
X823957Y163976D01*
X824099Y163903D01*
X824226Y163805D01*
X824656Y163619D01*
X825072Y163406D01*
X825228Y163371D01*
X825375Y163307D01*
X825837Y163234D01*
X826294Y163131D01*
X826454Y163136D01*
X826612Y163111D01*
X827077Y163154D01*
X827546Y163168D01*
X827700Y163213D01*
X827859Y163228D01*
X828299Y163386D01*
X828749Y163516D01*
X828887Y163597D01*
X829037Y163651D01*
X829425Y163914D01*
X829828Y164151D01*
X830007Y164309D01*
X830074Y164354D01*
X830127Y164415D01*
X830307Y164572D01*
X831176Y165442D01*
X847958Y165442D01*
X848825Y164574D01*
X849195Y164288D01*
X849545Y163978D01*
X849688Y163905D01*
X849814Y163807D01*
X850244Y163621D01*
X850661Y163408D01*
X850817Y163373D01*
X850964Y163309D01*
X851426Y163236D01*
X851882Y163133D01*
X852043Y163138D01*
X852201Y163113D01*
X852666Y163156D01*
X853134Y163170D01*
X853288Y163215D01*
X853447Y163230D01*
X853887Y163388D01*
X854337Y163518D01*
X854475Y163599D01*
X854626Y163653D01*
X855014Y163916D01*
X855417Y164153D01*
X855595Y164311D01*
X855662Y164356D01*
X855716Y164417D01*
X855895Y164574D01*
X856762Y165442D01*
X873545Y165442D01*
X877060Y161926D01*
X877060Y109719D01*
X873545Y106204D01*
X856762Y106204D01*
X855895Y107071D01*
X855525Y107359D01*
X855175Y107668D01*
X855032Y107741D01*
X854906Y107839D01*
X854476Y108025D01*
X854060Y108238D01*
X853903Y108273D01*
X853756Y108336D01*
X853294Y108410D01*
X852838Y108513D01*
X852678Y108508D01*
X852520Y108533D01*
X852054Y108489D01*
X851586Y108475D01*
X851432Y108431D01*
X851273Y108416D01*
X850832Y108258D01*
X850383Y108128D01*
X850245Y108047D01*
X850094Y107992D01*
X849707Y107730D01*
X849304Y107492D01*
X849125Y107335D01*
X849058Y107289D01*
X849004Y107229D01*
X848825Y107071D01*
X847958Y106204D01*
X831176Y106204D01*
X830307Y107073D01*
X829936Y107361D01*
X829586Y107670D01*
X829444Y107743D01*
X829317Y107841D01*
X828887Y108027D01*
X828471Y108240D01*
X828315Y108275D01*
X828168Y108338D01*
X827706Y108412D01*
X827249Y108515D01*
X827089Y108510D01*
X826931Y108535D01*
X826466Y108491D01*
X825997Y108477D01*
X825843Y108433D01*
X825684Y108418D01*
X825244Y108260D01*
X824794Y108130D01*
X824656Y108048D01*
X824506Y107994D01*
X824118Y107732D01*
X823715Y107494D01*
X823536Y107337D01*
X823469Y107291D01*
X823415Y107231D01*
X823236Y107073D01*
X822367Y106204D01*
X805585Y106204D01*
X804716Y107073D01*
X804345Y107361D01*
X803996Y107670D01*
X803853Y107743D01*
X803727Y107841D01*
X803297Y108027D01*
X802880Y108240D01*
X802724Y108275D01*
X802577Y108338D01*
X802115Y108412D01*
X801659Y108515D01*
X801498Y108510D01*
X801340Y108535D01*
X800875Y108491D01*
X800407Y108477D01*
X800253Y108433D01*
X800094Y108418D01*
X799653Y108260D01*
X799204Y108130D01*
X799066Y108048D01*
X798915Y107994D01*
X798528Y107732D01*
X798125Y107494D01*
X797946Y107337D01*
X797879Y107291D01*
X797825Y107231D01*
X797646Y107073D01*
X796777Y106204D01*
X778795Y106204D01*
X778331Y106145D01*
X777864Y106117D01*
X777711Y106067D01*
X777553Y106047D01*
X777118Y105875D01*
X776672Y105731D01*
X776537Y105645D01*
X776388Y105586D01*
X776010Y105312D01*
X775614Y105061D01*
X775504Y104945D01*
X775375Y104851D01*
X775076Y104491D01*
X774755Y104150D01*
X774678Y104009D01*
X774576Y103886D01*
X774376Y103463D01*
X774150Y103053D01*
X774110Y102898D01*
X774042Y102753D01*
X773954Y102295D01*
X773836Y101841D01*
X773821Y101603D01*
X773806Y101523D01*
X773811Y101443D01*
X773796Y101205D01*
X773796Y8239D01*
X765889Y331D01*
X765888Y330D01*
X754556Y-11001D01*
X427821Y-11001D01*
X427707Y-11015D01*
X427592Y-11006D01*
X427088Y-11093D01*
X426579Y-11157D01*
X426472Y-11200D01*
X426358Y-11219D01*
X425891Y-11430D01*
X425414Y-11618D01*
X425321Y-11686D01*
X425216Y-11733D01*
X424817Y-12052D01*
X424401Y-12354D01*
X424327Y-12443D01*
X424238Y-12515D01*
X423929Y-12924D01*
X423602Y-13318D01*
X423553Y-13422D01*
X423484Y-13515D01*
X423203Y-14087D01*
X422743Y-15196D01*
X415196Y-22743D01*
X405336Y-26827D01*
X394664Y-26827D01*
G37*
%LPD*%
%LPC*%
G36*
X1294664Y823172D02*
X1294664Y823172D01*
X1284804Y827257D01*
X1277257Y834804D01*
X1273172Y844664D01*
X1273172Y855336D01*
X1277257Y865196D01*
X1284804Y872743D01*
X1294664Y876827D01*
X1305336Y876827D01*
X1306446Y876368D01*
X1306557Y876337D01*
X1306660Y876285D01*
X1307160Y876172D01*
X1307654Y876037D01*
X1307769Y876035D01*
X1307881Y876010D01*
X1308394Y876025D01*
X1308906Y876017D01*
X1309018Y876044D01*
X1309133Y876047D01*
X1309627Y876190D01*
X1310124Y876309D01*
X1310225Y876363D01*
X1310336Y876395D01*
X1310779Y876655D01*
X1311231Y876894D01*
X1311316Y876972D01*
X1311416Y877030D01*
X1311894Y877451D01*
X1337535Y903092D01*
X1337773Y903400D01*
X1338040Y903682D01*
X1338156Y903892D01*
X1338303Y904082D01*
X1338457Y904439D01*
X1338645Y904779D01*
X1338705Y905011D01*
X1338800Y905231D01*
X1338861Y905615D01*
X1338959Y905991D01*
X1338984Y906388D01*
X1338997Y906468D01*
X1338992Y906516D01*
X1338999Y906627D01*
X1338999Y928085D01*
X1338985Y928199D01*
X1338994Y928314D01*
X1338907Y928818D01*
X1338842Y929327D01*
X1338800Y929434D01*
X1338780Y929548D01*
X1338570Y930015D01*
X1338382Y930492D01*
X1338314Y930585D01*
X1338267Y930690D01*
X1337947Y931090D01*
X1337646Y931505D01*
X1337557Y931578D01*
X1337485Y931668D01*
X1337076Y931977D01*
X1336681Y932304D01*
X1336578Y932353D01*
X1336485Y932422D01*
X1335913Y932703D01*
X1328474Y935784D01*
X1317784Y946474D01*
X1311999Y960441D01*
X1311999Y1039559D01*
X1317784Y1053525D01*
X1328474Y1064215D01*
X1342441Y1070001D01*
X1357559Y1070001D01*
X1371525Y1064215D01*
X1382215Y1053525D01*
X1388001Y1039559D01*
X1388001Y960441D01*
X1382215Y946474D01*
X1371525Y935784D01*
X1364087Y932703D01*
X1363987Y932646D01*
X1363877Y932611D01*
X1363443Y932336D01*
X1362999Y932083D01*
X1362917Y932003D01*
X1362819Y931941D01*
X1362466Y931567D01*
X1362099Y931211D01*
X1362039Y931113D01*
X1361960Y931030D01*
X1361712Y930581D01*
X1361445Y930144D01*
X1361411Y930034D01*
X1361355Y929933D01*
X1361226Y929436D01*
X1361076Y928947D01*
X1361070Y928833D01*
X1361041Y928721D01*
X1361001Y928085D01*
X1361001Y895443D01*
X1353092Y887535D01*
X1327451Y861894D01*
X1327381Y861803D01*
X1327293Y861728D01*
X1326998Y861310D01*
X1326684Y860905D01*
X1326638Y860799D01*
X1326571Y860705D01*
X1326390Y860226D01*
X1326186Y859755D01*
X1326168Y859641D01*
X1326127Y859534D01*
X1326070Y859025D01*
X1325990Y858519D01*
X1326000Y858404D01*
X1325988Y858289D01*
X1326059Y857781D01*
X1326107Y857272D01*
X1326146Y857163D01*
X1326162Y857049D01*
X1326368Y856446D01*
X1326827Y855336D01*
X1326827Y844664D01*
X1322743Y834804D01*
X1315196Y827257D01*
X1305336Y823172D01*
X1294664Y823172D01*
G37*
%LPD*%
%LPC*%
G36*
X1173070Y481259D02*
X1173070Y481259D01*
X1173070Y498167D01*
X1173752Y500710D01*
X1175068Y502991D01*
X1176930Y504853D01*
X1179211Y506170D01*
X1181754Y506851D01*
X1240001Y506851D01*
X1240001Y481259D01*
X1173070Y481259D01*
G37*
%LPD*%
%LPC*%
G36*
X1259999Y481259D02*
X1259999Y481259D01*
X1259999Y506851D01*
X1318246Y506851D01*
X1320789Y506170D01*
X1323069Y504853D01*
X1324932Y502991D01*
X1326248Y500710D01*
X1326930Y498167D01*
X1326930Y481259D01*
X1259999Y481259D01*
G37*
%LPD*%
%LPC*%
G36*
X1259999Y461261D02*
X1259999Y461261D01*
X1326930Y461261D01*
X1326930Y444352D01*
X1326248Y441809D01*
X1324932Y439529D01*
X1323069Y437667D01*
X1320789Y436350D01*
X1318246Y435669D01*
X1259999Y435668D01*
X1259999Y461261D01*
G37*
%LPD*%
%LPC*%
G36*
X1181754Y435669D02*
X1181754Y435669D01*
X1179211Y436350D01*
X1176930Y437667D01*
X1175068Y439529D01*
X1173752Y441809D01*
X1173070Y444352D01*
X1173070Y461261D01*
X1240001Y461261D01*
X1240001Y435669D01*
X1181754Y435669D01*
G37*
%LPD*%
%LPC*%
G36*
X1059999Y1009999D02*
X1059999Y1009999D01*
X1059999Y1072913D01*
X1066123Y1070923D01*
X1072013Y1067922D01*
X1077361Y1064036D01*
X1082036Y1059361D01*
X1085922Y1054013D01*
X1088923Y1048123D01*
X1090966Y1041835D01*
X1092001Y1035305D01*
X1092001Y1009999D01*
X1059999Y1009999D01*
G37*
%LPD*%
%LPC*%
G36*
X1059999Y990001D02*
X1059999Y990001D01*
X1092001Y990001D01*
X1092001Y964695D01*
X1090966Y958164D01*
X1088923Y951877D01*
X1085922Y945987D01*
X1082036Y940639D01*
X1077361Y935963D01*
X1072013Y932077D01*
X1066123Y929076D01*
X1059999Y927087D01*
X1059999Y990001D01*
G37*
%LPD*%
%LPC*%
G36*
X1007999Y1009999D02*
X1007999Y1009999D01*
X1007999Y1035305D01*
X1009033Y1041835D01*
X1009504Y1043284D01*
X1009505Y1043285D01*
X1011076Y1048123D01*
X1014077Y1054013D01*
X1017963Y1059361D01*
X1022639Y1064036D01*
X1027987Y1067922D01*
X1033877Y1070923D01*
X1040001Y1072913D01*
X1040001Y1009999D01*
X1007999Y1009999D01*
G37*
%LPD*%
%LPC*%
G36*
X1033877Y929076D02*
X1033877Y929076D01*
X1027987Y932077D01*
X1022639Y935963D01*
X1017963Y940639D01*
X1014077Y945987D01*
X1011076Y951877D01*
X1009033Y958164D01*
X1007999Y964695D01*
X1007999Y990001D01*
X1040001Y990001D01*
X1040001Y927087D01*
X1033877Y929076D01*
G37*
%LPD*%
%LPC*%
G36*
X155000Y609684D02*
X155000Y609684D01*
X155000Y633463D01*
X155000Y633464D01*
X155000Y633466D01*
X155000Y657245D01*
X159191Y657245D01*
X161734Y656563D01*
X164015Y655247D01*
X165041Y654220D01*
X165410Y653933D01*
X165762Y653623D01*
X165905Y653550D01*
X166031Y653452D01*
X166459Y653267D01*
X166877Y653053D01*
X167033Y653018D01*
X167180Y652954D01*
X167641Y652881D01*
X168099Y652778D01*
X168259Y652783D01*
X168417Y652758D01*
X168882Y652802D01*
X169350Y652816D01*
X169505Y652860D01*
X169664Y652875D01*
X170103Y653033D01*
X170554Y653163D01*
X170691Y653244D01*
X170693Y653245D01*
X191856Y653245D01*
X195371Y649730D01*
X195371Y617199D01*
X191856Y613684D01*
X170650Y613684D01*
X170276Y613876D01*
X170120Y613911D01*
X169973Y613975D01*
X169510Y614048D01*
X169054Y614151D01*
X168894Y614146D01*
X168736Y614171D01*
X168271Y614127D01*
X167802Y614113D01*
X167648Y614069D01*
X167489Y614054D01*
X167049Y613896D01*
X166599Y613766D01*
X166461Y613685D01*
X166310Y613631D01*
X165923Y613368D01*
X165520Y613130D01*
X165341Y612973D01*
X165274Y612928D01*
X165220Y612867D01*
X165041Y612709D01*
X164015Y611682D01*
X161734Y610366D01*
X159191Y609684D01*
X155000Y609684D01*
G37*
%LPD*%
%LPC*%
G36*
X522305Y954566D02*
X522305Y954566D01*
X519762Y955248D01*
X518173Y956165D01*
X517618Y956398D01*
X517070Y956636D01*
X517043Y956640D01*
X517019Y956651D01*
X516421Y956739D01*
X515848Y956830D01*
X515838Y957340D01*
X515831Y957366D01*
X515830Y957392D01*
X515664Y957969D01*
X515503Y958547D01*
X515487Y958579D01*
X515483Y958595D01*
X515461Y958632D01*
X515220Y959118D01*
X514303Y960707D01*
X513621Y963250D01*
X513621Y990001D01*
X545119Y990001D01*
X545119Y954566D01*
X522305Y954566D01*
G37*
%LPD*%
%LPC*%
G36*
X565117Y1009999D02*
X565117Y1009999D01*
X565117Y1045434D01*
X587931Y1045434D01*
X590474Y1044752D01*
X592754Y1043436D01*
X594617Y1041573D01*
X595933Y1039293D01*
X596615Y1036750D01*
X596615Y1009999D01*
X565117Y1009999D01*
G37*
%LPD*%
%LPC*%
G36*
X565117Y954566D02*
X565117Y954566D01*
X565117Y990001D01*
X596615Y990001D01*
X596615Y963250D01*
X595933Y960707D01*
X594617Y958427D01*
X592754Y956564D01*
X590474Y955248D01*
X587931Y954566D01*
X565117Y954566D01*
G37*
%LPD*%
%LPC*%
G36*
X513621Y1009999D02*
X513621Y1009999D01*
X513621Y1036750D01*
X514303Y1039293D01*
X515619Y1041573D01*
X517482Y1043436D01*
X519762Y1044752D01*
X522305Y1045434D01*
X545119Y1045434D01*
X545119Y1009999D01*
X513621Y1009999D01*
G37*
%LPD*%
%LPC*%
G36*
X618940Y369173D02*
X618940Y369173D01*
X618940Y389108D01*
X619622Y391651D01*
X620938Y393932D01*
X622801Y395794D01*
X625081Y397110D01*
X627624Y397792D01*
X629846Y397792D01*
X629846Y369173D01*
X618940Y369173D01*
G37*
%LPD*%
%LPC*%
G36*
X627624Y330554D02*
X627624Y330554D01*
X625081Y331236D01*
X622801Y332552D01*
X620938Y334415D01*
X619622Y336695D01*
X618940Y339238D01*
X618940Y359173D01*
X629846Y359173D01*
X629846Y330554D01*
X627624Y330554D01*
G37*
%LPD*%
%LPC*%
G36*
X1049999Y999999D02*
X1049999Y999999D01*
X1049999Y1000001D01*
X1050001Y1000001D01*
X1050001Y999999D01*
X1049999Y999999D01*
G37*
%LPD*%
%LPC*%
G36*
X555117Y999999D02*
X555117Y999999D01*
X555117Y1000001D01*
X555119Y1000001D01*
X555119Y999999D01*
X555117Y999999D01*
G37*
%LPD*%
%LPC*%
G36*
X1249999Y471259D02*
X1249999Y471259D01*
X1249999Y471261D01*
X1250001Y471261D01*
X1250001Y471259D01*
X1249999Y471259D01*
G37*
%LPD*%
D10*
X444882Y1000000D03*
X555118Y1000000D03*
D11*
X118504Y566535D03*
X181496Y566535D03*
X150000Y566535D03*
X118504Y633465D03*
X150000Y633465D03*
X181496Y633465D03*
D12*
X199685Y636181D02*
X205118Y636181D01*
X199685Y636181D02*
X199685Y640118D01*
X209055Y640118D01*
X209055Y632244D01*
X199685Y632244D01*
X199685Y636181D01*
D13*
X1200000Y1025000D02*
X1225000Y1050000D01*
X1275000Y1050000D01*
X1300000Y1025000D01*
X1300000Y975000D01*
X1275000Y950000D01*
X1225000Y950000D01*
X1200000Y975000D01*
X1075000Y1050000D02*
X1025000Y1050000D01*
X1075000Y1050000D02*
X1100000Y1025000D01*
X1100000Y975000D01*
X1075000Y950000D01*
X1100000Y1025000D02*
X1125000Y1050000D01*
X1175000Y1050000D01*
X1200000Y1025000D01*
X1200000Y975000D01*
X1175000Y950000D01*
X1125000Y950000D01*
X1100000Y975000D01*
X1000000Y975000D02*
X1000000Y1025000D01*
X1025000Y1050000D01*
X1000000Y975000D02*
X1025000Y950000D01*
X1075000Y950000D01*
X1325000Y1050000D02*
X1375000Y1050000D01*
X1400000Y1025000D01*
X1400000Y975000D01*
X1375000Y950000D01*
X1300000Y1025000D02*
X1325000Y1050000D01*
X1300000Y975000D02*
X1325000Y950000D01*
X1375000Y950000D01*
D14*
X1050000Y968000D02*
X1050000Y1032000D01*
X1150000Y1032000D02*
X1150000Y968000D01*
X1250000Y968000D02*
X1250000Y1032000D01*
X1350000Y1032000D02*
X1350000Y968000D01*
D13*
X1400000Y775000D02*
X1400000Y725000D01*
X1375000Y700000D01*
X1325000Y700000D01*
X1300000Y725000D01*
X1325000Y800000D02*
X1375000Y800000D01*
X1400000Y775000D01*
X1325000Y800000D02*
X1300000Y775000D01*
X1300000Y725000D01*
X1375000Y700000D02*
X1400000Y675000D01*
X1400000Y625000D01*
X1375000Y600000D01*
X1325000Y600000D01*
X1300000Y625000D01*
X1300000Y675000D01*
X1325000Y700000D01*
D14*
X1318000Y750000D02*
X1382000Y750000D01*
X1382000Y650000D02*
X1318000Y650000D01*
D15*
X305984Y1000000D03*
X194016Y1000000D03*
D12*
X609256Y336614D02*
X609256Y163382D01*
X609256Y336614D02*
X890744Y336614D01*
X890744Y163382D01*
X609256Y163382D01*
X623027Y177161D02*
X623029Y177249D01*
X623035Y177337D01*
X623045Y177425D01*
X623059Y177513D01*
X623076Y177599D01*
X623098Y177685D01*
X623123Y177769D01*
X623153Y177853D01*
X623185Y177935D01*
X623222Y178015D01*
X623262Y178094D01*
X623306Y178171D01*
X623353Y178246D01*
X623403Y178318D01*
X623457Y178389D01*
X623513Y178456D01*
X623573Y178522D01*
X623635Y178584D01*
X623701Y178644D01*
X623768Y178700D01*
X623839Y178754D01*
X623911Y178804D01*
X623986Y178851D01*
X624063Y178895D01*
X624142Y178935D01*
X624222Y178972D01*
X624304Y179004D01*
X624388Y179034D01*
X624472Y179059D01*
X624558Y179081D01*
X624644Y179098D01*
X624732Y179112D01*
X624820Y179122D01*
X624908Y179128D01*
X624996Y179130D01*
X625084Y179128D01*
X625172Y179122D01*
X625260Y179112D01*
X625348Y179098D01*
X625434Y179081D01*
X625520Y179059D01*
X625604Y179034D01*
X625688Y179004D01*
X625770Y178972D01*
X625850Y178935D01*
X625929Y178895D01*
X626006Y178851D01*
X626081Y178804D01*
X626153Y178754D01*
X626224Y178700D01*
X626291Y178644D01*
X626357Y178584D01*
X626419Y178522D01*
X626479Y178456D01*
X626535Y178389D01*
X626589Y178318D01*
X626639Y178246D01*
X626686Y178171D01*
X626730Y178094D01*
X626770Y178015D01*
X626807Y177935D01*
X626839Y177853D01*
X626869Y177769D01*
X626894Y177685D01*
X626916Y177599D01*
X626933Y177513D01*
X626947Y177425D01*
X626957Y177337D01*
X626963Y177249D01*
X626965Y177161D01*
X626963Y177073D01*
X626957Y176985D01*
X626947Y176897D01*
X626933Y176809D01*
X626916Y176723D01*
X626894Y176637D01*
X626869Y176553D01*
X626839Y176469D01*
X626807Y176387D01*
X626770Y176307D01*
X626730Y176228D01*
X626686Y176151D01*
X626639Y176076D01*
X626589Y176004D01*
X626535Y175933D01*
X626479Y175866D01*
X626419Y175800D01*
X626357Y175738D01*
X626291Y175678D01*
X626224Y175622D01*
X626153Y175568D01*
X626081Y175518D01*
X626006Y175471D01*
X625929Y175427D01*
X625850Y175387D01*
X625770Y175350D01*
X625688Y175318D01*
X625604Y175288D01*
X625520Y175263D01*
X625434Y175241D01*
X625348Y175224D01*
X625260Y175210D01*
X625172Y175200D01*
X625084Y175194D01*
X624996Y175192D01*
X624908Y175194D01*
X624820Y175200D01*
X624732Y175210D01*
X624644Y175224D01*
X624558Y175241D01*
X624472Y175263D01*
X624388Y175288D01*
X624304Y175318D01*
X624222Y175350D01*
X624142Y175387D01*
X624063Y175427D01*
X623986Y175471D01*
X623911Y175518D01*
X623839Y175568D01*
X623768Y175622D01*
X623701Y175678D01*
X623635Y175738D01*
X623573Y175800D01*
X623513Y175866D01*
X623457Y175933D01*
X623403Y176004D01*
X623353Y176076D01*
X623306Y176151D01*
X623262Y176228D01*
X623222Y176307D01*
X623185Y176387D01*
X623153Y176469D01*
X623123Y176553D01*
X623098Y176637D01*
X623076Y176723D01*
X623059Y176809D01*
X623045Y176897D01*
X623035Y176985D01*
X623029Y177073D01*
X623027Y177161D01*
D16*
X634846Y364173D03*
X660437Y364173D03*
X686024Y364173D03*
X711614Y364173D03*
X737205Y364173D03*
X762795Y364173D03*
X788386Y364173D03*
X813976Y364173D03*
X634846Y135823D03*
X660437Y135823D03*
X686024Y135823D03*
X711614Y135823D03*
X737205Y135823D03*
X762795Y135823D03*
X788386Y135823D03*
X813976Y135823D03*
X839567Y135823D03*
X865154Y135823D03*
X839567Y364173D03*
X865154Y364173D03*
D12*
X1072835Y122835D02*
X1170472Y122835D01*
X1072835Y122835D02*
X1072835Y477165D01*
X1170472Y477165D01*
X1329528Y477165D02*
X1427165Y477165D01*
X1427165Y122835D01*
X1329528Y122835D01*
D17*
X1246063Y75591D02*
X1246065Y75716D01*
X1246071Y75841D01*
X1246081Y75965D01*
X1246095Y76089D01*
X1246112Y76213D01*
X1246134Y76336D01*
X1246160Y76458D01*
X1246189Y76580D01*
X1246222Y76700D01*
X1246260Y76819D01*
X1246300Y76938D01*
X1246345Y77054D01*
X1246393Y77169D01*
X1246445Y77283D01*
X1246501Y77395D01*
X1246560Y77505D01*
X1246622Y77613D01*
X1246688Y77720D01*
X1246757Y77824D01*
X1246830Y77925D01*
X1246905Y78025D01*
X1246984Y78122D01*
X1247066Y78216D01*
X1247151Y78308D01*
X1247238Y78397D01*
X1247329Y78483D01*
X1247422Y78566D01*
X1247518Y78647D01*
X1247616Y78724D01*
X1247716Y78798D01*
X1247819Y78869D01*
X1247924Y78936D01*
X1248032Y79001D01*
X1248141Y79061D01*
X1248252Y79119D01*
X1248365Y79172D01*
X1248479Y79222D01*
X1248595Y79269D01*
X1248712Y79311D01*
X1248831Y79350D01*
X1248951Y79386D01*
X1249072Y79417D01*
X1249194Y79445D01*
X1249316Y79468D01*
X1249440Y79488D01*
X1249564Y79504D01*
X1249688Y79516D01*
X1249813Y79524D01*
X1249938Y79528D01*
X1250062Y79528D01*
X1250187Y79524D01*
X1250312Y79516D01*
X1250436Y79504D01*
X1250560Y79488D01*
X1250684Y79468D01*
X1250806Y79445D01*
X1250928Y79417D01*
X1251049Y79386D01*
X1251169Y79350D01*
X1251288Y79311D01*
X1251405Y79269D01*
X1251521Y79222D01*
X1251635Y79172D01*
X1251748Y79119D01*
X1251859Y79061D01*
X1251969Y79001D01*
X1252076Y78936D01*
X1252181Y78869D01*
X1252284Y78798D01*
X1252384Y78724D01*
X1252482Y78647D01*
X1252578Y78566D01*
X1252671Y78483D01*
X1252762Y78397D01*
X1252849Y78308D01*
X1252934Y78216D01*
X1253016Y78122D01*
X1253095Y78025D01*
X1253170Y77925D01*
X1253243Y77824D01*
X1253312Y77720D01*
X1253378Y77613D01*
X1253440Y77505D01*
X1253499Y77395D01*
X1253555Y77283D01*
X1253607Y77169D01*
X1253655Y77054D01*
X1253700Y76938D01*
X1253740Y76819D01*
X1253778Y76700D01*
X1253811Y76580D01*
X1253840Y76458D01*
X1253866Y76336D01*
X1253888Y76213D01*
X1253905Y76089D01*
X1253919Y75965D01*
X1253929Y75841D01*
X1253935Y75716D01*
X1253937Y75591D01*
X1253935Y75466D01*
X1253929Y75341D01*
X1253919Y75217D01*
X1253905Y75093D01*
X1253888Y74969D01*
X1253866Y74846D01*
X1253840Y74724D01*
X1253811Y74602D01*
X1253778Y74482D01*
X1253740Y74363D01*
X1253700Y74244D01*
X1253655Y74128D01*
X1253607Y74013D01*
X1253555Y73899D01*
X1253499Y73787D01*
X1253440Y73677D01*
X1253378Y73569D01*
X1253312Y73462D01*
X1253243Y73358D01*
X1253170Y73257D01*
X1253095Y73157D01*
X1253016Y73060D01*
X1252934Y72966D01*
X1252849Y72874D01*
X1252762Y72785D01*
X1252671Y72699D01*
X1252578Y72616D01*
X1252482Y72535D01*
X1252384Y72458D01*
X1252284Y72384D01*
X1252181Y72313D01*
X1252076Y72246D01*
X1251968Y72181D01*
X1251859Y72121D01*
X1251748Y72063D01*
X1251635Y72010D01*
X1251521Y71960D01*
X1251405Y71913D01*
X1251288Y71871D01*
X1251169Y71832D01*
X1251049Y71796D01*
X1250928Y71765D01*
X1250806Y71737D01*
X1250684Y71714D01*
X1250560Y71694D01*
X1250436Y71678D01*
X1250312Y71666D01*
X1250187Y71658D01*
X1250062Y71654D01*
X1249938Y71654D01*
X1249813Y71658D01*
X1249688Y71666D01*
X1249564Y71678D01*
X1249440Y71694D01*
X1249316Y71714D01*
X1249194Y71737D01*
X1249072Y71765D01*
X1248951Y71796D01*
X1248831Y71832D01*
X1248712Y71871D01*
X1248595Y71913D01*
X1248479Y71960D01*
X1248365Y72010D01*
X1248252Y72063D01*
X1248141Y72121D01*
X1248031Y72181D01*
X1247924Y72246D01*
X1247819Y72313D01*
X1247716Y72384D01*
X1247616Y72458D01*
X1247518Y72535D01*
X1247422Y72616D01*
X1247329Y72699D01*
X1247238Y72785D01*
X1247151Y72874D01*
X1247066Y72966D01*
X1246984Y73060D01*
X1246905Y73157D01*
X1246830Y73257D01*
X1246757Y73358D01*
X1246688Y73462D01*
X1246622Y73569D01*
X1246560Y73677D01*
X1246501Y73787D01*
X1246445Y73899D01*
X1246393Y74013D01*
X1246345Y74128D01*
X1246300Y74244D01*
X1246260Y74363D01*
X1246222Y74482D01*
X1246189Y74602D01*
X1246160Y74724D01*
X1246134Y74846D01*
X1246112Y74969D01*
X1246095Y75093D01*
X1246081Y75217D01*
X1246071Y75341D01*
X1246065Y75466D01*
X1246063Y75591D01*
D18*
X1250000Y128740D03*
X1250000Y471260D03*
D19*
X444882Y1000000D02*
X305984Y1000000D01*
D20*
X500000Y200000D02*
X564177Y135823D01*
X634846Y135823D01*
X500000Y200000D02*
X500000Y400000D01*
X594882Y850000D02*
X444882Y1000000D01*
X594882Y850000D02*
X900000Y850000D01*
X1050000Y850000D01*
X1150000Y950000D01*
X1150000Y1000000D01*
X500000Y400000D02*
X400000Y500000D01*
X200000Y500000D01*
X150000Y550000D01*
X150000Y566535D01*
X800000Y950000D02*
X900000Y850000D01*
X800000Y950000D02*
X750000Y950000D01*
D21*
X750000Y950000D03*
X350000Y900000D03*
D20*
X400000Y850000D01*
X400000Y500000D01*
D19*
X194016Y1000000D02*
X294016Y1100000D01*
D20*
X1150000Y1100000D02*
X1250000Y1000000D01*
X1150000Y1100000D02*
X294016Y1100000D01*
X737205Y487205D02*
X737205Y364173D01*
X737205Y487205D02*
X900000Y650000D01*
X1150000Y650000D01*
X1250000Y750000D01*
X1250000Y1000000D01*
X711614Y511614D02*
X711614Y364173D01*
D21*
X1300000Y850000D03*
D20*
X1350000Y900000D01*
X1350000Y1000000D01*
X1100000Y800000D02*
X1000000Y800000D01*
X1100000Y800000D02*
X1150000Y850000D01*
X1200000Y850000D01*
D21*
X1200000Y850000D03*
D20*
X1000000Y800000D02*
X711614Y511614D01*
X762795Y12795D02*
X750000Y0D01*
X400000Y0D01*
D21*
X400000Y0D03*
X350000Y100000D03*
D20*
X118504Y331496D01*
X118504Y566535D01*
X762795Y135823D02*
X762795Y12795D01*
X50000Y300000D02*
X50000Y600000D01*
X83465Y633465D01*
X118504Y633465D01*
X700000Y50000D02*
X711614Y61614D01*
X711614Y135823D01*
X300000Y50000D02*
X50000Y300000D01*
X300000Y50000D02*
X700000Y50000D01*
X813976Y413976D02*
X850000Y450000D01*
X900000Y450000D01*
X950000Y400000D01*
X950000Y150000D02*
X1050000Y50000D01*
X1200000Y50000D01*
X1250000Y100000D01*
X1250000Y128740D01*
X950000Y150000D02*
X950000Y400000D01*
X813976Y413976D02*
X813976Y364173D01*
X762795Y364173D02*
X762795Y462795D01*
X900000Y600000D01*
X1200000Y600000D01*
X1350000Y750000D01*
X788386Y438386D02*
X788386Y364173D01*
X1250000Y550000D02*
X1350000Y650000D01*
X900000Y550000D02*
X788386Y438386D01*
X900000Y550000D02*
X1250000Y550000D01*
M02*
