M48
;GenerationSoftware,Autodesk,EAGLE,9.6.2*%
;CreationDate,2021-04-22T23:03:59Z*%
FMAT,2
ICI,OFF
INCH,TZ,00.0000
T3C0.0200
T2C0.0217
T1C0.0400
%
G90
M72
T1
X14362Y1579
X12217Y1587
X1815Y1843
X1815Y2843
X1815Y3843
X1815Y4843
X6657Y1689
X7657Y1689
X8657Y1689
X9657Y1689
X1713Y7752
X1713Y8752
X3642Y1630
X4642Y1630
T2
X7283Y8504
X7756Y5551
T3
X2283Y5689
X1319Y5768
X3012Y9932
X3543Y5433
X13766Y9924
M30