M48
;GenerationSoftware,Autodesk,EAGLE,9.6.2*%
;CreationDate,2021-04-22T23:16:45Z*%
FMAT,2
ICI,OFF
INCH,TZ,00.0000
T2C0.0200
T1C0.0400
%
G90
M72
T1
X14000Y1500
X10000Y1500
X11000Y1500
X12000Y1500
X1500Y8500
X1500Y9500
X4500Y1500
X5500Y1500
X6500Y1500
X7500Y1500
X1500Y3500
X1500Y4500
X1500Y5500
X1500Y6500
T2
X14500Y4000
X11500Y5000
X8500Y3500
X7500Y8500
X6500Y4886
X4500Y11000
X4670Y8655
X4020Y4205
M30