G04 EAGLE Gerber RS-274X export*
G75*
%MOIN*%
%FSLAX36Y36*%
%LPD*%
%INTop Copper Layer*%
%IPPOS*%
%AMOC8*
5,1,8,0,0,1.08239X$1,22.5*%
G01*
%ADD10C,0.005000*%
%ADD11C,0.003000*%
%ADD12C,0.002000*%
%ADD13C,0.006000*%
%ADD14P,0.069273X8X22.500000*%
%ADD15C,0.064000*%
%ADD16R,0.070866X0.062992*%
%ADD17R,0.062992X0.070984*%
%ADD18R,0.011811X0.047236*%
%ADD19R,0.062992X0.070866*%
%ADD20C,0.010000*%
%ADD21C,0.040000*%


D10*
X979611Y1051500D02*
X966055Y1051500D01*
X965727Y1051504D01*
X965400Y1051516D01*
X965073Y1051536D01*
X964747Y1051563D01*
X964421Y1051599D01*
X964096Y1051642D01*
X963773Y1051693D01*
X963451Y1051753D01*
X963130Y1051819D01*
X962811Y1051894D01*
X962494Y1051976D01*
X962179Y1052066D01*
X961866Y1052163D01*
X961556Y1052268D01*
X961248Y1052381D01*
X960943Y1052501D01*
X960642Y1052628D01*
X960343Y1052762D01*
X960048Y1052904D01*
X959756Y1053053D01*
X959467Y1053208D01*
X959183Y1053371D01*
X958903Y1053540D01*
X958627Y1053717D01*
X958355Y1053899D01*
X958088Y1054089D01*
X957825Y1054284D01*
X957567Y1054487D01*
X957314Y1054695D01*
X957066Y1054909D01*
X956824Y1055129D01*
X956587Y1055355D01*
X956355Y1055587D01*
X956129Y1055824D01*
X955909Y1056066D01*
X955695Y1056314D01*
X955487Y1056567D01*
X955284Y1056825D01*
X955089Y1057088D01*
X954899Y1057355D01*
X954717Y1057627D01*
X954540Y1057903D01*
X954371Y1058183D01*
X954208Y1058467D01*
X954053Y1058756D01*
X953904Y1059048D01*
X953762Y1059343D01*
X953628Y1059642D01*
X953501Y1059943D01*
X953381Y1060248D01*
X953268Y1060556D01*
X953163Y1060866D01*
X953066Y1061179D01*
X952976Y1061494D01*
X952894Y1061811D01*
X952819Y1062130D01*
X952753Y1062451D01*
X952693Y1062773D01*
X952642Y1063096D01*
X952599Y1063421D01*
X952563Y1063747D01*
X952536Y1064073D01*
X952516Y1064400D01*
X952504Y1064727D01*
X952500Y1065055D01*
X952500Y1098944D01*
X952504Y1099277D01*
X952516Y1099609D01*
X952537Y1099941D01*
X952565Y1100273D01*
X952602Y1100603D01*
X952647Y1100933D01*
X952700Y1101262D01*
X952760Y1101589D01*
X952829Y1101914D01*
X952906Y1102238D01*
X952991Y1102560D01*
X953084Y1102879D01*
X953184Y1103196D01*
X953292Y1103511D01*
X953408Y1103823D01*
X953532Y1104132D01*
X953663Y1104437D01*
X953802Y1104740D01*
X953947Y1105039D01*
X954101Y1105334D01*
X954261Y1105626D01*
X954429Y1105913D01*
X954603Y1106196D01*
X954785Y1106475D01*
X954973Y1106750D01*
X955168Y1107019D01*
X955369Y1107284D01*
X955577Y1107544D01*
X955791Y1107798D01*
X956012Y1108048D01*
X956238Y1108291D01*
X956470Y1108529D01*
X956709Y1108762D01*
X956952Y1108988D01*
X957202Y1109209D01*
X957456Y1109423D01*
X957716Y1109631D01*
X957981Y1109832D01*
X958250Y1110027D01*
X958525Y1110215D01*
X958804Y1110397D01*
X959087Y1110571D01*
X959374Y1110739D01*
X959666Y1110899D01*
X959961Y1111053D01*
X960260Y1111198D01*
X960562Y1111337D01*
X960868Y1111468D01*
X961177Y1111592D01*
X961489Y1111708D01*
X961804Y1111816D01*
X962121Y1111916D01*
X962440Y1112009D01*
X962762Y1112094D01*
X963086Y1112171D01*
X963411Y1112240D01*
X963738Y1112300D01*
X964067Y1112353D01*
X964396Y1112398D01*
X964727Y1112435D01*
X965059Y1112463D01*
X965391Y1112484D01*
X965723Y1112496D01*
X966056Y1112500D01*
X966055Y1112500D02*
X979611Y1112500D01*
X1003478Y1112500D02*
X1003478Y1051500D01*
X1030589Y1051500D01*
X1048754Y1051500D02*
X1069088Y1112500D01*
X1089421Y1051500D01*
X1084338Y1066750D02*
X1053838Y1066750D01*
X1112958Y1051500D02*
X1112958Y1112500D01*
X1129902Y1112500D01*
X1130315Y1112495D01*
X1130727Y1112480D01*
X1131139Y1112455D01*
X1131550Y1112420D01*
X1131960Y1112375D01*
X1132369Y1112319D01*
X1132777Y1112254D01*
X1133183Y1112179D01*
X1133586Y1112095D01*
X1133988Y1112000D01*
X1134387Y1111896D01*
X1134784Y1111782D01*
X1135178Y1111658D01*
X1135568Y1111525D01*
X1135955Y1111382D01*
X1136339Y1111230D01*
X1136719Y1111068D01*
X1137094Y1110898D01*
X1137466Y1110718D01*
X1137833Y1110529D01*
X1138195Y1110332D01*
X1138553Y1110126D01*
X1138905Y1109911D01*
X1139252Y1109687D01*
X1139593Y1109455D01*
X1139929Y1109215D01*
X1140258Y1108967D01*
X1140582Y1108711D01*
X1140899Y1108447D01*
X1141210Y1108175D01*
X1141514Y1107896D01*
X1141811Y1107610D01*
X1142101Y1107316D01*
X1142384Y1107016D01*
X1142659Y1106708D01*
X1142927Y1106394D01*
X1143187Y1106074D01*
X1143439Y1105747D01*
X1143683Y1105415D01*
X1143919Y1105076D01*
X1144147Y1104732D01*
X1144366Y1104382D01*
X1144577Y1104028D01*
X1144779Y1103668D01*
X1144972Y1103303D01*
X1145156Y1102934D01*
X1145331Y1102560D01*
X1145497Y1102182D01*
X1145654Y1101801D01*
X1145801Y1101415D01*
X1145939Y1101026D01*
X1146068Y1100634D01*
X1146187Y1100239D01*
X1146296Y1099841D01*
X1146396Y1099440D01*
X1146485Y1099038D01*
X1146565Y1098633D01*
X1146635Y1098226D01*
X1146695Y1097818D01*
X1146745Y1097408D01*
X1146785Y1096998D01*
X1146816Y1096586D01*
X1146836Y1096174D01*
X1146846Y1095761D01*
X1146846Y1095349D01*
X1146836Y1094936D01*
X1146816Y1094524D01*
X1146785Y1094112D01*
X1146745Y1093702D01*
X1146695Y1093292D01*
X1146635Y1092884D01*
X1146565Y1092477D01*
X1146485Y1092072D01*
X1146396Y1091670D01*
X1146296Y1091269D01*
X1146187Y1090871D01*
X1146068Y1090476D01*
X1145939Y1090084D01*
X1145801Y1089695D01*
X1145654Y1089309D01*
X1145497Y1088928D01*
X1145331Y1088550D01*
X1145156Y1088176D01*
X1144972Y1087807D01*
X1144779Y1087442D01*
X1144577Y1087083D01*
X1144366Y1086728D01*
X1144147Y1086378D01*
X1143919Y1086034D01*
X1143683Y1085695D01*
X1143439Y1085363D01*
X1143187Y1085036D01*
X1142927Y1084716D01*
X1142659Y1084402D01*
X1142384Y1084094D01*
X1142101Y1083794D01*
X1141811Y1083500D01*
X1141514Y1083214D01*
X1141210Y1082935D01*
X1140899Y1082663D01*
X1140582Y1082399D01*
X1140258Y1082143D01*
X1139929Y1081895D01*
X1139593Y1081655D01*
X1139252Y1081423D01*
X1138905Y1081199D01*
X1138553Y1080984D01*
X1138195Y1080778D01*
X1137833Y1080581D01*
X1137466Y1080392D01*
X1137094Y1080212D01*
X1136719Y1080042D01*
X1136339Y1079880D01*
X1135955Y1079728D01*
X1135568Y1079585D01*
X1135178Y1079452D01*
X1134784Y1079328D01*
X1134387Y1079214D01*
X1133988Y1079110D01*
X1133586Y1079015D01*
X1133183Y1078931D01*
X1132777Y1078856D01*
X1132369Y1078791D01*
X1131960Y1078735D01*
X1131550Y1078690D01*
X1131139Y1078655D01*
X1130727Y1078630D01*
X1130315Y1078615D01*
X1129902Y1078610D01*
X1129902Y1078611D02*
X1112958Y1078611D01*
X1133291Y1078611D02*
X1146846Y1051500D01*
X1196821Y1085389D02*
X1206987Y1085389D01*
X1206987Y1051500D01*
X1186654Y1051500D01*
X1186326Y1051504D01*
X1185999Y1051516D01*
X1185672Y1051536D01*
X1185346Y1051563D01*
X1185020Y1051599D01*
X1184695Y1051642D01*
X1184372Y1051693D01*
X1184050Y1051753D01*
X1183729Y1051819D01*
X1183410Y1051894D01*
X1183093Y1051976D01*
X1182778Y1052066D01*
X1182465Y1052163D01*
X1182155Y1052268D01*
X1181847Y1052381D01*
X1181542Y1052501D01*
X1181241Y1052628D01*
X1180942Y1052762D01*
X1180647Y1052904D01*
X1180355Y1053053D01*
X1180066Y1053208D01*
X1179782Y1053371D01*
X1179502Y1053540D01*
X1179226Y1053717D01*
X1178954Y1053899D01*
X1178687Y1054089D01*
X1178424Y1054284D01*
X1178166Y1054487D01*
X1177913Y1054695D01*
X1177665Y1054909D01*
X1177423Y1055129D01*
X1177186Y1055355D01*
X1176954Y1055587D01*
X1176728Y1055824D01*
X1176508Y1056066D01*
X1176294Y1056314D01*
X1176086Y1056567D01*
X1175883Y1056825D01*
X1175688Y1057088D01*
X1175498Y1057355D01*
X1175316Y1057627D01*
X1175139Y1057903D01*
X1174970Y1058183D01*
X1174807Y1058467D01*
X1174652Y1058756D01*
X1174503Y1059048D01*
X1174361Y1059343D01*
X1174227Y1059642D01*
X1174100Y1059943D01*
X1173980Y1060248D01*
X1173867Y1060556D01*
X1173762Y1060866D01*
X1173665Y1061179D01*
X1173575Y1061494D01*
X1173493Y1061811D01*
X1173418Y1062130D01*
X1173352Y1062451D01*
X1173292Y1062773D01*
X1173241Y1063096D01*
X1173198Y1063421D01*
X1173162Y1063747D01*
X1173135Y1064073D01*
X1173115Y1064400D01*
X1173103Y1064727D01*
X1173099Y1065055D01*
X1173098Y1065055D02*
X1173098Y1098944D01*
X1173102Y1099277D01*
X1173114Y1099609D01*
X1173135Y1099941D01*
X1173163Y1100273D01*
X1173200Y1100603D01*
X1173245Y1100933D01*
X1173298Y1101262D01*
X1173358Y1101589D01*
X1173427Y1101914D01*
X1173504Y1102238D01*
X1173589Y1102560D01*
X1173682Y1102879D01*
X1173782Y1103196D01*
X1173890Y1103511D01*
X1174006Y1103823D01*
X1174130Y1104132D01*
X1174261Y1104437D01*
X1174400Y1104740D01*
X1174545Y1105039D01*
X1174699Y1105334D01*
X1174859Y1105626D01*
X1175027Y1105913D01*
X1175201Y1106196D01*
X1175383Y1106475D01*
X1175571Y1106750D01*
X1175766Y1107019D01*
X1175967Y1107284D01*
X1176175Y1107544D01*
X1176389Y1107798D01*
X1176610Y1108048D01*
X1176836Y1108291D01*
X1177068Y1108529D01*
X1177307Y1108762D01*
X1177550Y1108988D01*
X1177800Y1109209D01*
X1178054Y1109423D01*
X1178314Y1109631D01*
X1178579Y1109832D01*
X1178848Y1110027D01*
X1179123Y1110215D01*
X1179402Y1110397D01*
X1179685Y1110571D01*
X1179972Y1110739D01*
X1180264Y1110899D01*
X1180559Y1111053D01*
X1180858Y1111198D01*
X1181160Y1111337D01*
X1181466Y1111468D01*
X1181775Y1111592D01*
X1182087Y1111708D01*
X1182402Y1111816D01*
X1182719Y1111916D01*
X1183038Y1112009D01*
X1183360Y1112094D01*
X1183684Y1112171D01*
X1184009Y1112240D01*
X1184336Y1112300D01*
X1184665Y1112353D01*
X1184994Y1112398D01*
X1185325Y1112435D01*
X1185657Y1112463D01*
X1185989Y1112484D01*
X1186321Y1112496D01*
X1186654Y1112500D01*
X1206987Y1112500D01*
X1267254Y1112500D02*
X1267254Y1051500D01*
X1287587Y1078611D02*
X1267254Y1112500D01*
X1287587Y1078611D02*
X1307921Y1112500D01*
X1307921Y1051500D01*
X1331633Y1051500D02*
X1351967Y1112500D01*
X1372300Y1051500D01*
X1367217Y1066750D02*
X1336717Y1066750D01*
X1398788Y1051500D02*
X1398788Y1112500D01*
X1392010Y1051500D02*
X1405566Y1051500D01*
X1405566Y1112500D02*
X1392010Y1112500D01*
X1430616Y1112500D02*
X1430616Y1051500D01*
X1464505Y1051500D02*
X1430616Y1112500D01*
X1464505Y1112500D02*
X1464505Y1051500D01*
X1525034Y1085389D02*
X1541978Y1085389D01*
X1541978Y1085388D02*
X1542391Y1085383D01*
X1542803Y1085368D01*
X1543215Y1085343D01*
X1543626Y1085308D01*
X1544036Y1085263D01*
X1544445Y1085207D01*
X1544853Y1085142D01*
X1545258Y1085067D01*
X1545662Y1084983D01*
X1546064Y1084888D01*
X1546463Y1084784D01*
X1546860Y1084670D01*
X1547253Y1084546D01*
X1547644Y1084413D01*
X1548031Y1084270D01*
X1548415Y1084118D01*
X1548794Y1083956D01*
X1549170Y1083786D01*
X1549541Y1083606D01*
X1549908Y1083418D01*
X1550271Y1083220D01*
X1550628Y1083014D01*
X1550980Y1082799D01*
X1551327Y1082575D01*
X1551668Y1082343D01*
X1552004Y1082103D01*
X1552334Y1081855D01*
X1552657Y1081599D01*
X1552974Y1081335D01*
X1553285Y1081063D01*
X1553589Y1080784D01*
X1553886Y1080498D01*
X1554176Y1080204D01*
X1554459Y1079904D01*
X1554734Y1079597D01*
X1555002Y1079283D01*
X1555262Y1078962D01*
X1555514Y1078636D01*
X1555758Y1078303D01*
X1555994Y1077965D01*
X1556222Y1077620D01*
X1556441Y1077271D01*
X1556652Y1076916D01*
X1556854Y1076556D01*
X1557047Y1076192D01*
X1557231Y1075822D01*
X1557406Y1075449D01*
X1557572Y1075071D01*
X1557729Y1074689D01*
X1557876Y1074304D01*
X1558014Y1073915D01*
X1558143Y1073523D01*
X1558262Y1073128D01*
X1558371Y1072730D01*
X1558471Y1072329D01*
X1558560Y1071926D01*
X1558640Y1071522D01*
X1558710Y1071115D01*
X1558770Y1070707D01*
X1558820Y1070297D01*
X1558860Y1069887D01*
X1558891Y1069475D01*
X1558911Y1069063D01*
X1558921Y1068650D01*
X1558921Y1068238D01*
X1558911Y1067825D01*
X1558891Y1067413D01*
X1558860Y1067001D01*
X1558820Y1066591D01*
X1558770Y1066181D01*
X1558710Y1065773D01*
X1558640Y1065366D01*
X1558560Y1064962D01*
X1558471Y1064559D01*
X1558371Y1064158D01*
X1558262Y1063760D01*
X1558143Y1063365D01*
X1558014Y1062973D01*
X1557876Y1062584D01*
X1557729Y1062199D01*
X1557572Y1061817D01*
X1557406Y1061439D01*
X1557231Y1061066D01*
X1557047Y1060696D01*
X1556854Y1060332D01*
X1556652Y1059972D01*
X1556441Y1059617D01*
X1556222Y1059268D01*
X1555994Y1058923D01*
X1555758Y1058585D01*
X1555514Y1058252D01*
X1555262Y1057926D01*
X1555002Y1057605D01*
X1554734Y1057291D01*
X1554459Y1056984D01*
X1554176Y1056684D01*
X1553886Y1056390D01*
X1553589Y1056104D01*
X1553285Y1055825D01*
X1552974Y1055553D01*
X1552657Y1055289D01*
X1552334Y1055033D01*
X1552004Y1054785D01*
X1551668Y1054545D01*
X1551327Y1054313D01*
X1550980Y1054089D01*
X1550628Y1053874D01*
X1550271Y1053668D01*
X1549908Y1053470D01*
X1549541Y1053282D01*
X1549170Y1053102D01*
X1548794Y1052932D01*
X1548415Y1052770D01*
X1548031Y1052618D01*
X1547644Y1052475D01*
X1547253Y1052342D01*
X1546860Y1052218D01*
X1546463Y1052104D01*
X1546064Y1052000D01*
X1545662Y1051905D01*
X1545258Y1051821D01*
X1544853Y1051746D01*
X1544445Y1051681D01*
X1544036Y1051625D01*
X1543626Y1051580D01*
X1543215Y1051545D01*
X1542803Y1051520D01*
X1542391Y1051505D01*
X1541978Y1051500D01*
X1525034Y1051500D01*
X1525034Y1112500D01*
X1541978Y1112500D01*
X1542308Y1112496D01*
X1542638Y1112484D01*
X1542968Y1112464D01*
X1543296Y1112436D01*
X1543625Y1112400D01*
X1543952Y1112356D01*
X1544278Y1112303D01*
X1544602Y1112244D01*
X1544925Y1112176D01*
X1545247Y1112100D01*
X1545566Y1112016D01*
X1545883Y1111925D01*
X1546198Y1111826D01*
X1546511Y1111720D01*
X1546821Y1111606D01*
X1547128Y1111484D01*
X1547431Y1111355D01*
X1547732Y1111218D01*
X1548029Y1111075D01*
X1548323Y1110924D01*
X1548613Y1110766D01*
X1548898Y1110600D01*
X1549180Y1110428D01*
X1549458Y1110250D01*
X1549731Y1110064D01*
X1549999Y1109872D01*
X1550263Y1109674D01*
X1550522Y1109469D01*
X1550776Y1109257D01*
X1551024Y1109040D01*
X1551267Y1108817D01*
X1551505Y1108588D01*
X1551737Y1108353D01*
X1551963Y1108112D01*
X1552184Y1107867D01*
X1552398Y1107615D01*
X1552606Y1107359D01*
X1552808Y1107098D01*
X1553003Y1106832D01*
X1553192Y1106561D01*
X1553374Y1106286D01*
X1553549Y1106006D01*
X1553718Y1105722D01*
X1553879Y1105434D01*
X1554034Y1105142D01*
X1554181Y1104847D01*
X1554321Y1104548D01*
X1554454Y1104246D01*
X1554580Y1103940D01*
X1554698Y1103632D01*
X1554808Y1103321D01*
X1554911Y1103007D01*
X1555006Y1102691D01*
X1555093Y1102373D01*
X1555173Y1102052D01*
X1555245Y1101730D01*
X1555309Y1101406D01*
X1555365Y1101081D01*
X1555413Y1100754D01*
X1555453Y1100427D01*
X1555485Y1100098D01*
X1555509Y1099769D01*
X1555525Y1099439D01*
X1555533Y1099109D01*
X1555533Y1098779D01*
X1555525Y1098449D01*
X1555509Y1098119D01*
X1555485Y1097790D01*
X1555453Y1097461D01*
X1555413Y1097134D01*
X1555365Y1096807D01*
X1555309Y1096482D01*
X1555245Y1096158D01*
X1555173Y1095836D01*
X1555093Y1095515D01*
X1555006Y1095197D01*
X1554911Y1094881D01*
X1554808Y1094567D01*
X1554698Y1094256D01*
X1554580Y1093948D01*
X1554454Y1093642D01*
X1554321Y1093340D01*
X1554181Y1093041D01*
X1554034Y1092746D01*
X1553879Y1092454D01*
X1553718Y1092166D01*
X1553549Y1091882D01*
X1553374Y1091602D01*
X1553192Y1091327D01*
X1553003Y1091056D01*
X1552808Y1090790D01*
X1552606Y1090529D01*
X1552398Y1090273D01*
X1552184Y1090021D01*
X1551963Y1089776D01*
X1551737Y1089535D01*
X1551505Y1089300D01*
X1551267Y1089071D01*
X1551024Y1088848D01*
X1550776Y1088631D01*
X1550522Y1088419D01*
X1550263Y1088214D01*
X1549999Y1088016D01*
X1549731Y1087824D01*
X1549458Y1087638D01*
X1549180Y1087460D01*
X1548898Y1087288D01*
X1548613Y1087122D01*
X1548323Y1086964D01*
X1548029Y1086813D01*
X1547732Y1086670D01*
X1547431Y1086533D01*
X1547128Y1086404D01*
X1546821Y1086282D01*
X1546511Y1086168D01*
X1546198Y1086062D01*
X1545883Y1085963D01*
X1545566Y1085872D01*
X1545247Y1085788D01*
X1544925Y1085712D01*
X1544602Y1085644D01*
X1544278Y1085585D01*
X1543952Y1085532D01*
X1543625Y1085488D01*
X1543296Y1085452D01*
X1542968Y1085424D01*
X1542638Y1085404D01*
X1542308Y1085392D01*
X1541978Y1085388D01*
X1580834Y1095555D02*
X1580834Y1068444D01*
X1580835Y1095555D02*
X1580840Y1095968D01*
X1580855Y1096380D01*
X1580880Y1096792D01*
X1580915Y1097203D01*
X1580960Y1097613D01*
X1581016Y1098022D01*
X1581081Y1098430D01*
X1581156Y1098835D01*
X1581240Y1099239D01*
X1581335Y1099641D01*
X1581439Y1100040D01*
X1581553Y1100437D01*
X1581677Y1100830D01*
X1581810Y1101221D01*
X1581953Y1101608D01*
X1582105Y1101992D01*
X1582267Y1102371D01*
X1582437Y1102747D01*
X1582617Y1103118D01*
X1582805Y1103485D01*
X1583003Y1103848D01*
X1583209Y1104205D01*
X1583424Y1104557D01*
X1583648Y1104904D01*
X1583880Y1105245D01*
X1584120Y1105581D01*
X1584368Y1105911D01*
X1584624Y1106234D01*
X1584888Y1106551D01*
X1585160Y1106862D01*
X1585439Y1107166D01*
X1585725Y1107463D01*
X1586019Y1107753D01*
X1586319Y1108036D01*
X1586626Y1108311D01*
X1586940Y1108579D01*
X1587261Y1108839D01*
X1587587Y1109091D01*
X1587920Y1109335D01*
X1588258Y1109571D01*
X1588603Y1109799D01*
X1588952Y1110018D01*
X1589307Y1110229D01*
X1589667Y1110431D01*
X1590031Y1110624D01*
X1590401Y1110808D01*
X1590774Y1110983D01*
X1591152Y1111149D01*
X1591534Y1111306D01*
X1591919Y1111453D01*
X1592308Y1111591D01*
X1592700Y1111720D01*
X1593095Y1111839D01*
X1593493Y1111948D01*
X1593894Y1112048D01*
X1594297Y1112137D01*
X1594701Y1112217D01*
X1595108Y1112287D01*
X1595516Y1112347D01*
X1595926Y1112397D01*
X1596336Y1112437D01*
X1596748Y1112468D01*
X1597160Y1112488D01*
X1597573Y1112498D01*
X1597985Y1112498D01*
X1598398Y1112488D01*
X1598810Y1112468D01*
X1599222Y1112437D01*
X1599632Y1112397D01*
X1600042Y1112347D01*
X1600450Y1112287D01*
X1600857Y1112217D01*
X1601261Y1112137D01*
X1601664Y1112048D01*
X1602065Y1111948D01*
X1602463Y1111839D01*
X1602858Y1111720D01*
X1603250Y1111591D01*
X1603639Y1111453D01*
X1604024Y1111306D01*
X1604406Y1111149D01*
X1604784Y1110983D01*
X1605157Y1110808D01*
X1605527Y1110624D01*
X1605891Y1110431D01*
X1606251Y1110229D01*
X1606606Y1110018D01*
X1606955Y1109799D01*
X1607300Y1109571D01*
X1607638Y1109335D01*
X1607971Y1109091D01*
X1608297Y1108839D01*
X1608618Y1108579D01*
X1608932Y1108311D01*
X1609239Y1108036D01*
X1609539Y1107753D01*
X1609833Y1107463D01*
X1610119Y1107166D01*
X1610398Y1106862D01*
X1610670Y1106551D01*
X1610934Y1106234D01*
X1611190Y1105911D01*
X1611438Y1105581D01*
X1611678Y1105245D01*
X1611910Y1104904D01*
X1612134Y1104557D01*
X1612349Y1104205D01*
X1612555Y1103848D01*
X1612753Y1103485D01*
X1612941Y1103118D01*
X1613121Y1102747D01*
X1613291Y1102371D01*
X1613453Y1101992D01*
X1613605Y1101608D01*
X1613748Y1101221D01*
X1613881Y1100830D01*
X1614005Y1100437D01*
X1614119Y1100040D01*
X1614223Y1099641D01*
X1614318Y1099239D01*
X1614402Y1098835D01*
X1614477Y1098430D01*
X1614542Y1098022D01*
X1614598Y1097613D01*
X1614643Y1097203D01*
X1614678Y1096792D01*
X1614703Y1096380D01*
X1614718Y1095968D01*
X1614723Y1095555D01*
X1614723Y1068444D01*
X1614718Y1068031D01*
X1614703Y1067619D01*
X1614678Y1067207D01*
X1614643Y1066796D01*
X1614598Y1066386D01*
X1614542Y1065977D01*
X1614477Y1065569D01*
X1614402Y1065164D01*
X1614318Y1064760D01*
X1614223Y1064358D01*
X1614119Y1063959D01*
X1614005Y1063562D01*
X1613881Y1063169D01*
X1613748Y1062778D01*
X1613605Y1062391D01*
X1613453Y1062007D01*
X1613291Y1061628D01*
X1613121Y1061252D01*
X1612941Y1060881D01*
X1612753Y1060514D01*
X1612555Y1060151D01*
X1612349Y1059794D01*
X1612134Y1059442D01*
X1611910Y1059095D01*
X1611678Y1058754D01*
X1611438Y1058418D01*
X1611190Y1058088D01*
X1610934Y1057765D01*
X1610670Y1057448D01*
X1610398Y1057137D01*
X1610119Y1056833D01*
X1609833Y1056536D01*
X1609539Y1056246D01*
X1609239Y1055963D01*
X1608932Y1055688D01*
X1608618Y1055420D01*
X1608297Y1055160D01*
X1607971Y1054908D01*
X1607638Y1054664D01*
X1607300Y1054428D01*
X1606955Y1054200D01*
X1606606Y1053981D01*
X1606251Y1053770D01*
X1605891Y1053568D01*
X1605527Y1053375D01*
X1605157Y1053191D01*
X1604784Y1053016D01*
X1604406Y1052850D01*
X1604024Y1052693D01*
X1603639Y1052546D01*
X1603250Y1052408D01*
X1602858Y1052279D01*
X1602463Y1052160D01*
X1602065Y1052051D01*
X1601664Y1051951D01*
X1601261Y1051862D01*
X1600857Y1051782D01*
X1600450Y1051712D01*
X1600042Y1051652D01*
X1599632Y1051602D01*
X1599222Y1051562D01*
X1598810Y1051531D01*
X1598398Y1051511D01*
X1597985Y1051501D01*
X1597573Y1051501D01*
X1597160Y1051511D01*
X1596748Y1051531D01*
X1596336Y1051562D01*
X1595926Y1051602D01*
X1595516Y1051652D01*
X1595108Y1051712D01*
X1594701Y1051782D01*
X1594297Y1051862D01*
X1593894Y1051951D01*
X1593493Y1052051D01*
X1593095Y1052160D01*
X1592700Y1052279D01*
X1592308Y1052408D01*
X1591919Y1052546D01*
X1591534Y1052693D01*
X1591152Y1052850D01*
X1590774Y1053016D01*
X1590401Y1053191D01*
X1590031Y1053375D01*
X1589667Y1053568D01*
X1589307Y1053770D01*
X1588952Y1053981D01*
X1588603Y1054200D01*
X1588258Y1054428D01*
X1587920Y1054664D01*
X1587587Y1054908D01*
X1587261Y1055160D01*
X1586940Y1055420D01*
X1586626Y1055688D01*
X1586319Y1055963D01*
X1586019Y1056246D01*
X1585725Y1056536D01*
X1585439Y1056833D01*
X1585160Y1057137D01*
X1584888Y1057448D01*
X1584624Y1057765D01*
X1584368Y1058088D01*
X1584120Y1058418D01*
X1583880Y1058754D01*
X1583648Y1059095D01*
X1583424Y1059442D01*
X1583209Y1059794D01*
X1583003Y1060151D01*
X1582805Y1060514D01*
X1582617Y1060881D01*
X1582437Y1061252D01*
X1582267Y1061628D01*
X1582105Y1062007D01*
X1581953Y1062391D01*
X1581810Y1062778D01*
X1581677Y1063169D01*
X1581553Y1063562D01*
X1581439Y1063959D01*
X1581335Y1064358D01*
X1581240Y1064760D01*
X1581156Y1065164D01*
X1581081Y1065569D01*
X1581016Y1065977D01*
X1580960Y1066386D01*
X1580915Y1066796D01*
X1580880Y1067207D01*
X1580855Y1067619D01*
X1580840Y1068031D01*
X1580835Y1068444D01*
X1635972Y1051500D02*
X1656305Y1112500D01*
X1676639Y1051500D01*
X1671555Y1066750D02*
X1641055Y1066750D01*
X1700175Y1051500D02*
X1700175Y1112500D01*
X1717120Y1112500D01*
X1717533Y1112495D01*
X1717945Y1112480D01*
X1718357Y1112455D01*
X1718768Y1112420D01*
X1719178Y1112375D01*
X1719587Y1112319D01*
X1719995Y1112254D01*
X1720401Y1112179D01*
X1720804Y1112095D01*
X1721206Y1112000D01*
X1721605Y1111896D01*
X1722002Y1111782D01*
X1722396Y1111658D01*
X1722786Y1111525D01*
X1723173Y1111382D01*
X1723557Y1111230D01*
X1723937Y1111068D01*
X1724312Y1110898D01*
X1724684Y1110718D01*
X1725051Y1110529D01*
X1725413Y1110332D01*
X1725771Y1110126D01*
X1726123Y1109911D01*
X1726470Y1109687D01*
X1726811Y1109455D01*
X1727147Y1109215D01*
X1727476Y1108967D01*
X1727800Y1108711D01*
X1728117Y1108447D01*
X1728428Y1108175D01*
X1728732Y1107896D01*
X1729029Y1107610D01*
X1729319Y1107316D01*
X1729602Y1107016D01*
X1729877Y1106708D01*
X1730145Y1106394D01*
X1730405Y1106074D01*
X1730657Y1105747D01*
X1730901Y1105415D01*
X1731137Y1105076D01*
X1731365Y1104732D01*
X1731584Y1104382D01*
X1731795Y1104028D01*
X1731997Y1103668D01*
X1732190Y1103303D01*
X1732374Y1102934D01*
X1732549Y1102560D01*
X1732715Y1102182D01*
X1732872Y1101801D01*
X1733019Y1101415D01*
X1733157Y1101026D01*
X1733286Y1100634D01*
X1733405Y1100239D01*
X1733514Y1099841D01*
X1733614Y1099440D01*
X1733703Y1099038D01*
X1733783Y1098633D01*
X1733853Y1098226D01*
X1733913Y1097818D01*
X1733963Y1097408D01*
X1734003Y1096998D01*
X1734034Y1096586D01*
X1734054Y1096174D01*
X1734064Y1095761D01*
X1734064Y1095349D01*
X1734054Y1094936D01*
X1734034Y1094524D01*
X1734003Y1094112D01*
X1733963Y1093702D01*
X1733913Y1093292D01*
X1733853Y1092884D01*
X1733783Y1092477D01*
X1733703Y1092072D01*
X1733614Y1091670D01*
X1733514Y1091269D01*
X1733405Y1090871D01*
X1733286Y1090476D01*
X1733157Y1090084D01*
X1733019Y1089695D01*
X1732872Y1089309D01*
X1732715Y1088928D01*
X1732549Y1088550D01*
X1732374Y1088176D01*
X1732190Y1087807D01*
X1731997Y1087442D01*
X1731795Y1087083D01*
X1731584Y1086728D01*
X1731365Y1086378D01*
X1731137Y1086034D01*
X1730901Y1085695D01*
X1730657Y1085363D01*
X1730405Y1085036D01*
X1730145Y1084716D01*
X1729877Y1084402D01*
X1729602Y1084094D01*
X1729319Y1083794D01*
X1729029Y1083500D01*
X1728732Y1083214D01*
X1728428Y1082935D01*
X1728117Y1082663D01*
X1727800Y1082399D01*
X1727476Y1082143D01*
X1727147Y1081895D01*
X1726811Y1081655D01*
X1726470Y1081423D01*
X1726123Y1081199D01*
X1725771Y1080984D01*
X1725413Y1080778D01*
X1725051Y1080581D01*
X1724684Y1080392D01*
X1724312Y1080212D01*
X1723937Y1080042D01*
X1723557Y1079880D01*
X1723173Y1079728D01*
X1722786Y1079585D01*
X1722396Y1079452D01*
X1722002Y1079328D01*
X1721605Y1079214D01*
X1721206Y1079110D01*
X1720804Y1079015D01*
X1720401Y1078931D01*
X1719995Y1078856D01*
X1719587Y1078791D01*
X1719178Y1078735D01*
X1718768Y1078690D01*
X1718357Y1078655D01*
X1717945Y1078630D01*
X1717533Y1078615D01*
X1717120Y1078610D01*
X1717120Y1078611D02*
X1700175Y1078611D01*
X1720509Y1078611D02*
X1734064Y1051500D01*
X1760316Y1051500D02*
X1760316Y1112500D01*
X1777261Y1112500D01*
X1777670Y1112495D01*
X1778080Y1112480D01*
X1778488Y1112455D01*
X1778896Y1112421D01*
X1779303Y1112376D01*
X1779709Y1112322D01*
X1780114Y1112258D01*
X1780517Y1112184D01*
X1780917Y1112101D01*
X1781316Y1112008D01*
X1781713Y1111905D01*
X1782106Y1111792D01*
X1782497Y1111671D01*
X1782885Y1111539D01*
X1783270Y1111399D01*
X1783651Y1111249D01*
X1784028Y1111090D01*
X1784402Y1110922D01*
X1784771Y1110745D01*
X1785136Y1110559D01*
X1785496Y1110364D01*
X1785851Y1110161D01*
X1786202Y1109949D01*
X1786547Y1109729D01*
X1786887Y1109500D01*
X1787221Y1109264D01*
X1787549Y1109019D01*
X1787872Y1108767D01*
X1788188Y1108506D01*
X1788498Y1108239D01*
X1788801Y1107963D01*
X1789097Y1107681D01*
X1789387Y1107391D01*
X1789669Y1107095D01*
X1789945Y1106792D01*
X1790212Y1106482D01*
X1790473Y1106166D01*
X1790725Y1105843D01*
X1790970Y1105515D01*
X1791206Y1105181D01*
X1791435Y1104841D01*
X1791655Y1104496D01*
X1791867Y1104145D01*
X1792070Y1103790D01*
X1792265Y1103430D01*
X1792451Y1103065D01*
X1792628Y1102696D01*
X1792796Y1102322D01*
X1792955Y1101945D01*
X1793105Y1101564D01*
X1793245Y1101179D01*
X1793377Y1100791D01*
X1793498Y1100400D01*
X1793611Y1100007D01*
X1793714Y1099610D01*
X1793807Y1099211D01*
X1793890Y1098811D01*
X1793964Y1098408D01*
X1794028Y1098003D01*
X1794082Y1097597D01*
X1794127Y1097190D01*
X1794161Y1096782D01*
X1794186Y1096374D01*
X1794201Y1095964D01*
X1794206Y1095555D01*
X1794205Y1095555D02*
X1794205Y1068444D01*
X1794200Y1068035D01*
X1794185Y1067625D01*
X1794160Y1067217D01*
X1794126Y1066809D01*
X1794081Y1066402D01*
X1794027Y1065996D01*
X1793963Y1065591D01*
X1793889Y1065189D01*
X1793806Y1064788D01*
X1793713Y1064389D01*
X1793610Y1063993D01*
X1793498Y1063599D01*
X1793376Y1063208D01*
X1793244Y1062820D01*
X1793104Y1062436D01*
X1792954Y1062055D01*
X1792795Y1061677D01*
X1792627Y1061304D01*
X1792450Y1060935D01*
X1792264Y1060570D01*
X1792070Y1060209D01*
X1791866Y1059854D01*
X1791654Y1059504D01*
X1791434Y1059158D01*
X1791206Y1058819D01*
X1790969Y1058485D01*
X1790724Y1058156D01*
X1790472Y1057834D01*
X1790212Y1057518D01*
X1789944Y1057208D01*
X1789669Y1056905D01*
X1789386Y1056608D01*
X1789097Y1056319D01*
X1788800Y1056036D01*
X1788497Y1055761D01*
X1788187Y1055493D01*
X1787871Y1055233D01*
X1787549Y1054981D01*
X1787220Y1054736D01*
X1786886Y1054499D01*
X1786547Y1054271D01*
X1786201Y1054051D01*
X1785851Y1053839D01*
X1785496Y1053635D01*
X1785135Y1053441D01*
X1784770Y1053255D01*
X1784401Y1053078D01*
X1784028Y1052910D01*
X1783650Y1052751D01*
X1783269Y1052601D01*
X1782885Y1052461D01*
X1782497Y1052329D01*
X1782106Y1052207D01*
X1781712Y1052095D01*
X1781316Y1051992D01*
X1780917Y1051899D01*
X1780516Y1051816D01*
X1780114Y1051742D01*
X1779709Y1051678D01*
X1779303Y1051624D01*
X1778896Y1051579D01*
X1778488Y1051545D01*
X1778080Y1051520D01*
X1777670Y1051505D01*
X1777261Y1051500D01*
X1760316Y1051500D01*
X979611Y952500D02*
X952500Y952500D01*
X952500Y1013500D01*
X979611Y1013500D01*
X972833Y986389D02*
X952500Y986389D01*
X1003223Y1013500D02*
X1003223Y952500D01*
X1030334Y952500D01*
X1053946Y952500D02*
X1081057Y952500D01*
X1053946Y952500D02*
X1053946Y1013500D01*
X1081057Y1013500D01*
X1074280Y986389D02*
X1053946Y986389D01*
X1116019Y952500D02*
X1129575Y952500D01*
X1116019Y952500D02*
X1115691Y952504D01*
X1115364Y952516D01*
X1115037Y952536D01*
X1114711Y952563D01*
X1114385Y952599D01*
X1114060Y952642D01*
X1113737Y952693D01*
X1113415Y952753D01*
X1113094Y952819D01*
X1112775Y952894D01*
X1112458Y952976D01*
X1112143Y953066D01*
X1111830Y953163D01*
X1111520Y953268D01*
X1111212Y953381D01*
X1110907Y953501D01*
X1110606Y953628D01*
X1110307Y953762D01*
X1110012Y953904D01*
X1109720Y954053D01*
X1109431Y954208D01*
X1109147Y954371D01*
X1108867Y954540D01*
X1108591Y954717D01*
X1108319Y954899D01*
X1108052Y955089D01*
X1107789Y955284D01*
X1107531Y955487D01*
X1107278Y955695D01*
X1107030Y955909D01*
X1106788Y956129D01*
X1106551Y956355D01*
X1106319Y956587D01*
X1106093Y956824D01*
X1105873Y957066D01*
X1105659Y957314D01*
X1105451Y957567D01*
X1105248Y957825D01*
X1105053Y958088D01*
X1104863Y958355D01*
X1104681Y958627D01*
X1104504Y958903D01*
X1104335Y959183D01*
X1104172Y959467D01*
X1104017Y959756D01*
X1103868Y960048D01*
X1103726Y960343D01*
X1103592Y960642D01*
X1103465Y960943D01*
X1103345Y961248D01*
X1103232Y961556D01*
X1103127Y961866D01*
X1103030Y962179D01*
X1102940Y962494D01*
X1102858Y962811D01*
X1102783Y963130D01*
X1102717Y963451D01*
X1102657Y963773D01*
X1102606Y964096D01*
X1102563Y964421D01*
X1102527Y964747D01*
X1102500Y965073D01*
X1102480Y965400D01*
X1102468Y965727D01*
X1102464Y966055D01*
X1102464Y999944D01*
X1102463Y999944D02*
X1102467Y1000277D01*
X1102479Y1000609D01*
X1102500Y1000941D01*
X1102528Y1001273D01*
X1102565Y1001603D01*
X1102610Y1001933D01*
X1102663Y1002262D01*
X1102723Y1002589D01*
X1102792Y1002914D01*
X1102869Y1003238D01*
X1102954Y1003560D01*
X1103047Y1003879D01*
X1103147Y1004196D01*
X1103255Y1004511D01*
X1103371Y1004823D01*
X1103495Y1005132D01*
X1103626Y1005437D01*
X1103765Y1005740D01*
X1103910Y1006039D01*
X1104064Y1006334D01*
X1104224Y1006626D01*
X1104392Y1006913D01*
X1104566Y1007196D01*
X1104748Y1007475D01*
X1104936Y1007750D01*
X1105131Y1008019D01*
X1105332Y1008284D01*
X1105540Y1008544D01*
X1105754Y1008798D01*
X1105975Y1009048D01*
X1106201Y1009291D01*
X1106433Y1009529D01*
X1106672Y1009762D01*
X1106915Y1009988D01*
X1107165Y1010209D01*
X1107419Y1010423D01*
X1107679Y1010631D01*
X1107944Y1010832D01*
X1108213Y1011027D01*
X1108488Y1011215D01*
X1108767Y1011397D01*
X1109050Y1011571D01*
X1109337Y1011739D01*
X1109629Y1011899D01*
X1109924Y1012053D01*
X1110223Y1012198D01*
X1110525Y1012337D01*
X1110831Y1012468D01*
X1111140Y1012592D01*
X1111452Y1012708D01*
X1111767Y1012816D01*
X1112084Y1012916D01*
X1112403Y1013009D01*
X1112725Y1013094D01*
X1113049Y1013171D01*
X1113374Y1013240D01*
X1113701Y1013300D01*
X1114030Y1013353D01*
X1114359Y1013398D01*
X1114690Y1013435D01*
X1115022Y1013463D01*
X1115354Y1013484D01*
X1115686Y1013496D01*
X1116019Y1013500D01*
X1129575Y1013500D01*
X1182598Y952500D02*
X1199542Y952500D01*
X1199955Y952505D01*
X1200367Y952520D01*
X1200779Y952545D01*
X1201190Y952580D01*
X1201600Y952625D01*
X1202009Y952681D01*
X1202417Y952746D01*
X1202822Y952821D01*
X1203226Y952905D01*
X1203628Y953000D01*
X1204027Y953104D01*
X1204424Y953218D01*
X1204817Y953342D01*
X1205208Y953475D01*
X1205595Y953618D01*
X1205979Y953770D01*
X1206358Y953932D01*
X1206734Y954102D01*
X1207105Y954282D01*
X1207472Y954470D01*
X1207835Y954668D01*
X1208192Y954874D01*
X1208544Y955089D01*
X1208891Y955313D01*
X1209232Y955545D01*
X1209568Y955785D01*
X1209898Y956033D01*
X1210221Y956289D01*
X1210538Y956553D01*
X1210849Y956825D01*
X1211153Y957104D01*
X1211450Y957390D01*
X1211740Y957684D01*
X1212023Y957984D01*
X1212298Y958291D01*
X1212566Y958605D01*
X1212826Y958926D01*
X1213078Y959252D01*
X1213322Y959585D01*
X1213558Y959923D01*
X1213786Y960268D01*
X1214005Y960617D01*
X1214216Y960972D01*
X1214418Y961332D01*
X1214611Y961696D01*
X1214795Y962066D01*
X1214970Y962439D01*
X1215136Y962817D01*
X1215293Y963199D01*
X1215440Y963584D01*
X1215578Y963973D01*
X1215707Y964365D01*
X1215826Y964760D01*
X1215935Y965158D01*
X1216035Y965559D01*
X1216124Y965962D01*
X1216204Y966366D01*
X1216274Y966773D01*
X1216334Y967181D01*
X1216384Y967591D01*
X1216424Y968001D01*
X1216455Y968413D01*
X1216475Y968825D01*
X1216485Y969238D01*
X1216485Y969650D01*
X1216475Y970063D01*
X1216455Y970475D01*
X1216424Y970887D01*
X1216384Y971297D01*
X1216334Y971707D01*
X1216274Y972115D01*
X1216204Y972522D01*
X1216124Y972926D01*
X1216035Y973329D01*
X1215935Y973730D01*
X1215826Y974128D01*
X1215707Y974523D01*
X1215578Y974915D01*
X1215440Y975304D01*
X1215293Y975689D01*
X1215136Y976071D01*
X1214970Y976449D01*
X1214795Y976822D01*
X1214611Y977192D01*
X1214418Y977556D01*
X1214216Y977916D01*
X1214005Y978271D01*
X1213786Y978620D01*
X1213558Y978965D01*
X1213322Y979303D01*
X1213078Y979636D01*
X1212826Y979962D01*
X1212566Y980283D01*
X1212298Y980597D01*
X1212023Y980904D01*
X1211740Y981204D01*
X1211450Y981498D01*
X1211153Y981784D01*
X1210849Y982063D01*
X1210538Y982335D01*
X1210221Y982599D01*
X1209898Y982855D01*
X1209568Y983103D01*
X1209232Y983343D01*
X1208891Y983575D01*
X1208544Y983799D01*
X1208192Y984014D01*
X1207835Y984220D01*
X1207472Y984418D01*
X1207105Y984606D01*
X1206734Y984786D01*
X1206358Y984956D01*
X1205979Y985118D01*
X1205595Y985270D01*
X1205208Y985413D01*
X1204817Y985546D01*
X1204424Y985670D01*
X1204027Y985784D01*
X1203628Y985888D01*
X1203226Y985983D01*
X1202822Y986067D01*
X1202417Y986142D01*
X1202009Y986207D01*
X1201600Y986263D01*
X1201190Y986308D01*
X1200779Y986343D01*
X1200367Y986368D01*
X1199955Y986383D01*
X1199542Y986388D01*
X1202931Y1013500D02*
X1182598Y1013500D01*
X1202931Y1013500D02*
X1203261Y1013496D01*
X1203591Y1013484D01*
X1203921Y1013464D01*
X1204249Y1013436D01*
X1204578Y1013400D01*
X1204905Y1013356D01*
X1205231Y1013303D01*
X1205555Y1013244D01*
X1205878Y1013176D01*
X1206200Y1013100D01*
X1206519Y1013016D01*
X1206836Y1012925D01*
X1207151Y1012826D01*
X1207464Y1012720D01*
X1207774Y1012606D01*
X1208081Y1012484D01*
X1208384Y1012355D01*
X1208685Y1012218D01*
X1208982Y1012075D01*
X1209276Y1011924D01*
X1209566Y1011766D01*
X1209851Y1011600D01*
X1210133Y1011428D01*
X1210411Y1011250D01*
X1210684Y1011064D01*
X1210952Y1010872D01*
X1211216Y1010674D01*
X1211475Y1010469D01*
X1211729Y1010257D01*
X1211977Y1010040D01*
X1212220Y1009817D01*
X1212458Y1009588D01*
X1212690Y1009353D01*
X1212916Y1009112D01*
X1213137Y1008867D01*
X1213351Y1008615D01*
X1213559Y1008359D01*
X1213761Y1008098D01*
X1213956Y1007832D01*
X1214145Y1007561D01*
X1214327Y1007286D01*
X1214502Y1007006D01*
X1214671Y1006722D01*
X1214832Y1006434D01*
X1214987Y1006142D01*
X1215134Y1005847D01*
X1215274Y1005548D01*
X1215407Y1005246D01*
X1215533Y1004940D01*
X1215651Y1004632D01*
X1215761Y1004321D01*
X1215864Y1004007D01*
X1215959Y1003691D01*
X1216046Y1003373D01*
X1216126Y1003052D01*
X1216198Y1002730D01*
X1216262Y1002406D01*
X1216318Y1002081D01*
X1216366Y1001754D01*
X1216406Y1001427D01*
X1216438Y1001098D01*
X1216462Y1000769D01*
X1216478Y1000439D01*
X1216486Y1000109D01*
X1216486Y999779D01*
X1216478Y999449D01*
X1216462Y999119D01*
X1216438Y998790D01*
X1216406Y998461D01*
X1216366Y998134D01*
X1216318Y997807D01*
X1216262Y997482D01*
X1216198Y997158D01*
X1216126Y996836D01*
X1216046Y996515D01*
X1215959Y996197D01*
X1215864Y995881D01*
X1215761Y995567D01*
X1215651Y995256D01*
X1215533Y994948D01*
X1215407Y994642D01*
X1215274Y994340D01*
X1215134Y994041D01*
X1214987Y993746D01*
X1214832Y993454D01*
X1214671Y993166D01*
X1214502Y992882D01*
X1214327Y992602D01*
X1214145Y992327D01*
X1213956Y992056D01*
X1213761Y991790D01*
X1213559Y991529D01*
X1213351Y991273D01*
X1213137Y991021D01*
X1212916Y990776D01*
X1212690Y990535D01*
X1212458Y990300D01*
X1212220Y990071D01*
X1211977Y989848D01*
X1211729Y989631D01*
X1211475Y989419D01*
X1211216Y989214D01*
X1210952Y989016D01*
X1210684Y988824D01*
X1210411Y988638D01*
X1210133Y988460D01*
X1209851Y988288D01*
X1209566Y988122D01*
X1209276Y987964D01*
X1208982Y987813D01*
X1208685Y987670D01*
X1208384Y987533D01*
X1208081Y987404D01*
X1207774Y987282D01*
X1207464Y987168D01*
X1207151Y987062D01*
X1206836Y986963D01*
X1206519Y986872D01*
X1206200Y986788D01*
X1205878Y986712D01*
X1205555Y986644D01*
X1205231Y986585D01*
X1204905Y986532D01*
X1204578Y986488D01*
X1204249Y986452D01*
X1203921Y986424D01*
X1203591Y986404D01*
X1203261Y986392D01*
X1202931Y986388D01*
X1202931Y986389D02*
X1189375Y986389D01*
X1259763Y1013500D02*
X1260131Y1013496D01*
X1260500Y1013482D01*
X1260868Y1013460D01*
X1261235Y1013429D01*
X1261601Y1013389D01*
X1261966Y1013340D01*
X1262330Y1013282D01*
X1262693Y1013216D01*
X1263054Y1013141D01*
X1263413Y1013057D01*
X1263769Y1012964D01*
X1264124Y1012863D01*
X1264476Y1012754D01*
X1264825Y1012636D01*
X1265171Y1012509D01*
X1265514Y1012374D01*
X1265853Y1012231D01*
X1266189Y1012080D01*
X1266522Y1011921D01*
X1266850Y1011753D01*
X1267174Y1011578D01*
X1267494Y1011395D01*
X1267810Y1011204D01*
X1268120Y1011006D01*
X1268426Y1010801D01*
X1268727Y1010588D01*
X1269022Y1010367D01*
X1269312Y1010140D01*
X1269597Y1009906D01*
X1269876Y1009665D01*
X1270148Y1009417D01*
X1270415Y1009163D01*
X1270676Y1008902D01*
X1270930Y1008635D01*
X1271178Y1008363D01*
X1271419Y1008084D01*
X1271653Y1007799D01*
X1271880Y1007509D01*
X1272101Y1007214D01*
X1272314Y1006913D01*
X1272519Y1006607D01*
X1272717Y1006297D01*
X1272908Y1005981D01*
X1273091Y1005661D01*
X1273266Y1005337D01*
X1273434Y1005009D01*
X1273593Y1004676D01*
X1273744Y1004340D01*
X1273887Y1004001D01*
X1274022Y1003658D01*
X1274149Y1003312D01*
X1274267Y1002963D01*
X1274376Y1002611D01*
X1274477Y1002256D01*
X1274570Y1001900D01*
X1274654Y1001541D01*
X1274729Y1001180D01*
X1274795Y1000817D01*
X1274853Y1000453D01*
X1274902Y1000088D01*
X1274942Y999722D01*
X1274973Y999355D01*
X1274995Y998987D01*
X1275009Y998618D01*
X1275013Y998250D01*
X1259763Y1013500D02*
X1259289Y1013494D01*
X1258816Y1013477D01*
X1258343Y1013448D01*
X1257871Y1013408D01*
X1257400Y1013357D01*
X1256930Y1013294D01*
X1256462Y1013220D01*
X1255996Y1013134D01*
X1255532Y1013038D01*
X1255071Y1012930D01*
X1254612Y1012811D01*
X1254157Y1012681D01*
X1253704Y1012540D01*
X1253255Y1012388D01*
X1252810Y1012225D01*
X1252370Y1012051D01*
X1251933Y1011867D01*
X1251501Y1011673D01*
X1251074Y1011468D01*
X1250652Y1011252D01*
X1250235Y1011027D01*
X1249824Y1010792D01*
X1249418Y1010546D01*
X1249019Y1010291D01*
X1248626Y1010027D01*
X1248239Y1009753D01*
X1247860Y1009469D01*
X1247487Y1009177D01*
X1247121Y1008876D01*
X1246763Y1008566D01*
X1246412Y1008247D01*
X1246069Y1007920D01*
X1245735Y1007585D01*
X1245408Y1007241D01*
X1245090Y1006890D01*
X1244780Y1006532D01*
X1244479Y1006166D01*
X1244187Y1005793D01*
X1243904Y1005412D01*
X1243631Y1005026D01*
X1243367Y1004632D01*
X1243112Y1004233D01*
X1242867Y1003827D01*
X1242632Y1003415D01*
X1242408Y1002998D01*
X1242193Y1002576D01*
X1241988Y1002149D01*
X1241794Y1001716D01*
X1241611Y1001279D01*
X1241438Y1000838D01*
X1241275Y1000393D01*
X1241124Y999944D01*
X1269930Y986389D02*
X1270217Y986670D01*
X1270498Y986957D01*
X1270772Y987252D01*
X1271038Y987553D01*
X1271296Y987861D01*
X1271548Y988174D01*
X1271791Y988494D01*
X1272026Y988820D01*
X1272254Y989151D01*
X1272473Y989488D01*
X1272684Y989831D01*
X1272886Y990178D01*
X1273080Y990530D01*
X1273265Y990887D01*
X1273441Y991248D01*
X1273608Y991613D01*
X1273767Y991983D01*
X1273916Y992356D01*
X1274056Y992733D01*
X1274187Y993113D01*
X1274308Y993496D01*
X1274420Y993882D01*
X1274522Y994271D01*
X1274615Y994662D01*
X1274698Y995055D01*
X1274772Y995450D01*
X1274836Y995847D01*
X1274890Y996245D01*
X1274934Y996645D01*
X1274969Y997045D01*
X1274993Y997446D01*
X1275008Y997848D01*
X1275013Y998250D01*
X1269930Y986389D02*
X1241124Y952500D01*
X1275013Y952500D01*
X1299651Y1006722D02*
X1299651Y1013500D01*
X1333540Y1013500D01*
X1316595Y952500D01*
X1407774Y952499D02*
X1408107Y952503D01*
X1408439Y952515D01*
X1408771Y952536D01*
X1409103Y952564D01*
X1409434Y952601D01*
X1409763Y952646D01*
X1410092Y952699D01*
X1410419Y952759D01*
X1410744Y952828D01*
X1411068Y952905D01*
X1411390Y952990D01*
X1411709Y953083D01*
X1412026Y953183D01*
X1412341Y953291D01*
X1412653Y953407D01*
X1412962Y953531D01*
X1413268Y953662D01*
X1413570Y953801D01*
X1413869Y953946D01*
X1414164Y954100D01*
X1414456Y954260D01*
X1414743Y954428D01*
X1415026Y954602D01*
X1415305Y954784D01*
X1415580Y954972D01*
X1415849Y955167D01*
X1416114Y955368D01*
X1416374Y955576D01*
X1416628Y955790D01*
X1416878Y956011D01*
X1417121Y956237D01*
X1417360Y956470D01*
X1417592Y956708D01*
X1417818Y956951D01*
X1418039Y957201D01*
X1418253Y957455D01*
X1418461Y957715D01*
X1418662Y957980D01*
X1418857Y958249D01*
X1419045Y958524D01*
X1419227Y958803D01*
X1419401Y959086D01*
X1419569Y959373D01*
X1419729Y959665D01*
X1419883Y959960D01*
X1420028Y960259D01*
X1420167Y960562D01*
X1420298Y960867D01*
X1420422Y961176D01*
X1420538Y961488D01*
X1420646Y961803D01*
X1420746Y962120D01*
X1420839Y962439D01*
X1420924Y962761D01*
X1421001Y963085D01*
X1421070Y963410D01*
X1421130Y963737D01*
X1421183Y964066D01*
X1421228Y964396D01*
X1421265Y964726D01*
X1421293Y965058D01*
X1421314Y965390D01*
X1421326Y965722D01*
X1421330Y966055D01*
X1407774Y952500D02*
X1407089Y952508D01*
X1406404Y952533D01*
X1405720Y952574D01*
X1405038Y952631D01*
X1404357Y952705D01*
X1403677Y952795D01*
X1403000Y952901D01*
X1402326Y953023D01*
X1401655Y953161D01*
X1400988Y953316D01*
X1400324Y953486D01*
X1399665Y953672D01*
X1399010Y953874D01*
X1398360Y954092D01*
X1397716Y954325D01*
X1397077Y954573D01*
X1396445Y954836D01*
X1395819Y955115D01*
X1395200Y955408D01*
X1394588Y955717D01*
X1393983Y956039D01*
X1393387Y956377D01*
X1392799Y956728D01*
X1392219Y957093D01*
X1391648Y957472D01*
X1391087Y957865D01*
X1390535Y958271D01*
X1389993Y958690D01*
X1389461Y959121D01*
X1388939Y959566D01*
X1388428Y960023D01*
X1387929Y960492D01*
X1387441Y960972D01*
X1389135Y999944D02*
X1389139Y1000272D01*
X1389151Y1000599D01*
X1389171Y1000926D01*
X1389198Y1001252D01*
X1389234Y1001578D01*
X1389277Y1001903D01*
X1389328Y1002226D01*
X1389388Y1002548D01*
X1389454Y1002869D01*
X1389529Y1003188D01*
X1389611Y1003505D01*
X1389701Y1003820D01*
X1389798Y1004133D01*
X1389903Y1004443D01*
X1390016Y1004751D01*
X1390136Y1005056D01*
X1390263Y1005358D01*
X1390397Y1005657D01*
X1390539Y1005952D01*
X1390688Y1006244D01*
X1390843Y1006532D01*
X1391006Y1006816D01*
X1391176Y1007097D01*
X1391352Y1007373D01*
X1391535Y1007645D01*
X1391724Y1007912D01*
X1391920Y1008175D01*
X1392122Y1008433D01*
X1392330Y1008685D01*
X1392544Y1008933D01*
X1392764Y1009176D01*
X1392990Y1009413D01*
X1393222Y1009645D01*
X1393459Y1009871D01*
X1393702Y1010091D01*
X1393950Y1010305D01*
X1394202Y1010513D01*
X1394460Y1010715D01*
X1394723Y1010911D01*
X1394990Y1011100D01*
X1395262Y1011283D01*
X1395538Y1011459D01*
X1395819Y1011629D01*
X1396103Y1011792D01*
X1396391Y1011947D01*
X1396683Y1012096D01*
X1396978Y1012238D01*
X1397277Y1012372D01*
X1397579Y1012499D01*
X1397884Y1012619D01*
X1398192Y1012732D01*
X1398502Y1012837D01*
X1398815Y1012934D01*
X1399130Y1013024D01*
X1399447Y1013106D01*
X1399766Y1013181D01*
X1400087Y1013247D01*
X1400409Y1013307D01*
X1400732Y1013358D01*
X1401057Y1013401D01*
X1401383Y1013437D01*
X1401709Y1013464D01*
X1402036Y1013484D01*
X1402363Y1013496D01*
X1402691Y1013500D01*
X1403297Y1013493D01*
X1403902Y1013471D01*
X1404507Y1013435D01*
X1405110Y1013385D01*
X1405713Y1013320D01*
X1406313Y1013241D01*
X1406912Y1013147D01*
X1407508Y1013039D01*
X1408101Y1012918D01*
X1408691Y1012782D01*
X1409278Y1012632D01*
X1409861Y1012468D01*
X1410440Y1012290D01*
X1411015Y1012098D01*
X1411585Y1011893D01*
X1412150Y1011674D01*
X1412709Y1011442D01*
X1413263Y1011197D01*
X1413811Y1010938D01*
X1414353Y1010667D01*
X1414887Y1010382D01*
X1415415Y1010085D01*
X1415936Y1009776D01*
X1416449Y1009454D01*
X1416955Y1009120D01*
X1417452Y1008774D01*
X1417941Y1008417D01*
X1395914Y988083D02*
X1395629Y988255D01*
X1395349Y988434D01*
X1395073Y988620D01*
X1394802Y988813D01*
X1394536Y989011D01*
X1394274Y989217D01*
X1394018Y989428D01*
X1393767Y989646D01*
X1393521Y989869D01*
X1393280Y990099D01*
X1393045Y990334D01*
X1392816Y990575D01*
X1392593Y990821D01*
X1392376Y991073D01*
X1392164Y991329D01*
X1391960Y991591D01*
X1391761Y991858D01*
X1391569Y992129D01*
X1391384Y992405D01*
X1391205Y992685D01*
X1391033Y992970D01*
X1390868Y993258D01*
X1390710Y993551D01*
X1390560Y993847D01*
X1390416Y994147D01*
X1390280Y994450D01*
X1390151Y994757D01*
X1390029Y995066D01*
X1389915Y995378D01*
X1389809Y995693D01*
X1389710Y996011D01*
X1389619Y996330D01*
X1389535Y996652D01*
X1389460Y996976D01*
X1389392Y997301D01*
X1389332Y997628D01*
X1389280Y997956D01*
X1389236Y998286D01*
X1389200Y998616D01*
X1389172Y998948D01*
X1389152Y999279D01*
X1389140Y999612D01*
X1389136Y999944D01*
X1414551Y977916D02*
X1414836Y977744D01*
X1415116Y977565D01*
X1415392Y977379D01*
X1415663Y977186D01*
X1415929Y976988D01*
X1416191Y976782D01*
X1416447Y976571D01*
X1416698Y976353D01*
X1416944Y976130D01*
X1417185Y975900D01*
X1417420Y975665D01*
X1417649Y975424D01*
X1417872Y975178D01*
X1418089Y974926D01*
X1418301Y974670D01*
X1418505Y974408D01*
X1418704Y974141D01*
X1418896Y973870D01*
X1419081Y973594D01*
X1419260Y973314D01*
X1419432Y973029D01*
X1419597Y972741D01*
X1419755Y972448D01*
X1419905Y972152D01*
X1420049Y971852D01*
X1420185Y971549D01*
X1420314Y971242D01*
X1420436Y970933D01*
X1420550Y970621D01*
X1420656Y970306D01*
X1420755Y969988D01*
X1420846Y969669D01*
X1420930Y969347D01*
X1421005Y969023D01*
X1421073Y968698D01*
X1421133Y968371D01*
X1421185Y968043D01*
X1421229Y967713D01*
X1421265Y967383D01*
X1421293Y967051D01*
X1421313Y966720D01*
X1421325Y966387D01*
X1421329Y966055D01*
X1414552Y977917D02*
X1395913Y988083D01*
X1493870Y1013500D02*
X1494238Y1013496D01*
X1494607Y1013482D01*
X1494975Y1013460D01*
X1495342Y1013429D01*
X1495708Y1013389D01*
X1496073Y1013340D01*
X1496437Y1013282D01*
X1496800Y1013216D01*
X1497161Y1013141D01*
X1497520Y1013057D01*
X1497876Y1012964D01*
X1498231Y1012863D01*
X1498583Y1012754D01*
X1498932Y1012636D01*
X1499278Y1012509D01*
X1499621Y1012374D01*
X1499960Y1012231D01*
X1500296Y1012080D01*
X1500629Y1011921D01*
X1500957Y1011753D01*
X1501281Y1011578D01*
X1501601Y1011395D01*
X1501917Y1011204D01*
X1502227Y1011006D01*
X1502533Y1010801D01*
X1502834Y1010588D01*
X1503129Y1010367D01*
X1503419Y1010140D01*
X1503704Y1009906D01*
X1503983Y1009665D01*
X1504255Y1009417D01*
X1504522Y1009163D01*
X1504783Y1008902D01*
X1505037Y1008635D01*
X1505285Y1008363D01*
X1505526Y1008084D01*
X1505760Y1007799D01*
X1505987Y1007509D01*
X1506208Y1007214D01*
X1506421Y1006913D01*
X1506626Y1006607D01*
X1506824Y1006297D01*
X1507015Y1005981D01*
X1507198Y1005661D01*
X1507373Y1005337D01*
X1507541Y1005009D01*
X1507700Y1004676D01*
X1507851Y1004340D01*
X1507994Y1004001D01*
X1508129Y1003658D01*
X1508256Y1003312D01*
X1508374Y1002963D01*
X1508483Y1002611D01*
X1508584Y1002256D01*
X1508677Y1001900D01*
X1508761Y1001541D01*
X1508836Y1001180D01*
X1508902Y1000817D01*
X1508960Y1000453D01*
X1509009Y1000088D01*
X1509049Y999722D01*
X1509080Y999355D01*
X1509102Y998987D01*
X1509116Y998618D01*
X1509120Y998250D01*
X1493870Y1013500D02*
X1493396Y1013494D01*
X1492923Y1013477D01*
X1492450Y1013448D01*
X1491978Y1013408D01*
X1491507Y1013357D01*
X1491037Y1013294D01*
X1490569Y1013220D01*
X1490103Y1013134D01*
X1489639Y1013038D01*
X1489178Y1012930D01*
X1488719Y1012811D01*
X1488264Y1012681D01*
X1487811Y1012540D01*
X1487362Y1012388D01*
X1486917Y1012225D01*
X1486477Y1012051D01*
X1486040Y1011867D01*
X1485608Y1011673D01*
X1485181Y1011468D01*
X1484759Y1011252D01*
X1484342Y1011027D01*
X1483931Y1010792D01*
X1483525Y1010546D01*
X1483126Y1010291D01*
X1482733Y1010027D01*
X1482346Y1009753D01*
X1481967Y1009469D01*
X1481594Y1009177D01*
X1481228Y1008876D01*
X1480870Y1008566D01*
X1480519Y1008247D01*
X1480176Y1007920D01*
X1479842Y1007585D01*
X1479515Y1007241D01*
X1479197Y1006890D01*
X1478887Y1006532D01*
X1478586Y1006166D01*
X1478294Y1005793D01*
X1478011Y1005412D01*
X1477738Y1005026D01*
X1477474Y1004632D01*
X1477219Y1004233D01*
X1476974Y1003827D01*
X1476739Y1003415D01*
X1476515Y1002998D01*
X1476300Y1002576D01*
X1476095Y1002149D01*
X1475901Y1001716D01*
X1475718Y1001279D01*
X1475545Y1000838D01*
X1475382Y1000393D01*
X1475231Y999944D01*
X1504037Y986389D02*
X1504324Y986670D01*
X1504605Y986957D01*
X1504879Y987252D01*
X1505145Y987553D01*
X1505403Y987861D01*
X1505655Y988174D01*
X1505898Y988494D01*
X1506133Y988820D01*
X1506361Y989151D01*
X1506580Y989488D01*
X1506791Y989831D01*
X1506993Y990178D01*
X1507187Y990530D01*
X1507372Y990887D01*
X1507548Y991248D01*
X1507715Y991613D01*
X1507874Y991983D01*
X1508023Y992356D01*
X1508163Y992733D01*
X1508294Y993113D01*
X1508415Y993496D01*
X1508527Y993882D01*
X1508629Y994271D01*
X1508722Y994662D01*
X1508805Y995055D01*
X1508879Y995450D01*
X1508943Y995847D01*
X1508997Y996245D01*
X1509041Y996645D01*
X1509076Y997045D01*
X1509100Y997446D01*
X1509115Y997848D01*
X1509120Y998250D01*
X1504036Y986389D02*
X1475231Y952500D01*
X1509120Y952500D01*
X1533758Y983000D02*
X1533772Y984200D01*
X1533815Y985399D01*
X1533887Y986597D01*
X1533987Y987793D01*
X1534116Y988986D01*
X1534273Y990176D01*
X1534458Y991362D01*
X1534672Y992542D01*
X1534914Y993718D01*
X1535184Y994887D01*
X1535481Y996050D01*
X1535807Y997205D01*
X1536160Y998352D01*
X1536540Y999490D01*
X1536947Y1000619D01*
X1537381Y1001738D01*
X1537841Y1002846D01*
X1538328Y1003943D01*
X1538841Y1005028D01*
X1538943Y1005315D01*
X1539053Y1005600D01*
X1539169Y1005882D01*
X1539292Y1006161D01*
X1539422Y1006437D01*
X1539558Y1006709D01*
X1539701Y1006979D01*
X1539851Y1007244D01*
X1540007Y1007507D01*
X1540169Y1007765D01*
X1540338Y1008019D01*
X1540513Y1008269D01*
X1540693Y1008514D01*
X1540880Y1008756D01*
X1541073Y1008992D01*
X1541271Y1009224D01*
X1541475Y1009451D01*
X1541684Y1009673D01*
X1541898Y1009890D01*
X1542118Y1010101D01*
X1542343Y1010307D01*
X1542573Y1010508D01*
X1542807Y1010703D01*
X1543047Y1010892D01*
X1543290Y1011075D01*
X1543538Y1011252D01*
X1543791Y1011423D01*
X1544047Y1011588D01*
X1544308Y1011747D01*
X1544572Y1011899D01*
X1544840Y1012045D01*
X1545111Y1012185D01*
X1545386Y1012317D01*
X1545664Y1012443D01*
X1545944Y1012562D01*
X1546228Y1012675D01*
X1546514Y1012780D01*
X1546803Y1012878D01*
X1547094Y1012970D01*
X1547387Y1013054D01*
X1547682Y1013131D01*
X1547979Y1013201D01*
X1548277Y1013263D01*
X1548577Y1013319D01*
X1548879Y1013367D01*
X1549181Y1013407D01*
X1549484Y1013441D01*
X1549788Y1013467D01*
X1550092Y1013485D01*
X1550397Y1013496D01*
X1550702Y1013500D01*
X1551007Y1013496D01*
X1551312Y1013485D01*
X1551616Y1013467D01*
X1551920Y1013441D01*
X1552223Y1013407D01*
X1552525Y1013367D01*
X1552827Y1013319D01*
X1553127Y1013263D01*
X1553425Y1013201D01*
X1553722Y1013131D01*
X1554017Y1013054D01*
X1554310Y1012970D01*
X1554601Y1012878D01*
X1554890Y1012780D01*
X1555176Y1012675D01*
X1555460Y1012562D01*
X1555740Y1012443D01*
X1556018Y1012317D01*
X1556293Y1012185D01*
X1556564Y1012045D01*
X1556832Y1011899D01*
X1557096Y1011747D01*
X1557357Y1011588D01*
X1557613Y1011423D01*
X1557866Y1011252D01*
X1558114Y1011075D01*
X1558358Y1010892D01*
X1558597Y1010703D01*
X1558831Y1010508D01*
X1559061Y1010307D01*
X1559286Y1010101D01*
X1559506Y1009890D01*
X1559720Y1009673D01*
X1559930Y1009451D01*
X1560133Y1009224D01*
X1560332Y1008992D01*
X1560524Y1008756D01*
X1560711Y1008514D01*
X1560891Y1008269D01*
X1561066Y1008019D01*
X1561235Y1007765D01*
X1561397Y1007506D01*
X1561553Y1007244D01*
X1561703Y1006979D01*
X1561846Y1006709D01*
X1561982Y1006436D01*
X1562112Y1006160D01*
X1562235Y1005881D01*
X1562352Y1005599D01*
X1562461Y1005315D01*
X1562563Y1005028D01*
X1563076Y1003943D01*
X1563563Y1002846D01*
X1564023Y1001738D01*
X1564457Y1000619D01*
X1564864Y999490D01*
X1565244Y998352D01*
X1565597Y997205D01*
X1565923Y996050D01*
X1566220Y994887D01*
X1566490Y993718D01*
X1566732Y992542D01*
X1566946Y991361D01*
X1567131Y990176D01*
X1567288Y988986D01*
X1567417Y987793D01*
X1567517Y986597D01*
X1567589Y985399D01*
X1567632Y984200D01*
X1567646Y983000D01*
X1533757Y983000D02*
X1533771Y981800D01*
X1533814Y980601D01*
X1533886Y979403D01*
X1533986Y978207D01*
X1534115Y977014D01*
X1534272Y975824D01*
X1534457Y974638D01*
X1534671Y973458D01*
X1534913Y972282D01*
X1535183Y971113D01*
X1535480Y969950D01*
X1535806Y968795D01*
X1536159Y967648D01*
X1536539Y966510D01*
X1536946Y965381D01*
X1537380Y964262D01*
X1537840Y963154D01*
X1538327Y962057D01*
X1538840Y960972D01*
X1538841Y960972D02*
X1538943Y960685D01*
X1539053Y960400D01*
X1539169Y960118D01*
X1539292Y959839D01*
X1539422Y959563D01*
X1539558Y959291D01*
X1539701Y959021D01*
X1539851Y958755D01*
X1540007Y958493D01*
X1540169Y958235D01*
X1540338Y957981D01*
X1540513Y957731D01*
X1540693Y957485D01*
X1540880Y957244D01*
X1541073Y957008D01*
X1541271Y956776D01*
X1541475Y956549D01*
X1541684Y956327D01*
X1541898Y956110D01*
X1542118Y955899D01*
X1542343Y955693D01*
X1542573Y955492D01*
X1542807Y955297D01*
X1543047Y955108D01*
X1543290Y954925D01*
X1543539Y954748D01*
X1543791Y954577D01*
X1544047Y954412D01*
X1544308Y954253D01*
X1544572Y954100D01*
X1544840Y953955D01*
X1545111Y953815D01*
X1545386Y953683D01*
X1545664Y953557D01*
X1545944Y953438D01*
X1546228Y953325D01*
X1546514Y953220D01*
X1546803Y953122D01*
X1547094Y953030D01*
X1547387Y952946D01*
X1547682Y952869D01*
X1547979Y952799D01*
X1548277Y952737D01*
X1548577Y952681D01*
X1548879Y952633D01*
X1549181Y952593D01*
X1549484Y952559D01*
X1549788Y952533D01*
X1550092Y952515D01*
X1550397Y952504D01*
X1550702Y952500D01*
X1562563Y960972D02*
X1563076Y962057D01*
X1563563Y963154D01*
X1564023Y964262D01*
X1564457Y965381D01*
X1564864Y966510D01*
X1565244Y967648D01*
X1565597Y968795D01*
X1565923Y969950D01*
X1566220Y971113D01*
X1566490Y972282D01*
X1566732Y973458D01*
X1566946Y974638D01*
X1567131Y975824D01*
X1567288Y977014D01*
X1567417Y978207D01*
X1567517Y979403D01*
X1567589Y980601D01*
X1567632Y981800D01*
X1567646Y983000D01*
X1562563Y960972D02*
X1562461Y960685D01*
X1562351Y960400D01*
X1562235Y960118D01*
X1562112Y959839D01*
X1561982Y959563D01*
X1561846Y959291D01*
X1561703Y959021D01*
X1561553Y958756D01*
X1561397Y958494D01*
X1561235Y958235D01*
X1561066Y957981D01*
X1560891Y957731D01*
X1560711Y957486D01*
X1560524Y957244D01*
X1560331Y957008D01*
X1560133Y956776D01*
X1559930Y956549D01*
X1559720Y956327D01*
X1559506Y956110D01*
X1559286Y955899D01*
X1559061Y955693D01*
X1558831Y955492D01*
X1558597Y955297D01*
X1558358Y955108D01*
X1558114Y954925D01*
X1557866Y954748D01*
X1557613Y954577D01*
X1557357Y954412D01*
X1557096Y954253D01*
X1556832Y954101D01*
X1556564Y953955D01*
X1556293Y953815D01*
X1556018Y953683D01*
X1555740Y953557D01*
X1555460Y953438D01*
X1555176Y953325D01*
X1554890Y953220D01*
X1554601Y953122D01*
X1554310Y953030D01*
X1554017Y952946D01*
X1553722Y952869D01*
X1553425Y952799D01*
X1553127Y952737D01*
X1552827Y952681D01*
X1552525Y952633D01*
X1552223Y952593D01*
X1551920Y952559D01*
X1551616Y952533D01*
X1551312Y952515D01*
X1551007Y952504D01*
X1550702Y952500D01*
X1537146Y966055D02*
X1564258Y999944D01*
X1610923Y1013500D02*
X1611291Y1013496D01*
X1611660Y1013482D01*
X1612028Y1013460D01*
X1612395Y1013429D01*
X1612761Y1013389D01*
X1613126Y1013340D01*
X1613490Y1013282D01*
X1613853Y1013216D01*
X1614214Y1013141D01*
X1614573Y1013057D01*
X1614929Y1012964D01*
X1615284Y1012863D01*
X1615636Y1012754D01*
X1615985Y1012636D01*
X1616331Y1012509D01*
X1616674Y1012374D01*
X1617013Y1012231D01*
X1617349Y1012080D01*
X1617682Y1011921D01*
X1618010Y1011753D01*
X1618334Y1011578D01*
X1618654Y1011395D01*
X1618970Y1011204D01*
X1619280Y1011006D01*
X1619586Y1010801D01*
X1619887Y1010588D01*
X1620182Y1010367D01*
X1620472Y1010140D01*
X1620757Y1009906D01*
X1621036Y1009665D01*
X1621308Y1009417D01*
X1621575Y1009163D01*
X1621836Y1008902D01*
X1622090Y1008635D01*
X1622338Y1008363D01*
X1622579Y1008084D01*
X1622813Y1007799D01*
X1623040Y1007509D01*
X1623261Y1007214D01*
X1623474Y1006913D01*
X1623679Y1006607D01*
X1623877Y1006297D01*
X1624068Y1005981D01*
X1624251Y1005661D01*
X1624426Y1005337D01*
X1624594Y1005009D01*
X1624753Y1004676D01*
X1624904Y1004340D01*
X1625047Y1004001D01*
X1625182Y1003658D01*
X1625309Y1003312D01*
X1625427Y1002963D01*
X1625536Y1002611D01*
X1625637Y1002256D01*
X1625730Y1001900D01*
X1625814Y1001541D01*
X1625889Y1001180D01*
X1625955Y1000817D01*
X1626013Y1000453D01*
X1626062Y1000088D01*
X1626102Y999722D01*
X1626133Y999355D01*
X1626155Y998987D01*
X1626169Y998618D01*
X1626173Y998250D01*
X1610923Y1013500D02*
X1610449Y1013494D01*
X1609976Y1013477D01*
X1609503Y1013448D01*
X1609031Y1013408D01*
X1608560Y1013357D01*
X1608090Y1013294D01*
X1607622Y1013220D01*
X1607156Y1013134D01*
X1606692Y1013038D01*
X1606231Y1012930D01*
X1605772Y1012811D01*
X1605317Y1012681D01*
X1604864Y1012540D01*
X1604415Y1012388D01*
X1603970Y1012225D01*
X1603530Y1012051D01*
X1603093Y1011867D01*
X1602661Y1011673D01*
X1602234Y1011468D01*
X1601812Y1011252D01*
X1601395Y1011027D01*
X1600984Y1010792D01*
X1600578Y1010546D01*
X1600179Y1010291D01*
X1599786Y1010027D01*
X1599399Y1009753D01*
X1599020Y1009469D01*
X1598647Y1009177D01*
X1598281Y1008876D01*
X1597923Y1008566D01*
X1597572Y1008247D01*
X1597229Y1007920D01*
X1596895Y1007585D01*
X1596568Y1007241D01*
X1596250Y1006890D01*
X1595940Y1006532D01*
X1595639Y1006166D01*
X1595347Y1005793D01*
X1595064Y1005412D01*
X1594791Y1005026D01*
X1594527Y1004632D01*
X1594272Y1004233D01*
X1594027Y1003827D01*
X1593792Y1003415D01*
X1593568Y1002998D01*
X1593353Y1002576D01*
X1593148Y1002149D01*
X1592954Y1001716D01*
X1592771Y1001279D01*
X1592598Y1000838D01*
X1592435Y1000393D01*
X1592284Y999944D01*
X1621090Y986389D02*
X1621377Y986670D01*
X1621658Y986957D01*
X1621932Y987252D01*
X1622198Y987553D01*
X1622456Y987861D01*
X1622708Y988174D01*
X1622951Y988494D01*
X1623186Y988820D01*
X1623414Y989151D01*
X1623633Y989488D01*
X1623844Y989831D01*
X1624046Y990178D01*
X1624240Y990530D01*
X1624425Y990887D01*
X1624601Y991248D01*
X1624768Y991613D01*
X1624927Y991983D01*
X1625076Y992356D01*
X1625216Y992733D01*
X1625347Y993113D01*
X1625468Y993496D01*
X1625580Y993882D01*
X1625682Y994271D01*
X1625775Y994662D01*
X1625858Y995055D01*
X1625932Y995450D01*
X1625996Y995847D01*
X1626050Y996245D01*
X1626094Y996645D01*
X1626129Y997045D01*
X1626153Y997446D01*
X1626168Y997848D01*
X1626173Y998250D01*
X1621090Y986389D02*
X1592284Y952500D01*
X1626173Y952500D01*
X1650811Y999944D02*
X1667755Y1013500D01*
X1667755Y952500D01*
X1650811Y952500D02*
X1684699Y952500D01*
D11*
X48500Y659555D02*
X19500Y659555D01*
X19500Y651500D02*
X19500Y667611D01*
X19500Y551500D02*
X48500Y551500D01*
X19500Y551500D02*
X19500Y559555D01*
X19502Y559751D01*
X19510Y559947D01*
X19521Y560143D01*
X19538Y560339D01*
X19560Y560534D01*
X19586Y560728D01*
X19617Y560922D01*
X19652Y561115D01*
X19693Y561307D01*
X19738Y561498D01*
X19787Y561687D01*
X19842Y561876D01*
X19900Y562063D01*
X19964Y562249D01*
X20032Y562433D01*
X20104Y562615D01*
X20181Y562796D01*
X20262Y562974D01*
X20347Y563151D01*
X20437Y563326D01*
X20531Y563498D01*
X20629Y563668D01*
X20731Y563835D01*
X20837Y564000D01*
X20948Y564162D01*
X21062Y564322D01*
X21180Y564479D01*
X21301Y564632D01*
X21427Y564783D01*
X21556Y564931D01*
X21689Y565075D01*
X21825Y565217D01*
X21965Y565355D01*
X22107Y565489D01*
X22254Y565620D01*
X22403Y565747D01*
X22555Y565871D01*
X22710Y565991D01*
X22869Y566107D01*
X23029Y566219D01*
X23193Y566327D01*
X23359Y566432D01*
X23528Y566532D01*
X23699Y566628D01*
X23872Y566720D01*
X24048Y566807D01*
X24226Y566890D01*
X24405Y566969D01*
X24587Y567044D01*
X24770Y567114D01*
X24955Y567180D01*
X25141Y567241D01*
X25329Y567297D01*
X25518Y567349D01*
X25709Y567396D01*
X25900Y567439D01*
X26093Y567477D01*
X26286Y567510D01*
X26480Y567539D01*
X26675Y567563D01*
X26870Y567582D01*
X27066Y567596D01*
X27262Y567606D01*
X27458Y567610D01*
X27654Y567610D01*
X27850Y567606D01*
X28046Y567596D01*
X28242Y567582D01*
X28437Y567563D01*
X28632Y567539D01*
X28826Y567510D01*
X29019Y567477D01*
X29212Y567439D01*
X29403Y567396D01*
X29594Y567349D01*
X29783Y567297D01*
X29971Y567241D01*
X30157Y567180D01*
X30342Y567114D01*
X30525Y567044D01*
X30707Y566969D01*
X30886Y566890D01*
X31064Y566807D01*
X31240Y566720D01*
X31413Y566628D01*
X31584Y566532D01*
X31753Y566432D01*
X31919Y566327D01*
X32083Y566219D01*
X32243Y566107D01*
X32402Y565991D01*
X32557Y565871D01*
X32709Y565747D01*
X32858Y565620D01*
X33005Y565489D01*
X33147Y565355D01*
X33287Y565217D01*
X33423Y565075D01*
X33556Y564931D01*
X33685Y564783D01*
X33811Y564632D01*
X33932Y564479D01*
X34050Y564322D01*
X34164Y564162D01*
X34275Y564000D01*
X34381Y563835D01*
X34483Y563668D01*
X34581Y563498D01*
X34675Y563326D01*
X34765Y563151D01*
X34850Y562974D01*
X34931Y562796D01*
X35008Y562615D01*
X35080Y562433D01*
X35148Y562249D01*
X35212Y562063D01*
X35270Y561876D01*
X35325Y561687D01*
X35374Y561498D01*
X35419Y561307D01*
X35460Y561115D01*
X35495Y560922D01*
X35526Y560728D01*
X35552Y560534D01*
X35574Y560339D01*
X35591Y560143D01*
X35602Y559947D01*
X35610Y559751D01*
X35612Y559555D01*
X35611Y559555D02*
X35611Y551500D01*
X35611Y561167D02*
X48500Y567611D01*
X48500Y461167D02*
X19500Y451500D01*
X19500Y470833D02*
X48500Y461167D01*
X32389Y367611D02*
X32389Y362778D01*
X32389Y367611D02*
X48500Y367611D01*
X48500Y357944D01*
X48498Y357786D01*
X48492Y357628D01*
X48483Y357470D01*
X48469Y357312D01*
X48452Y357155D01*
X48430Y356998D01*
X48405Y356842D01*
X48376Y356687D01*
X48343Y356532D01*
X48307Y356378D01*
X48267Y356225D01*
X48223Y356073D01*
X48175Y355923D01*
X48123Y355773D01*
X48068Y355625D01*
X48009Y355478D01*
X47947Y355333D01*
X47881Y355189D01*
X47812Y355047D01*
X47739Y354906D01*
X47663Y354768D01*
X47583Y354631D01*
X47500Y354496D01*
X47414Y354364D01*
X47325Y354233D01*
X47232Y354105D01*
X47136Y353979D01*
X47037Y353856D01*
X46935Y353735D01*
X46831Y353616D01*
X46723Y353501D01*
X46613Y353387D01*
X46499Y353277D01*
X46384Y353169D01*
X46265Y353065D01*
X46144Y352963D01*
X46021Y352864D01*
X45895Y352768D01*
X45767Y352675D01*
X45636Y352586D01*
X45504Y352500D01*
X45369Y352417D01*
X45232Y352337D01*
X45094Y352261D01*
X44953Y352188D01*
X44811Y352119D01*
X44667Y352053D01*
X44522Y351991D01*
X44375Y351932D01*
X44227Y351877D01*
X44077Y351825D01*
X43927Y351777D01*
X43775Y351733D01*
X43622Y351693D01*
X43468Y351657D01*
X43313Y351624D01*
X43158Y351595D01*
X43002Y351570D01*
X42845Y351548D01*
X42688Y351531D01*
X42530Y351517D01*
X42372Y351508D01*
X42214Y351502D01*
X42056Y351500D01*
X25945Y351500D01*
X25787Y351502D01*
X25629Y351508D01*
X25471Y351517D01*
X25313Y351531D01*
X25156Y351548D01*
X24999Y351570D01*
X24843Y351595D01*
X24688Y351624D01*
X24533Y351657D01*
X24379Y351693D01*
X24226Y351733D01*
X24074Y351778D01*
X23923Y351825D01*
X23774Y351877D01*
X23626Y351932D01*
X23479Y351991D01*
X23333Y352053D01*
X23189Y352119D01*
X23047Y352188D01*
X22907Y352261D01*
X22768Y352337D01*
X22632Y352417D01*
X22497Y352500D01*
X22364Y352586D01*
X22234Y352676D01*
X22106Y352768D01*
X21980Y352864D01*
X21856Y352963D01*
X21735Y353065D01*
X21617Y353169D01*
X21501Y353277D01*
X21388Y353388D01*
X21277Y353501D01*
X21170Y353617D01*
X21065Y353735D01*
X20963Y353856D01*
X20864Y353980D01*
X20768Y354106D01*
X20676Y354234D01*
X20586Y354364D01*
X20500Y354497D01*
X20417Y354631D01*
X20337Y354768D01*
X20261Y354907D01*
X20188Y355047D01*
X20119Y355189D01*
X20053Y355333D01*
X19991Y355478D01*
X19932Y355625D01*
X19877Y355774D01*
X19825Y355923D01*
X19778Y356074D01*
X19734Y356226D01*
X19693Y356379D01*
X19657Y356533D01*
X19624Y356687D01*
X19595Y356843D01*
X19570Y356999D01*
X19548Y357156D01*
X19531Y357313D01*
X19517Y357471D01*
X19508Y357629D01*
X19502Y357787D01*
X19500Y357945D01*
X19500Y357944D02*
X19500Y367611D01*
D12*
X49000Y955889D02*
X49000Y960778D01*
X49000Y955889D02*
X48998Y955752D01*
X48992Y955615D01*
X48983Y955478D01*
X48969Y955342D01*
X48952Y955206D01*
X48931Y955070D01*
X48906Y954935D01*
X48877Y954801D01*
X48845Y954668D01*
X48809Y954536D01*
X48769Y954404D01*
X48726Y954274D01*
X48679Y954145D01*
X48628Y954018D01*
X48574Y953892D01*
X48516Y953768D01*
X48455Y953645D01*
X48390Y953524D01*
X48322Y953405D01*
X48251Y953288D01*
X48176Y953173D01*
X48098Y953060D01*
X48017Y952949D01*
X47933Y952841D01*
X47846Y952735D01*
X47756Y952631D01*
X47664Y952530D01*
X47568Y952432D01*
X47470Y952336D01*
X47369Y952244D01*
X47265Y952154D01*
X47159Y952067D01*
X47051Y951983D01*
X46940Y951902D01*
X46827Y951824D01*
X46712Y951749D01*
X46595Y951678D01*
X46476Y951610D01*
X46355Y951545D01*
X46232Y951484D01*
X46108Y951426D01*
X45982Y951372D01*
X45855Y951321D01*
X45726Y951274D01*
X45596Y951231D01*
X45464Y951191D01*
X45332Y951155D01*
X45199Y951123D01*
X45065Y951094D01*
X44930Y951069D01*
X44794Y951048D01*
X44658Y951031D01*
X44522Y951017D01*
X44385Y951008D01*
X44248Y951002D01*
X44111Y951000D01*
X31889Y951000D01*
X31749Y951002D01*
X31610Y951008D01*
X31471Y951018D01*
X31332Y951032D01*
X31193Y951050D01*
X31055Y951072D01*
X30918Y951097D01*
X30782Y951127D01*
X30646Y951161D01*
X30512Y951198D01*
X30378Y951239D01*
X30246Y951284D01*
X30115Y951333D01*
X29986Y951386D01*
X29858Y951442D01*
X29732Y951502D01*
X29608Y951565D01*
X29485Y951632D01*
X29364Y951702D01*
X29246Y951776D01*
X29130Y951853D01*
X29015Y951934D01*
X28904Y952017D01*
X28794Y952104D01*
X28687Y952194D01*
X28583Y952287D01*
X28482Y952383D01*
X28383Y952482D01*
X28287Y952583D01*
X28194Y952687D01*
X28104Y952794D01*
X28017Y952903D01*
X27934Y953015D01*
X27853Y953129D01*
X27776Y953246D01*
X27702Y953364D01*
X27632Y953485D01*
X27565Y953607D01*
X27502Y953732D01*
X27442Y953858D01*
X27386Y953986D01*
X27333Y954115D01*
X27284Y954246D01*
X27239Y954378D01*
X27198Y954511D01*
X27161Y954646D01*
X27127Y954781D01*
X27097Y954918D01*
X27072Y955055D01*
X27050Y955193D01*
X27032Y955331D01*
X27018Y955470D01*
X27008Y955610D01*
X27002Y955749D01*
X27000Y955889D01*
X27000Y960778D01*
X27000Y969827D02*
X49000Y969827D01*
X49000Y979605D01*
X49000Y988830D02*
X27000Y988830D01*
X27000Y1001052D02*
X40445Y988830D01*
X35556Y993719D02*
X49000Y1001052D01*
X44111Y813222D02*
X44248Y813220D01*
X44385Y813214D01*
X44522Y813205D01*
X44658Y813191D01*
X44794Y813174D01*
X44930Y813153D01*
X45065Y813128D01*
X45199Y813099D01*
X45332Y813067D01*
X45464Y813031D01*
X45596Y812991D01*
X45726Y812948D01*
X45855Y812901D01*
X45982Y812850D01*
X46108Y812796D01*
X46232Y812738D01*
X46355Y812677D01*
X46476Y812612D01*
X46595Y812544D01*
X46712Y812473D01*
X46827Y812398D01*
X46940Y812320D01*
X47051Y812239D01*
X47159Y812155D01*
X47265Y812068D01*
X47369Y811978D01*
X47470Y811886D01*
X47568Y811790D01*
X47664Y811692D01*
X47756Y811591D01*
X47846Y811487D01*
X47933Y811381D01*
X48017Y811273D01*
X48098Y811162D01*
X48176Y811049D01*
X48251Y810934D01*
X48322Y810817D01*
X48390Y810698D01*
X48455Y810577D01*
X48516Y810454D01*
X48574Y810330D01*
X48628Y810204D01*
X48679Y810077D01*
X48726Y809948D01*
X48769Y809818D01*
X48809Y809686D01*
X48845Y809554D01*
X48877Y809421D01*
X48906Y809287D01*
X48931Y809152D01*
X48952Y809016D01*
X48969Y808880D01*
X48983Y808744D01*
X48992Y808607D01*
X48998Y808470D01*
X49000Y808333D01*
X48997Y808086D01*
X48988Y807839D01*
X48973Y807592D01*
X48953Y807346D01*
X48926Y807100D01*
X48894Y806855D01*
X48855Y806611D01*
X48811Y806368D01*
X48761Y806126D01*
X48706Y805885D01*
X48644Y805646D01*
X48577Y805408D01*
X48504Y805172D01*
X48426Y804938D01*
X48342Y804705D01*
X48252Y804475D01*
X48157Y804247D01*
X48057Y804021D01*
X47951Y803798D01*
X47840Y803577D01*
X47724Y803359D01*
X47602Y803144D01*
X47475Y802932D01*
X47344Y802723D01*
X47207Y802517D01*
X47065Y802315D01*
X46919Y802116D01*
X46768Y801920D01*
X46612Y801728D01*
X46452Y801540D01*
X46287Y801356D01*
X46118Y801176D01*
X45945Y801000D01*
X31889Y801611D02*
X31752Y801613D01*
X31615Y801619D01*
X31478Y801628D01*
X31342Y801642D01*
X31206Y801659D01*
X31070Y801680D01*
X30935Y801705D01*
X30801Y801734D01*
X30668Y801766D01*
X30536Y801802D01*
X30404Y801842D01*
X30274Y801885D01*
X30145Y801932D01*
X30018Y801983D01*
X29892Y802037D01*
X29768Y802095D01*
X29645Y802156D01*
X29524Y802221D01*
X29405Y802289D01*
X29288Y802360D01*
X29173Y802435D01*
X29060Y802513D01*
X28949Y802594D01*
X28841Y802678D01*
X28735Y802765D01*
X28631Y802855D01*
X28530Y802947D01*
X28432Y803043D01*
X28336Y803141D01*
X28244Y803242D01*
X28154Y803346D01*
X28067Y803452D01*
X27983Y803560D01*
X27902Y803671D01*
X27824Y803784D01*
X27749Y803899D01*
X27678Y804016D01*
X27610Y804135D01*
X27545Y804256D01*
X27484Y804379D01*
X27426Y804503D01*
X27372Y804629D01*
X27321Y804756D01*
X27274Y804885D01*
X27231Y805015D01*
X27191Y805147D01*
X27155Y805279D01*
X27123Y805412D01*
X27094Y805546D01*
X27069Y805681D01*
X27048Y805817D01*
X27031Y805953D01*
X27017Y806089D01*
X27008Y806226D01*
X27002Y806363D01*
X27000Y806500D01*
X27003Y806718D01*
X27010Y806937D01*
X27023Y807155D01*
X27042Y807373D01*
X27065Y807590D01*
X27094Y807806D01*
X27127Y808022D01*
X27166Y808237D01*
X27210Y808451D01*
X27259Y808664D01*
X27313Y808876D01*
X27372Y809086D01*
X27436Y809295D01*
X27506Y809502D01*
X27580Y809708D01*
X27658Y809911D01*
X27742Y810113D01*
X27831Y810313D01*
X27924Y810510D01*
X28022Y810706D01*
X28124Y810899D01*
X28231Y811089D01*
X28343Y811277D01*
X28459Y811462D01*
X28580Y811644D01*
X28704Y811823D01*
X28833Y812000D01*
X36166Y804056D02*
X36094Y803937D01*
X36018Y803820D01*
X35939Y803705D01*
X35857Y803593D01*
X35772Y803483D01*
X35684Y803375D01*
X35592Y803270D01*
X35498Y803167D01*
X35401Y803067D01*
X35301Y802970D01*
X35198Y802876D01*
X35093Y802784D01*
X34986Y802696D01*
X34876Y802611D01*
X34763Y802528D01*
X34648Y802449D01*
X34531Y802374D01*
X34412Y802301D01*
X34292Y802232D01*
X34169Y802166D01*
X34044Y802104D01*
X33918Y802045D01*
X33790Y801990D01*
X33660Y801939D01*
X33529Y801891D01*
X33397Y801847D01*
X33264Y801806D01*
X33130Y801769D01*
X32994Y801737D01*
X32858Y801707D01*
X32721Y801682D01*
X32583Y801661D01*
X32445Y801643D01*
X32306Y801630D01*
X32168Y801620D01*
X32028Y801614D01*
X31889Y801612D01*
X39833Y810778D02*
X39906Y810897D01*
X39982Y811014D01*
X40061Y811128D01*
X40143Y811241D01*
X40228Y811351D01*
X40316Y811459D01*
X40408Y811564D01*
X40502Y811667D01*
X40599Y811767D01*
X40699Y811864D01*
X40801Y811958D01*
X40907Y812049D01*
X41014Y812138D01*
X41124Y812223D01*
X41237Y812305D01*
X41352Y812385D01*
X41468Y812460D01*
X41587Y812533D01*
X41708Y812602D01*
X41831Y812668D01*
X41956Y812730D01*
X42082Y812789D01*
X42210Y812844D01*
X42340Y812895D01*
X42470Y812943D01*
X42603Y812987D01*
X42736Y813028D01*
X42870Y813064D01*
X43006Y813097D01*
X43142Y813127D01*
X43279Y813152D01*
X43417Y813173D01*
X43555Y813191D01*
X43694Y813204D01*
X43832Y813214D01*
X43972Y813220D01*
X44111Y813222D01*
X39833Y810778D02*
X36167Y804055D01*
X27000Y822600D02*
X49000Y822600D01*
X27000Y822600D02*
X27000Y828711D01*
X27002Y828866D01*
X27008Y829021D01*
X27018Y829175D01*
X27031Y829329D01*
X27049Y829483D01*
X27070Y829636D01*
X27096Y829789D01*
X27125Y829941D01*
X27158Y830092D01*
X27195Y830243D01*
X27236Y830392D01*
X27280Y830540D01*
X27328Y830688D01*
X27380Y830833D01*
X27436Y830978D01*
X27495Y831121D01*
X27558Y831262D01*
X27625Y831402D01*
X27694Y831540D01*
X27768Y831677D01*
X27845Y831811D01*
X27925Y831944D01*
X28009Y832074D01*
X28095Y832202D01*
X28185Y832328D01*
X28279Y832452D01*
X28375Y832573D01*
X28474Y832692D01*
X28577Y832808D01*
X28682Y832921D01*
X28790Y833032D01*
X28901Y833140D01*
X29014Y833245D01*
X29131Y833348D01*
X29249Y833447D01*
X29370Y833543D01*
X29494Y833637D01*
X29620Y833727D01*
X29748Y833814D01*
X29879Y833897D01*
X30011Y833977D01*
X30145Y834054D01*
X30282Y834128D01*
X30420Y834198D01*
X30560Y834264D01*
X30701Y834327D01*
X30844Y834386D01*
X30989Y834442D01*
X31135Y834494D01*
X31282Y834542D01*
X31430Y834586D01*
X31579Y834627D01*
X31730Y834664D01*
X31881Y834697D01*
X32033Y834726D01*
X32186Y834752D01*
X32339Y834773D01*
X32493Y834791D01*
X32647Y834804D01*
X32802Y834814D01*
X32956Y834820D01*
X33111Y834822D01*
X42889Y834822D01*
X43044Y834820D01*
X43199Y834814D01*
X43353Y834804D01*
X43507Y834791D01*
X43661Y834773D01*
X43814Y834752D01*
X43967Y834726D01*
X44119Y834697D01*
X44270Y834664D01*
X44421Y834627D01*
X44570Y834586D01*
X44718Y834542D01*
X44866Y834494D01*
X45011Y834442D01*
X45156Y834386D01*
X45299Y834327D01*
X45440Y834264D01*
X45580Y834197D01*
X45718Y834128D01*
X45855Y834054D01*
X45989Y833977D01*
X46121Y833897D01*
X46252Y833814D01*
X46380Y833727D01*
X46506Y833637D01*
X46630Y833543D01*
X46751Y833447D01*
X46870Y833348D01*
X46986Y833245D01*
X47099Y833140D01*
X47210Y833032D01*
X47318Y832921D01*
X47423Y832808D01*
X47526Y832692D01*
X47625Y832573D01*
X47721Y832452D01*
X47815Y832328D01*
X47905Y832202D01*
X47992Y832074D01*
X48075Y831943D01*
X48155Y831811D01*
X48232Y831677D01*
X48306Y831540D01*
X48375Y831402D01*
X48442Y831262D01*
X48505Y831121D01*
X48564Y830978D01*
X48620Y830833D01*
X48672Y830688D01*
X48720Y830540D01*
X48764Y830392D01*
X48805Y830243D01*
X48842Y830092D01*
X48875Y829941D01*
X48904Y829789D01*
X48930Y829636D01*
X48951Y829483D01*
X48969Y829329D01*
X48982Y829175D01*
X48992Y829021D01*
X48998Y828866D01*
X49000Y828711D01*
X49000Y822600D01*
X49000Y843698D02*
X27000Y851031D01*
X49000Y858364D01*
X43500Y856531D02*
X43500Y845531D01*
X401000Y73000D02*
X401000Y51000D01*
X408333Y60778D02*
X401000Y73000D01*
X408333Y60778D02*
X415667Y73000D01*
X415667Y51000D01*
X427773Y51000D02*
X427773Y73000D01*
X425329Y51000D02*
X430218Y51000D01*
X430218Y73000D02*
X425329Y73000D01*
X445555Y51000D02*
X445692Y51002D01*
X445829Y51008D01*
X445966Y51017D01*
X446102Y51031D01*
X446238Y51048D01*
X446374Y51069D01*
X446509Y51094D01*
X446643Y51123D01*
X446776Y51155D01*
X446908Y51191D01*
X447040Y51231D01*
X447170Y51274D01*
X447299Y51321D01*
X447426Y51372D01*
X447552Y51426D01*
X447676Y51484D01*
X447799Y51545D01*
X447920Y51610D01*
X448039Y51678D01*
X448156Y51749D01*
X448271Y51824D01*
X448384Y51902D01*
X448495Y51983D01*
X448603Y52067D01*
X448709Y52154D01*
X448813Y52244D01*
X448914Y52336D01*
X449012Y52432D01*
X449108Y52530D01*
X449200Y52631D01*
X449290Y52735D01*
X449377Y52841D01*
X449461Y52949D01*
X449542Y53060D01*
X449620Y53173D01*
X449695Y53288D01*
X449766Y53405D01*
X449834Y53524D01*
X449899Y53645D01*
X449960Y53768D01*
X450018Y53892D01*
X450072Y54018D01*
X450123Y54145D01*
X450170Y54274D01*
X450213Y54404D01*
X450253Y54536D01*
X450289Y54668D01*
X450321Y54801D01*
X450350Y54935D01*
X450375Y55070D01*
X450396Y55206D01*
X450413Y55342D01*
X450427Y55478D01*
X450436Y55615D01*
X450442Y55752D01*
X450444Y55889D01*
X445555Y51000D02*
X445308Y51003D01*
X445061Y51012D01*
X444814Y51027D01*
X444568Y51047D01*
X444322Y51074D01*
X444077Y51106D01*
X443833Y51145D01*
X443590Y51189D01*
X443348Y51239D01*
X443107Y51294D01*
X442868Y51356D01*
X442630Y51423D01*
X442394Y51496D01*
X442160Y51574D01*
X441927Y51658D01*
X441697Y51748D01*
X441469Y51843D01*
X441243Y51943D01*
X441020Y52049D01*
X440799Y52160D01*
X440581Y52276D01*
X440366Y52398D01*
X440154Y52525D01*
X439945Y52657D01*
X439739Y52793D01*
X439537Y52935D01*
X439337Y53081D01*
X439142Y53232D01*
X438950Y53388D01*
X438762Y53548D01*
X438578Y53713D01*
X438398Y53882D01*
X438222Y54056D01*
X438833Y68111D02*
X438835Y68248D01*
X438841Y68385D01*
X438850Y68522D01*
X438864Y68658D01*
X438881Y68794D01*
X438902Y68930D01*
X438927Y69065D01*
X438956Y69199D01*
X438988Y69332D01*
X439024Y69464D01*
X439064Y69596D01*
X439107Y69726D01*
X439154Y69855D01*
X439205Y69982D01*
X439259Y70108D01*
X439317Y70232D01*
X439378Y70355D01*
X439443Y70476D01*
X439511Y70595D01*
X439582Y70712D01*
X439657Y70827D01*
X439735Y70940D01*
X439816Y71051D01*
X439900Y71159D01*
X439987Y71265D01*
X440077Y71369D01*
X440169Y71470D01*
X440265Y71568D01*
X440363Y71664D01*
X440464Y71756D01*
X440568Y71846D01*
X440674Y71933D01*
X440782Y72017D01*
X440893Y72098D01*
X441006Y72176D01*
X441121Y72251D01*
X441238Y72322D01*
X441357Y72390D01*
X441478Y72455D01*
X441601Y72516D01*
X441725Y72574D01*
X441851Y72628D01*
X441979Y72679D01*
X442107Y72726D01*
X442237Y72769D01*
X442369Y72809D01*
X442501Y72845D01*
X442634Y72877D01*
X442768Y72906D01*
X442903Y72931D01*
X443039Y72952D01*
X443175Y72969D01*
X443311Y72983D01*
X443448Y72992D01*
X443585Y72998D01*
X443722Y73000D01*
X443941Y72997D01*
X444159Y72990D01*
X444377Y72977D01*
X444595Y72958D01*
X444812Y72935D01*
X445029Y72906D01*
X445244Y72873D01*
X445459Y72834D01*
X445673Y72790D01*
X445886Y72741D01*
X446098Y72687D01*
X446308Y72628D01*
X446517Y72563D01*
X446724Y72494D01*
X446930Y72420D01*
X447134Y72341D01*
X447335Y72258D01*
X447535Y72169D01*
X447733Y72076D01*
X447928Y71978D01*
X448121Y71876D01*
X448311Y71768D01*
X448499Y71657D01*
X448684Y71541D01*
X448867Y71420D01*
X449046Y71296D01*
X449222Y71167D01*
X441278Y63834D02*
X441159Y63906D01*
X441042Y63982D01*
X440927Y64061D01*
X440815Y64143D01*
X440705Y64228D01*
X440597Y64316D01*
X440492Y64408D01*
X440389Y64502D01*
X440289Y64599D01*
X440192Y64699D01*
X440098Y64802D01*
X440006Y64907D01*
X439918Y65014D01*
X439833Y65124D01*
X439750Y65237D01*
X439671Y65352D01*
X439596Y65469D01*
X439523Y65588D01*
X439454Y65708D01*
X439388Y65831D01*
X439326Y65956D01*
X439267Y66082D01*
X439212Y66210D01*
X439161Y66340D01*
X439113Y66471D01*
X439069Y66603D01*
X439028Y66736D01*
X438991Y66870D01*
X438959Y67006D01*
X438929Y67142D01*
X438904Y67279D01*
X438883Y67417D01*
X438865Y67555D01*
X438852Y67694D01*
X438842Y67832D01*
X438836Y67972D01*
X438834Y68111D01*
X448000Y60167D02*
X448119Y60094D01*
X448236Y60018D01*
X448350Y59939D01*
X448463Y59857D01*
X448573Y59772D01*
X448681Y59684D01*
X448786Y59592D01*
X448889Y59498D01*
X448989Y59401D01*
X449086Y59301D01*
X449180Y59199D01*
X449271Y59093D01*
X449360Y58986D01*
X449445Y58876D01*
X449527Y58763D01*
X449607Y58648D01*
X449682Y58532D01*
X449755Y58413D01*
X449824Y58292D01*
X449890Y58169D01*
X449952Y58044D01*
X450011Y57918D01*
X450066Y57790D01*
X450117Y57660D01*
X450165Y57530D01*
X450209Y57397D01*
X450250Y57264D01*
X450286Y57130D01*
X450319Y56994D01*
X450349Y56858D01*
X450374Y56721D01*
X450395Y56583D01*
X450413Y56445D01*
X450426Y56306D01*
X450436Y56168D01*
X450442Y56028D01*
X450444Y55889D01*
X448000Y60167D02*
X441278Y63833D01*
X459102Y66889D02*
X459102Y57111D01*
X459102Y66889D02*
X459104Y67044D01*
X459110Y67199D01*
X459120Y67353D01*
X459133Y67507D01*
X459151Y67661D01*
X459172Y67814D01*
X459198Y67967D01*
X459227Y68119D01*
X459260Y68270D01*
X459297Y68421D01*
X459338Y68570D01*
X459382Y68718D01*
X459430Y68866D01*
X459482Y69011D01*
X459538Y69156D01*
X459597Y69299D01*
X459660Y69440D01*
X459727Y69580D01*
X459796Y69718D01*
X459870Y69855D01*
X459947Y69989D01*
X460027Y70121D01*
X460110Y70252D01*
X460197Y70380D01*
X460287Y70506D01*
X460381Y70630D01*
X460477Y70751D01*
X460576Y70870D01*
X460679Y70986D01*
X460784Y71099D01*
X460892Y71210D01*
X461003Y71318D01*
X461116Y71423D01*
X461232Y71526D01*
X461351Y71625D01*
X461472Y71721D01*
X461596Y71815D01*
X461722Y71905D01*
X461850Y71992D01*
X461981Y72075D01*
X462113Y72155D01*
X462247Y72232D01*
X462384Y72306D01*
X462522Y72375D01*
X462662Y72442D01*
X462803Y72505D01*
X462946Y72564D01*
X463091Y72620D01*
X463236Y72672D01*
X463384Y72720D01*
X463532Y72764D01*
X463681Y72805D01*
X463832Y72842D01*
X463983Y72875D01*
X464135Y72904D01*
X464288Y72930D01*
X464441Y72951D01*
X464595Y72969D01*
X464749Y72982D01*
X464903Y72992D01*
X465058Y72998D01*
X465213Y73000D01*
X465368Y72998D01*
X465523Y72992D01*
X465677Y72982D01*
X465831Y72969D01*
X465985Y72951D01*
X466138Y72930D01*
X466291Y72904D01*
X466443Y72875D01*
X466594Y72842D01*
X466745Y72805D01*
X466894Y72764D01*
X467042Y72720D01*
X467190Y72672D01*
X467335Y72620D01*
X467480Y72564D01*
X467623Y72505D01*
X467764Y72442D01*
X467904Y72375D01*
X468042Y72306D01*
X468179Y72232D01*
X468313Y72155D01*
X468445Y72075D01*
X468576Y71992D01*
X468704Y71905D01*
X468830Y71815D01*
X468954Y71721D01*
X469075Y71625D01*
X469194Y71526D01*
X469310Y71423D01*
X469423Y71318D01*
X469534Y71210D01*
X469642Y71099D01*
X469747Y70986D01*
X469850Y70870D01*
X469949Y70751D01*
X470045Y70630D01*
X470139Y70506D01*
X470229Y70380D01*
X470316Y70252D01*
X470399Y70121D01*
X470479Y69989D01*
X470556Y69855D01*
X470630Y69718D01*
X470699Y69580D01*
X470766Y69440D01*
X470829Y69299D01*
X470888Y69156D01*
X470944Y69011D01*
X470996Y68866D01*
X471044Y68718D01*
X471088Y68570D01*
X471129Y68421D01*
X471166Y68270D01*
X471199Y68119D01*
X471228Y67967D01*
X471254Y67814D01*
X471275Y67661D01*
X471293Y67507D01*
X471306Y67353D01*
X471316Y67199D01*
X471322Y67044D01*
X471324Y66889D01*
X471324Y57111D01*
X471322Y56956D01*
X471316Y56801D01*
X471306Y56647D01*
X471293Y56493D01*
X471275Y56339D01*
X471254Y56186D01*
X471228Y56033D01*
X471199Y55881D01*
X471166Y55730D01*
X471129Y55579D01*
X471088Y55430D01*
X471044Y55282D01*
X470996Y55134D01*
X470944Y54989D01*
X470888Y54844D01*
X470829Y54701D01*
X470766Y54560D01*
X470699Y54420D01*
X470630Y54282D01*
X470556Y54145D01*
X470479Y54011D01*
X470399Y53879D01*
X470316Y53748D01*
X470229Y53620D01*
X470139Y53494D01*
X470045Y53370D01*
X469949Y53249D01*
X469850Y53130D01*
X469747Y53014D01*
X469642Y52901D01*
X469534Y52790D01*
X469423Y52682D01*
X469310Y52577D01*
X469194Y52474D01*
X469075Y52375D01*
X468954Y52279D01*
X468830Y52185D01*
X468704Y52095D01*
X468576Y52008D01*
X468445Y51925D01*
X468313Y51845D01*
X468179Y51768D01*
X468042Y51694D01*
X467904Y51625D01*
X467764Y51558D01*
X467623Y51495D01*
X467480Y51436D01*
X467335Y51380D01*
X467190Y51328D01*
X467042Y51280D01*
X466894Y51236D01*
X466745Y51195D01*
X466594Y51158D01*
X466443Y51125D01*
X466291Y51096D01*
X466138Y51070D01*
X465985Y51049D01*
X465831Y51031D01*
X465677Y51018D01*
X465523Y51008D01*
X465368Y51002D01*
X465213Y51000D01*
X465058Y51002D01*
X464903Y51008D01*
X464749Y51018D01*
X464595Y51031D01*
X464441Y51049D01*
X464288Y51070D01*
X464135Y51096D01*
X463983Y51125D01*
X463832Y51158D01*
X463681Y51195D01*
X463532Y51236D01*
X463384Y51280D01*
X463236Y51328D01*
X463091Y51380D01*
X462946Y51436D01*
X462803Y51495D01*
X462662Y51558D01*
X462522Y51625D01*
X462384Y51694D01*
X462247Y51768D01*
X462113Y51845D01*
X461981Y51925D01*
X461850Y52008D01*
X461722Y52095D01*
X461596Y52185D01*
X461472Y52279D01*
X461351Y52375D01*
X461232Y52474D01*
X461116Y52577D01*
X461003Y52682D01*
X460892Y52790D01*
X460784Y52901D01*
X460679Y53014D01*
X460576Y53130D01*
X460477Y53249D01*
X460381Y53370D01*
X460287Y53494D01*
X460197Y53620D01*
X460110Y53748D01*
X460027Y53879D01*
X459947Y54011D01*
X459870Y54145D01*
X459796Y54282D01*
X459727Y54420D01*
X459660Y54560D01*
X459597Y54701D01*
X459538Y54844D01*
X459482Y54989D01*
X459430Y55134D01*
X459382Y55282D01*
X459338Y55430D01*
X459297Y55579D01*
X459260Y55730D01*
X459227Y55881D01*
X459198Y56033D01*
X459172Y56186D01*
X459151Y56339D01*
X459133Y56493D01*
X459120Y56647D01*
X459110Y56801D01*
X459104Y56956D01*
X459102Y57111D01*
X501000Y51000D02*
X501000Y73000D01*
X508333Y60778D01*
X515667Y73000D01*
X515667Y51000D01*
X525982Y57111D02*
X525982Y66889D01*
X525984Y67044D01*
X525990Y67199D01*
X526000Y67353D01*
X526013Y67507D01*
X526031Y67661D01*
X526052Y67814D01*
X526078Y67967D01*
X526107Y68119D01*
X526140Y68270D01*
X526177Y68421D01*
X526218Y68570D01*
X526262Y68718D01*
X526310Y68866D01*
X526362Y69011D01*
X526418Y69156D01*
X526477Y69299D01*
X526540Y69440D01*
X526607Y69580D01*
X526676Y69718D01*
X526750Y69855D01*
X526827Y69989D01*
X526907Y70121D01*
X526990Y70252D01*
X527077Y70380D01*
X527167Y70506D01*
X527261Y70630D01*
X527357Y70751D01*
X527456Y70870D01*
X527559Y70986D01*
X527664Y71099D01*
X527772Y71210D01*
X527883Y71318D01*
X527996Y71423D01*
X528112Y71526D01*
X528231Y71625D01*
X528352Y71721D01*
X528476Y71815D01*
X528602Y71905D01*
X528730Y71992D01*
X528861Y72075D01*
X528993Y72155D01*
X529127Y72232D01*
X529264Y72306D01*
X529402Y72375D01*
X529542Y72442D01*
X529683Y72505D01*
X529826Y72564D01*
X529971Y72620D01*
X530116Y72672D01*
X530264Y72720D01*
X530412Y72764D01*
X530561Y72805D01*
X530712Y72842D01*
X530863Y72875D01*
X531015Y72904D01*
X531168Y72930D01*
X531321Y72951D01*
X531475Y72969D01*
X531629Y72982D01*
X531783Y72992D01*
X531938Y72998D01*
X532093Y73000D01*
X532248Y72998D01*
X532403Y72992D01*
X532557Y72982D01*
X532711Y72969D01*
X532865Y72951D01*
X533018Y72930D01*
X533171Y72904D01*
X533323Y72875D01*
X533474Y72842D01*
X533625Y72805D01*
X533774Y72764D01*
X533922Y72720D01*
X534070Y72672D01*
X534215Y72620D01*
X534360Y72564D01*
X534503Y72505D01*
X534644Y72442D01*
X534784Y72375D01*
X534922Y72306D01*
X535059Y72232D01*
X535193Y72155D01*
X535325Y72075D01*
X535456Y71992D01*
X535584Y71905D01*
X535710Y71815D01*
X535834Y71721D01*
X535955Y71625D01*
X536074Y71526D01*
X536190Y71423D01*
X536303Y71318D01*
X536414Y71210D01*
X536522Y71099D01*
X536627Y70986D01*
X536730Y70870D01*
X536829Y70751D01*
X536925Y70630D01*
X537019Y70506D01*
X537109Y70380D01*
X537196Y70252D01*
X537279Y70121D01*
X537359Y69989D01*
X537436Y69855D01*
X537510Y69718D01*
X537579Y69580D01*
X537646Y69440D01*
X537709Y69299D01*
X537768Y69156D01*
X537824Y69011D01*
X537876Y68866D01*
X537924Y68718D01*
X537968Y68570D01*
X538009Y68421D01*
X538046Y68270D01*
X538079Y68119D01*
X538108Y67967D01*
X538134Y67814D01*
X538155Y67661D01*
X538173Y67507D01*
X538186Y67353D01*
X538196Y67199D01*
X538202Y67044D01*
X538204Y66889D01*
X538204Y57111D01*
X538202Y56956D01*
X538196Y56801D01*
X538186Y56647D01*
X538173Y56493D01*
X538155Y56339D01*
X538134Y56186D01*
X538108Y56033D01*
X538079Y55881D01*
X538046Y55730D01*
X538009Y55579D01*
X537968Y55430D01*
X537924Y55282D01*
X537876Y55134D01*
X537824Y54989D01*
X537768Y54844D01*
X537709Y54701D01*
X537646Y54560D01*
X537579Y54420D01*
X537510Y54282D01*
X537436Y54145D01*
X537359Y54011D01*
X537279Y53879D01*
X537196Y53748D01*
X537109Y53620D01*
X537019Y53494D01*
X536925Y53370D01*
X536829Y53249D01*
X536730Y53130D01*
X536627Y53014D01*
X536522Y52901D01*
X536414Y52790D01*
X536303Y52682D01*
X536190Y52577D01*
X536074Y52474D01*
X535955Y52375D01*
X535834Y52279D01*
X535710Y52185D01*
X535584Y52095D01*
X535456Y52008D01*
X535325Y51925D01*
X535193Y51845D01*
X535059Y51768D01*
X534922Y51694D01*
X534784Y51625D01*
X534644Y51558D01*
X534503Y51495D01*
X534360Y51436D01*
X534215Y51380D01*
X534070Y51328D01*
X533922Y51280D01*
X533774Y51236D01*
X533625Y51195D01*
X533474Y51158D01*
X533323Y51125D01*
X533171Y51096D01*
X533018Y51070D01*
X532865Y51049D01*
X532711Y51031D01*
X532557Y51018D01*
X532403Y51008D01*
X532248Y51002D01*
X532093Y51000D01*
X531938Y51002D01*
X531783Y51008D01*
X531629Y51018D01*
X531475Y51031D01*
X531321Y51049D01*
X531168Y51070D01*
X531015Y51096D01*
X530863Y51125D01*
X530712Y51158D01*
X530561Y51195D01*
X530412Y51236D01*
X530264Y51280D01*
X530116Y51328D01*
X529971Y51380D01*
X529826Y51436D01*
X529683Y51495D01*
X529542Y51558D01*
X529402Y51625D01*
X529264Y51694D01*
X529127Y51768D01*
X528993Y51845D01*
X528861Y51925D01*
X528730Y52008D01*
X528602Y52095D01*
X528476Y52185D01*
X528352Y52279D01*
X528231Y52375D01*
X528112Y52474D01*
X527996Y52577D01*
X527883Y52682D01*
X527772Y52790D01*
X527664Y52901D01*
X527559Y53014D01*
X527456Y53130D01*
X527357Y53249D01*
X527261Y53370D01*
X527167Y53494D01*
X527077Y53620D01*
X526990Y53748D01*
X526907Y53879D01*
X526827Y54011D01*
X526750Y54145D01*
X526676Y54282D01*
X526607Y54420D01*
X526540Y54560D01*
X526477Y54701D01*
X526418Y54844D01*
X526362Y54989D01*
X526310Y55134D01*
X526262Y55282D01*
X526218Y55430D01*
X526177Y55579D01*
X526140Y55730D01*
X526107Y55881D01*
X526078Y56033D01*
X526052Y56186D01*
X526031Y56339D01*
X526013Y56493D01*
X526000Y56647D01*
X525990Y56801D01*
X525984Y56956D01*
X525982Y57111D01*
X554195Y51000D02*
X554332Y51002D01*
X554469Y51008D01*
X554606Y51017D01*
X554742Y51031D01*
X554878Y51048D01*
X555014Y51069D01*
X555149Y51094D01*
X555283Y51123D01*
X555416Y51155D01*
X555548Y51191D01*
X555680Y51231D01*
X555810Y51274D01*
X555939Y51321D01*
X556066Y51372D01*
X556192Y51426D01*
X556316Y51484D01*
X556439Y51545D01*
X556560Y51610D01*
X556679Y51678D01*
X556796Y51749D01*
X556911Y51824D01*
X557024Y51902D01*
X557135Y51983D01*
X557243Y52067D01*
X557349Y52154D01*
X557453Y52244D01*
X557554Y52336D01*
X557652Y52432D01*
X557748Y52530D01*
X557840Y52631D01*
X557930Y52735D01*
X558017Y52841D01*
X558101Y52949D01*
X558182Y53060D01*
X558260Y53173D01*
X558335Y53288D01*
X558406Y53405D01*
X558474Y53524D01*
X558539Y53645D01*
X558600Y53768D01*
X558658Y53892D01*
X558712Y54018D01*
X558763Y54145D01*
X558810Y54274D01*
X558853Y54404D01*
X558893Y54536D01*
X558929Y54668D01*
X558961Y54801D01*
X558990Y54935D01*
X559015Y55070D01*
X559036Y55206D01*
X559053Y55342D01*
X559067Y55478D01*
X559076Y55615D01*
X559082Y55752D01*
X559084Y55889D01*
X554195Y51000D02*
X553948Y51003D01*
X553701Y51012D01*
X553454Y51027D01*
X553208Y51047D01*
X552962Y51074D01*
X552717Y51106D01*
X552473Y51145D01*
X552230Y51189D01*
X551988Y51239D01*
X551747Y51294D01*
X551508Y51356D01*
X551270Y51423D01*
X551034Y51496D01*
X550800Y51574D01*
X550567Y51658D01*
X550337Y51748D01*
X550109Y51843D01*
X549883Y51943D01*
X549660Y52049D01*
X549439Y52160D01*
X549221Y52276D01*
X549006Y52398D01*
X548794Y52525D01*
X548585Y52657D01*
X548379Y52793D01*
X548177Y52935D01*
X547977Y53081D01*
X547782Y53232D01*
X547590Y53388D01*
X547402Y53548D01*
X547218Y53713D01*
X547038Y53882D01*
X546862Y54056D01*
X547473Y68111D02*
X547475Y68248D01*
X547481Y68385D01*
X547490Y68522D01*
X547504Y68658D01*
X547521Y68794D01*
X547542Y68930D01*
X547567Y69065D01*
X547596Y69199D01*
X547628Y69332D01*
X547664Y69464D01*
X547704Y69596D01*
X547747Y69726D01*
X547794Y69855D01*
X547845Y69982D01*
X547899Y70108D01*
X547957Y70232D01*
X548018Y70355D01*
X548083Y70476D01*
X548151Y70595D01*
X548222Y70712D01*
X548297Y70827D01*
X548375Y70940D01*
X548456Y71051D01*
X548540Y71159D01*
X548627Y71265D01*
X548717Y71369D01*
X548809Y71470D01*
X548905Y71568D01*
X549003Y71664D01*
X549104Y71756D01*
X549208Y71846D01*
X549314Y71933D01*
X549422Y72017D01*
X549533Y72098D01*
X549646Y72176D01*
X549761Y72251D01*
X549878Y72322D01*
X549997Y72390D01*
X550118Y72455D01*
X550241Y72516D01*
X550365Y72574D01*
X550491Y72628D01*
X550619Y72679D01*
X550747Y72726D01*
X550877Y72769D01*
X551009Y72809D01*
X551141Y72845D01*
X551274Y72877D01*
X551408Y72906D01*
X551543Y72931D01*
X551679Y72952D01*
X551815Y72969D01*
X551951Y72983D01*
X552088Y72992D01*
X552225Y72998D01*
X552362Y73000D01*
X552581Y72997D01*
X552799Y72990D01*
X553017Y72977D01*
X553235Y72958D01*
X553452Y72935D01*
X553669Y72906D01*
X553884Y72873D01*
X554099Y72834D01*
X554313Y72790D01*
X554526Y72741D01*
X554738Y72687D01*
X554948Y72628D01*
X555157Y72563D01*
X555364Y72494D01*
X555570Y72420D01*
X555774Y72341D01*
X555975Y72258D01*
X556175Y72169D01*
X556373Y72076D01*
X556568Y71978D01*
X556761Y71876D01*
X556951Y71768D01*
X557139Y71657D01*
X557324Y71541D01*
X557507Y71420D01*
X557686Y71296D01*
X557862Y71167D01*
X549918Y63834D02*
X549799Y63906D01*
X549682Y63982D01*
X549567Y64061D01*
X549455Y64143D01*
X549345Y64228D01*
X549237Y64316D01*
X549132Y64408D01*
X549029Y64502D01*
X548929Y64599D01*
X548832Y64699D01*
X548738Y64802D01*
X548646Y64907D01*
X548558Y65014D01*
X548473Y65124D01*
X548390Y65237D01*
X548311Y65352D01*
X548236Y65469D01*
X548163Y65588D01*
X548094Y65708D01*
X548028Y65831D01*
X547966Y65956D01*
X547907Y66082D01*
X547852Y66210D01*
X547801Y66340D01*
X547753Y66471D01*
X547709Y66603D01*
X547668Y66736D01*
X547631Y66870D01*
X547599Y67006D01*
X547569Y67142D01*
X547544Y67279D01*
X547523Y67417D01*
X547505Y67555D01*
X547492Y67694D01*
X547482Y67832D01*
X547476Y67972D01*
X547474Y68111D01*
X556640Y60167D02*
X556759Y60094D01*
X556876Y60018D01*
X556990Y59939D01*
X557103Y59857D01*
X557213Y59772D01*
X557321Y59684D01*
X557426Y59592D01*
X557529Y59498D01*
X557629Y59401D01*
X557726Y59301D01*
X557820Y59199D01*
X557911Y59093D01*
X558000Y58986D01*
X558085Y58876D01*
X558167Y58763D01*
X558247Y58648D01*
X558322Y58532D01*
X558395Y58413D01*
X558464Y58292D01*
X558530Y58169D01*
X558592Y58044D01*
X558651Y57918D01*
X558706Y57790D01*
X558757Y57660D01*
X558805Y57530D01*
X558849Y57397D01*
X558890Y57264D01*
X558926Y57130D01*
X558959Y56994D01*
X558989Y56858D01*
X559014Y56721D01*
X559035Y56583D01*
X559053Y56445D01*
X559066Y56306D01*
X559076Y56168D01*
X559082Y56028D01*
X559084Y55889D01*
X556640Y60167D02*
X549918Y63833D01*
X569533Y73000D02*
X569533Y51000D01*
X567089Y51000D02*
X571977Y51000D01*
X571977Y73000D02*
X567089Y73000D01*
X605889Y51000D02*
X610778Y51000D01*
X605889Y51000D02*
X605752Y51002D01*
X605615Y51008D01*
X605478Y51017D01*
X605342Y51031D01*
X605206Y51048D01*
X605070Y51069D01*
X604935Y51094D01*
X604801Y51123D01*
X604668Y51155D01*
X604536Y51191D01*
X604404Y51231D01*
X604274Y51274D01*
X604145Y51321D01*
X604018Y51372D01*
X603892Y51426D01*
X603768Y51484D01*
X603645Y51545D01*
X603524Y51610D01*
X603405Y51678D01*
X603288Y51749D01*
X603173Y51824D01*
X603060Y51902D01*
X602949Y51983D01*
X602841Y52067D01*
X602735Y52154D01*
X602631Y52244D01*
X602530Y52336D01*
X602432Y52432D01*
X602336Y52530D01*
X602244Y52631D01*
X602154Y52735D01*
X602067Y52841D01*
X601983Y52949D01*
X601902Y53060D01*
X601824Y53173D01*
X601749Y53288D01*
X601678Y53405D01*
X601610Y53524D01*
X601545Y53645D01*
X601484Y53768D01*
X601426Y53892D01*
X601372Y54018D01*
X601321Y54145D01*
X601274Y54274D01*
X601231Y54404D01*
X601191Y54536D01*
X601155Y54668D01*
X601123Y54801D01*
X601094Y54935D01*
X601069Y55070D01*
X601048Y55206D01*
X601031Y55342D01*
X601017Y55478D01*
X601008Y55615D01*
X601002Y55752D01*
X601000Y55889D01*
X601000Y68111D01*
X601002Y68251D01*
X601008Y68390D01*
X601018Y68529D01*
X601032Y68668D01*
X601050Y68807D01*
X601072Y68945D01*
X601097Y69082D01*
X601127Y69218D01*
X601161Y69354D01*
X601198Y69488D01*
X601239Y69622D01*
X601284Y69754D01*
X601333Y69885D01*
X601386Y70014D01*
X601442Y70142D01*
X601502Y70268D01*
X601565Y70393D01*
X601632Y70515D01*
X601702Y70636D01*
X601776Y70754D01*
X601853Y70871D01*
X601934Y70985D01*
X602017Y71096D01*
X602104Y71206D01*
X602194Y71313D01*
X602287Y71417D01*
X602383Y71518D01*
X602482Y71617D01*
X602583Y71713D01*
X602687Y71806D01*
X602794Y71896D01*
X602903Y71983D01*
X603015Y72066D01*
X603129Y72147D01*
X603246Y72224D01*
X603364Y72298D01*
X603485Y72368D01*
X603607Y72435D01*
X603732Y72498D01*
X603858Y72558D01*
X603986Y72614D01*
X604115Y72667D01*
X604246Y72716D01*
X604378Y72761D01*
X604512Y72802D01*
X604646Y72839D01*
X604782Y72873D01*
X604918Y72903D01*
X605055Y72928D01*
X605193Y72950D01*
X605332Y72968D01*
X605471Y72982D01*
X605610Y72992D01*
X605749Y72998D01*
X605889Y73000D01*
X610778Y73000D01*
X619827Y73000D02*
X619827Y51000D01*
X629605Y51000D01*
X638830Y51000D02*
X638830Y73000D01*
X651052Y73000D02*
X638830Y59555D01*
X643719Y64444D02*
X651052Y51000D01*
X755889Y51000D02*
X760778Y51000D01*
X755889Y51000D02*
X755752Y51002D01*
X755615Y51008D01*
X755478Y51017D01*
X755342Y51031D01*
X755206Y51048D01*
X755070Y51069D01*
X754935Y51094D01*
X754801Y51123D01*
X754668Y51155D01*
X754536Y51191D01*
X754404Y51231D01*
X754274Y51274D01*
X754145Y51321D01*
X754018Y51372D01*
X753892Y51426D01*
X753768Y51484D01*
X753645Y51545D01*
X753524Y51610D01*
X753405Y51678D01*
X753288Y51749D01*
X753173Y51824D01*
X753060Y51902D01*
X752949Y51983D01*
X752841Y52067D01*
X752735Y52154D01*
X752631Y52244D01*
X752530Y52336D01*
X752432Y52432D01*
X752336Y52530D01*
X752244Y52631D01*
X752154Y52735D01*
X752067Y52841D01*
X751983Y52949D01*
X751902Y53060D01*
X751824Y53173D01*
X751749Y53288D01*
X751678Y53405D01*
X751610Y53524D01*
X751545Y53645D01*
X751484Y53768D01*
X751426Y53892D01*
X751372Y54018D01*
X751321Y54145D01*
X751274Y54274D01*
X751231Y54404D01*
X751191Y54536D01*
X751155Y54668D01*
X751123Y54801D01*
X751094Y54935D01*
X751069Y55070D01*
X751048Y55206D01*
X751031Y55342D01*
X751017Y55478D01*
X751008Y55615D01*
X751002Y55752D01*
X751000Y55889D01*
X751000Y68111D01*
X751002Y68251D01*
X751008Y68390D01*
X751018Y68529D01*
X751032Y68668D01*
X751050Y68807D01*
X751072Y68945D01*
X751097Y69082D01*
X751127Y69218D01*
X751161Y69354D01*
X751198Y69488D01*
X751239Y69622D01*
X751284Y69754D01*
X751333Y69885D01*
X751386Y70014D01*
X751442Y70142D01*
X751502Y70268D01*
X751565Y70393D01*
X751632Y70515D01*
X751702Y70636D01*
X751776Y70754D01*
X751853Y70871D01*
X751934Y70985D01*
X752017Y71096D01*
X752104Y71206D01*
X752194Y71313D01*
X752287Y71417D01*
X752383Y71518D01*
X752482Y71617D01*
X752583Y71713D01*
X752687Y71806D01*
X752794Y71896D01*
X752903Y71983D01*
X753015Y72066D01*
X753129Y72147D01*
X753246Y72224D01*
X753364Y72298D01*
X753485Y72368D01*
X753607Y72435D01*
X753732Y72498D01*
X753858Y72558D01*
X753986Y72614D01*
X754115Y72667D01*
X754246Y72716D01*
X754378Y72761D01*
X754512Y72802D01*
X754646Y72839D01*
X754782Y72873D01*
X754918Y72903D01*
X755055Y72928D01*
X755193Y72950D01*
X755332Y72968D01*
X755471Y72982D01*
X755610Y72992D01*
X755749Y72998D01*
X755889Y73000D01*
X760778Y73000D01*
X780566Y55889D02*
X780564Y55752D01*
X780558Y55615D01*
X780549Y55478D01*
X780535Y55342D01*
X780518Y55206D01*
X780497Y55070D01*
X780472Y54935D01*
X780443Y54801D01*
X780411Y54668D01*
X780375Y54536D01*
X780335Y54404D01*
X780292Y54274D01*
X780245Y54145D01*
X780194Y54018D01*
X780140Y53892D01*
X780082Y53768D01*
X780021Y53645D01*
X779956Y53524D01*
X779888Y53405D01*
X779817Y53288D01*
X779742Y53173D01*
X779664Y53060D01*
X779583Y52949D01*
X779499Y52841D01*
X779412Y52735D01*
X779322Y52631D01*
X779230Y52530D01*
X779134Y52432D01*
X779036Y52336D01*
X778935Y52244D01*
X778831Y52154D01*
X778725Y52067D01*
X778617Y51983D01*
X778506Y51902D01*
X778393Y51824D01*
X778278Y51749D01*
X778161Y51678D01*
X778042Y51610D01*
X777921Y51545D01*
X777798Y51484D01*
X777674Y51426D01*
X777548Y51372D01*
X777421Y51321D01*
X777292Y51274D01*
X777162Y51231D01*
X777030Y51191D01*
X776898Y51155D01*
X776765Y51123D01*
X776631Y51094D01*
X776496Y51069D01*
X776360Y51048D01*
X776224Y51031D01*
X776088Y51017D01*
X775951Y51008D01*
X775814Y51002D01*
X775677Y51000D01*
X775430Y51003D01*
X775183Y51012D01*
X774936Y51027D01*
X774690Y51047D01*
X774444Y51074D01*
X774199Y51106D01*
X773955Y51145D01*
X773712Y51189D01*
X773470Y51239D01*
X773229Y51294D01*
X772990Y51356D01*
X772752Y51423D01*
X772516Y51496D01*
X772282Y51574D01*
X772049Y51658D01*
X771819Y51748D01*
X771591Y51843D01*
X771365Y51943D01*
X771142Y52049D01*
X770921Y52160D01*
X770703Y52276D01*
X770488Y52398D01*
X770276Y52525D01*
X770067Y52657D01*
X769861Y52793D01*
X769659Y52935D01*
X769459Y53081D01*
X769264Y53232D01*
X769072Y53388D01*
X768884Y53548D01*
X768700Y53713D01*
X768520Y53882D01*
X768344Y54056D01*
X768955Y68111D02*
X768957Y68248D01*
X768963Y68385D01*
X768972Y68522D01*
X768986Y68658D01*
X769003Y68794D01*
X769024Y68930D01*
X769049Y69065D01*
X769078Y69199D01*
X769110Y69332D01*
X769146Y69464D01*
X769186Y69596D01*
X769229Y69726D01*
X769276Y69855D01*
X769327Y69982D01*
X769381Y70108D01*
X769439Y70232D01*
X769500Y70355D01*
X769565Y70476D01*
X769633Y70595D01*
X769704Y70712D01*
X769779Y70827D01*
X769857Y70940D01*
X769938Y71051D01*
X770022Y71159D01*
X770109Y71265D01*
X770199Y71369D01*
X770291Y71470D01*
X770387Y71568D01*
X770485Y71664D01*
X770586Y71756D01*
X770690Y71846D01*
X770796Y71933D01*
X770904Y72017D01*
X771015Y72098D01*
X771128Y72176D01*
X771243Y72251D01*
X771360Y72322D01*
X771479Y72390D01*
X771600Y72455D01*
X771723Y72516D01*
X771847Y72574D01*
X771973Y72628D01*
X772101Y72679D01*
X772229Y72726D01*
X772359Y72769D01*
X772491Y72809D01*
X772623Y72845D01*
X772756Y72877D01*
X772890Y72906D01*
X773025Y72931D01*
X773161Y72952D01*
X773297Y72969D01*
X773433Y72983D01*
X773570Y72992D01*
X773707Y72998D01*
X773844Y73000D01*
X774063Y72997D01*
X774281Y72990D01*
X774499Y72977D01*
X774717Y72958D01*
X774934Y72935D01*
X775151Y72906D01*
X775366Y72873D01*
X775581Y72834D01*
X775795Y72790D01*
X776008Y72741D01*
X776220Y72687D01*
X776430Y72628D01*
X776639Y72563D01*
X776846Y72494D01*
X777052Y72420D01*
X777256Y72341D01*
X777457Y72258D01*
X777657Y72169D01*
X777855Y72076D01*
X778050Y71978D01*
X778243Y71876D01*
X778433Y71768D01*
X778621Y71657D01*
X778806Y71541D01*
X778989Y71420D01*
X779168Y71296D01*
X779344Y71167D01*
X771399Y63834D02*
X771280Y63906D01*
X771163Y63982D01*
X771048Y64061D01*
X770936Y64143D01*
X770826Y64228D01*
X770718Y64316D01*
X770613Y64408D01*
X770510Y64502D01*
X770410Y64599D01*
X770313Y64699D01*
X770219Y64802D01*
X770127Y64907D01*
X770039Y65014D01*
X769954Y65124D01*
X769871Y65237D01*
X769792Y65352D01*
X769717Y65469D01*
X769644Y65588D01*
X769575Y65708D01*
X769509Y65831D01*
X769447Y65956D01*
X769388Y66082D01*
X769333Y66210D01*
X769282Y66340D01*
X769234Y66471D01*
X769190Y66603D01*
X769149Y66736D01*
X769112Y66870D01*
X769080Y67006D01*
X769050Y67142D01*
X769025Y67279D01*
X769004Y67417D01*
X768986Y67555D01*
X768973Y67694D01*
X768963Y67832D01*
X768957Y67972D01*
X768955Y68111D01*
X778122Y60167D02*
X778241Y60094D01*
X778358Y60018D01*
X778472Y59939D01*
X778585Y59857D01*
X778695Y59772D01*
X778803Y59684D01*
X778908Y59592D01*
X779011Y59498D01*
X779111Y59401D01*
X779208Y59301D01*
X779302Y59199D01*
X779393Y59093D01*
X779482Y58986D01*
X779567Y58876D01*
X779649Y58763D01*
X779729Y58648D01*
X779804Y58532D01*
X779877Y58413D01*
X779946Y58292D01*
X780012Y58169D01*
X780074Y58044D01*
X780133Y57918D01*
X780188Y57790D01*
X780239Y57660D01*
X780287Y57530D01*
X780331Y57397D01*
X780372Y57264D01*
X780408Y57130D01*
X780441Y56994D01*
X780471Y56858D01*
X780496Y56721D01*
X780517Y56583D01*
X780535Y56445D01*
X780548Y56306D01*
X780558Y56168D01*
X780564Y56028D01*
X780566Y55889D01*
X778122Y60167D02*
X771399Y63833D01*
D13*
X1375000Y200000D02*
X1425000Y200000D01*
X1450000Y175000D01*
X1450000Y125000D01*
X1425000Y100000D01*
X1350000Y125000D02*
X1350000Y175000D01*
X1375000Y200000D01*
X1350000Y125000D02*
X1375000Y100000D01*
X1425000Y100000D01*
D14*
X1400000Y150000D03*
D13*
X1025000Y200000D02*
X975000Y200000D01*
X1025000Y200000D02*
X1050000Y175000D01*
X1050000Y125000D01*
X1025000Y100000D01*
X1050000Y175000D02*
X1075000Y200000D01*
X1125000Y200000D01*
X1150000Y175000D01*
X1150000Y125000D01*
X1125000Y100000D01*
X1075000Y100000D01*
X1050000Y125000D01*
X950000Y125000D02*
X950000Y175000D01*
X975000Y200000D01*
X950000Y125000D02*
X975000Y100000D01*
X1025000Y100000D01*
X1150000Y175000D02*
X1175000Y200000D01*
X1225000Y200000D01*
X1250000Y175000D01*
X1250000Y125000D01*
X1225000Y100000D01*
X1175000Y100000D01*
X1150000Y125000D01*
D15*
X1000000Y118000D02*
X1000000Y182000D01*
X1100000Y182000D02*
X1100000Y118000D01*
X1200000Y118000D02*
X1200000Y182000D01*
D16*
X950000Y294882D03*
X950000Y405118D03*
X1150000Y294882D03*
X1150000Y405118D03*
X1350000Y294882D03*
X1350000Y405118D03*
D13*
X100000Y825000D02*
X100000Y875000D01*
X125000Y900000D01*
X175000Y900000D01*
X200000Y875000D01*
X175000Y800000D02*
X125000Y800000D01*
X100000Y825000D01*
X175000Y800000D02*
X200000Y825000D01*
X200000Y875000D01*
X125000Y900000D02*
X100000Y925000D01*
X100000Y975000D01*
X125000Y1000000D01*
X175000Y1000000D01*
X200000Y975000D01*
X200000Y925000D01*
X175000Y900000D01*
D15*
X182000Y850000D02*
X118000Y850000D01*
X118000Y950000D02*
X182000Y950000D01*
D17*
X455984Y500000D03*
X344016Y500000D03*
X505984Y800000D03*
X394016Y800000D03*
X505984Y1000000D03*
X394016Y1000000D03*
D13*
X625000Y200000D02*
X600000Y175000D01*
X625000Y200000D02*
X675000Y200000D01*
X700000Y175000D01*
X700000Y125000D01*
X675000Y100000D01*
X625000Y100000D01*
X600000Y125000D01*
X475000Y200000D02*
X425000Y200000D01*
X475000Y200000D02*
X500000Y175000D01*
X500000Y125000D01*
X475000Y100000D01*
X500000Y175000D02*
X525000Y200000D01*
X575000Y200000D01*
X600000Y175000D01*
X600000Y125000D01*
X575000Y100000D01*
X525000Y100000D01*
X500000Y125000D01*
X400000Y125000D02*
X400000Y175000D01*
X425000Y200000D01*
X400000Y125000D02*
X425000Y100000D01*
X475000Y100000D01*
X725000Y200000D02*
X775000Y200000D01*
X800000Y175000D01*
X800000Y125000D01*
X775000Y100000D01*
X700000Y175000D02*
X725000Y200000D01*
X700000Y125000D02*
X725000Y100000D01*
X775000Y100000D01*
D15*
X450000Y118000D02*
X450000Y182000D01*
X550000Y182000D02*
X550000Y118000D01*
X650000Y118000D02*
X650000Y182000D01*
X750000Y182000D02*
X750000Y118000D01*
D10*
X809256Y663382D02*
X809256Y836614D01*
X1090744Y836614D01*
X1090744Y663382D01*
X809256Y663382D01*
X823027Y677161D02*
X823029Y677249D01*
X823035Y677337D01*
X823045Y677425D01*
X823059Y677513D01*
X823076Y677599D01*
X823098Y677685D01*
X823123Y677769D01*
X823153Y677853D01*
X823185Y677935D01*
X823222Y678015D01*
X823262Y678094D01*
X823306Y678171D01*
X823353Y678246D01*
X823403Y678318D01*
X823457Y678389D01*
X823513Y678456D01*
X823573Y678522D01*
X823635Y678584D01*
X823701Y678644D01*
X823768Y678700D01*
X823839Y678754D01*
X823911Y678804D01*
X823986Y678851D01*
X824063Y678895D01*
X824142Y678935D01*
X824222Y678972D01*
X824304Y679004D01*
X824388Y679034D01*
X824472Y679059D01*
X824558Y679081D01*
X824644Y679098D01*
X824732Y679112D01*
X824820Y679122D01*
X824908Y679128D01*
X824996Y679130D01*
X825084Y679128D01*
X825172Y679122D01*
X825260Y679112D01*
X825348Y679098D01*
X825434Y679081D01*
X825520Y679059D01*
X825604Y679034D01*
X825688Y679004D01*
X825770Y678972D01*
X825850Y678935D01*
X825929Y678895D01*
X826006Y678851D01*
X826081Y678804D01*
X826153Y678754D01*
X826224Y678700D01*
X826291Y678644D01*
X826357Y678584D01*
X826419Y678522D01*
X826479Y678456D01*
X826535Y678389D01*
X826589Y678318D01*
X826639Y678246D01*
X826686Y678171D01*
X826730Y678094D01*
X826770Y678015D01*
X826807Y677935D01*
X826839Y677853D01*
X826869Y677769D01*
X826894Y677685D01*
X826916Y677599D01*
X826933Y677513D01*
X826947Y677425D01*
X826957Y677337D01*
X826963Y677249D01*
X826965Y677161D01*
X826963Y677073D01*
X826957Y676985D01*
X826947Y676897D01*
X826933Y676809D01*
X826916Y676723D01*
X826894Y676637D01*
X826869Y676553D01*
X826839Y676469D01*
X826807Y676387D01*
X826770Y676307D01*
X826730Y676228D01*
X826686Y676151D01*
X826639Y676076D01*
X826589Y676004D01*
X826535Y675933D01*
X826479Y675866D01*
X826419Y675800D01*
X826357Y675738D01*
X826291Y675678D01*
X826224Y675622D01*
X826153Y675568D01*
X826081Y675518D01*
X826006Y675471D01*
X825929Y675427D01*
X825850Y675387D01*
X825770Y675350D01*
X825688Y675318D01*
X825604Y675288D01*
X825520Y675263D01*
X825434Y675241D01*
X825348Y675224D01*
X825260Y675210D01*
X825172Y675200D01*
X825084Y675194D01*
X824996Y675192D01*
X824908Y675194D01*
X824820Y675200D01*
X824732Y675210D01*
X824644Y675224D01*
X824558Y675241D01*
X824472Y675263D01*
X824388Y675288D01*
X824304Y675318D01*
X824222Y675350D01*
X824142Y675387D01*
X824063Y675427D01*
X823986Y675471D01*
X823911Y675518D01*
X823839Y675568D01*
X823768Y675622D01*
X823701Y675678D01*
X823635Y675738D01*
X823573Y675800D01*
X823513Y675866D01*
X823457Y675933D01*
X823403Y676004D01*
X823353Y676076D01*
X823306Y676151D01*
X823262Y676228D01*
X823222Y676307D01*
X823185Y676387D01*
X823153Y676469D01*
X823123Y676553D01*
X823098Y676637D01*
X823076Y676723D01*
X823059Y676809D01*
X823045Y676897D01*
X823035Y676985D01*
X823029Y677073D01*
X823027Y677161D01*
D18*
X834846Y864173D03*
X860437Y864173D03*
X886024Y864173D03*
X911614Y864173D03*
X937205Y864173D03*
X962795Y864173D03*
X988386Y864173D03*
X1013976Y864173D03*
X834846Y635823D03*
X860437Y635823D03*
X886024Y635823D03*
X911614Y635823D03*
X937205Y635823D03*
X962795Y635823D03*
X988386Y635823D03*
X1013976Y635823D03*
X1039567Y635823D03*
X1065154Y635823D03*
X1039567Y864173D03*
X1065154Y864173D03*
D13*
X125000Y500000D02*
X100000Y525000D01*
X100000Y575000D01*
X125000Y600000D01*
X175000Y600000D01*
X200000Y575000D01*
X200000Y525000D01*
X175000Y500000D01*
X100000Y375000D02*
X100000Y325000D01*
X100000Y375000D02*
X125000Y400000D01*
X175000Y400000D01*
X200000Y375000D01*
X125000Y400000D02*
X100000Y425000D01*
X100000Y475000D01*
X125000Y500000D01*
X175000Y500000D01*
X200000Y475000D01*
X200000Y425000D01*
X175000Y400000D01*
X175000Y300000D02*
X125000Y300000D01*
X100000Y325000D01*
X175000Y300000D02*
X200000Y325000D01*
X200000Y375000D01*
X100000Y625000D02*
X100000Y675000D01*
X125000Y700000D01*
X175000Y700000D01*
X200000Y675000D01*
X125000Y600000D02*
X100000Y625000D01*
X175000Y600000D02*
X200000Y625000D01*
X200000Y675000D01*
D15*
X182000Y350000D02*
X118000Y350000D01*
X118000Y450000D02*
X182000Y450000D01*
X182000Y550000D02*
X118000Y550000D01*
X118000Y650000D02*
X182000Y650000D01*
D19*
X644882Y550000D03*
X755118Y550000D03*
D20*
X1350000Y405118D02*
X1444882Y405118D01*
X1450000Y400000D01*
D21*
X1450000Y400000D03*
D20*
X1150000Y405118D02*
X1150000Y500000D01*
D21*
X1150000Y500000D03*
D20*
X950000Y405118D02*
X894882Y350000D01*
X850000Y350000D01*
D21*
X850000Y350000D03*
D20*
X820673Y850000D02*
X834846Y864173D01*
X820673Y850000D02*
X750000Y850000D01*
D21*
X750000Y850000D03*
D13*
X755118Y550000D02*
X693685Y488567D01*
X650000Y488567D01*
D21*
X650000Y488567D03*
D20*
X600000Y644016D02*
X600000Y650000D01*
X600000Y644016D02*
X552992Y597008D01*
X455984Y500000D01*
X614177Y635823D02*
X834846Y635823D01*
X614177Y635823D02*
X600000Y650000D01*
D21*
X600000Y1000000D03*
D20*
X505984Y1000000D01*
D21*
X600000Y650000D03*
X600000Y800000D03*
D20*
X505984Y800000D01*
D13*
X597874Y597008D02*
X644882Y550000D01*
X597874Y597008D02*
X552992Y597008D01*
D20*
X294016Y550000D02*
X150000Y550000D01*
X294016Y550000D02*
X344016Y500000D01*
X497008Y652992D01*
X544016Y700000D01*
X850000Y700000D01*
X937205Y787205D01*
X937205Y864173D01*
X250000Y750000D02*
X150000Y650000D01*
X816930Y750000D02*
X911614Y844684D01*
X911614Y864173D01*
X816930Y750000D02*
X250000Y750000D01*
X950000Y200000D02*
X1000000Y150000D01*
X950000Y200000D02*
X950000Y294882D01*
X1013976Y358858D02*
X1013976Y635823D01*
X1013976Y358858D02*
X950000Y294882D01*
X1039567Y405315D02*
X1039567Y635823D01*
X1039567Y405315D02*
X1147441Y297441D01*
X1150000Y294882D01*
X1100000Y250000D02*
X1100000Y150000D01*
X1100000Y250000D02*
X1147441Y297441D01*
X1200000Y150000D02*
X1205118Y150000D01*
X1350000Y294882D01*
X1344882Y300000D01*
X1250000Y300000D01*
X1250000Y550000D01*
X1100000Y550000D01*
X1065154Y584846D01*
X1065154Y635823D01*
X750000Y300000D02*
X750000Y150000D01*
X988386Y538386D02*
X988386Y635823D01*
X988386Y538386D02*
X750000Y300000D01*
X650000Y250000D02*
X650000Y150000D01*
X962795Y562795D02*
X962795Y635823D01*
X962795Y562795D02*
X650000Y250000D01*
X550000Y200000D02*
X550000Y150000D01*
X911614Y561614D02*
X911614Y635823D01*
X911614Y561614D02*
X550000Y200000D01*
X450000Y200000D02*
X450000Y150000D01*
X450000Y200000D02*
X750000Y500000D01*
X800000Y500000D01*
X886024Y586024D01*
X886024Y635823D01*
X344016Y850000D02*
X150000Y850000D01*
X344016Y850000D02*
X394016Y800000D01*
X962795Y864173D02*
X962795Y887205D01*
X950000Y900000D02*
X500000Y900000D01*
X950000Y900000D02*
X962795Y887205D01*
X494016Y900000D02*
X394016Y800000D01*
X494016Y900000D02*
X500000Y900000D01*
X200000Y1000000D02*
X150000Y950000D01*
X200000Y1000000D02*
X394016Y1000000D01*
X444016Y950000D01*
X950000Y950000D01*
X988386Y911614D01*
X988386Y864173D01*
M02*
