G04 EAGLE Gerber RS-274X export*
G75*
%MOIN*%
%FSLAX36Y36*%
%LPD*%
%INBottom Copper Layer*%
%IPPOS*%
%AMOC8*
5,1,8,0,0,1.08239X$1,22.5*%
G01*
%ADD10P,0.069273X8X22.500000*%
%ADD11C,0.064000*%
%ADD12R,0.155906X0.155906*%
%ADD13R,0.200000X0.200000*%
%ADD14C,0.040000*%
%ADD15C,0.010000*%
%ADD16C,0.006000*%

G36*
X1822472Y15059D02*
X1822472Y15059D01*
X1822939Y15088D01*
X1823092Y15137D01*
X1823250Y15157D01*
X1823685Y15329D01*
X1824131Y15474D01*
X1824266Y15559D01*
X1824415Y15618D01*
X1824793Y15892D01*
X1825189Y16143D01*
X1825299Y16260D01*
X1825428Y16354D01*
X1825727Y16714D01*
X1826048Y17055D01*
X1826125Y17195D01*
X1826227Y17318D01*
X1826427Y17742D01*
X1826653Y18151D01*
X1826693Y18306D01*
X1826761Y18451D01*
X1826849Y18910D01*
X1826967Y19364D01*
X1826982Y19602D01*
X1826997Y19681D01*
X1826992Y19762D01*
X1827007Y20000D01*
X1827007Y1134606D01*
X1826949Y1135070D01*
X1826920Y1135538D01*
X1826870Y1135690D01*
X1826850Y1135849D01*
X1826678Y1136284D01*
X1826534Y1136729D01*
X1826448Y1136865D01*
X1826390Y1137013D01*
X1826115Y1137391D01*
X1825865Y1137787D01*
X1825748Y1137897D01*
X1825654Y1138027D01*
X1825294Y1138325D01*
X1824953Y1138646D01*
X1824813Y1138723D01*
X1824689Y1138826D01*
X1824266Y1139025D01*
X1823856Y1139251D01*
X1823701Y1139291D01*
X1823557Y1139360D01*
X1823098Y1139448D01*
X1822644Y1139565D01*
X1822406Y1139580D01*
X1822327Y1139595D01*
X1822246Y1139590D01*
X1822008Y1139606D01*
X20000Y1139606D01*
X19536Y1139547D01*
X19069Y1139518D01*
X18916Y1139469D01*
X18757Y1139449D01*
X18323Y1139277D01*
X17877Y1139133D01*
X17742Y1139047D01*
X17593Y1138988D01*
X17215Y1138714D01*
X16819Y1138463D01*
X16709Y1138346D01*
X16579Y1138252D01*
X16281Y1137892D01*
X15960Y1137551D01*
X15883Y1137411D01*
X15781Y1137288D01*
X15581Y1136865D01*
X15355Y1136455D01*
X15315Y1136300D01*
X15247Y1136155D01*
X15159Y1135696D01*
X15041Y1135242D01*
X15026Y1135004D01*
X15011Y1134925D01*
X15016Y1134844D01*
X15001Y1134606D01*
X15001Y20000D01*
X15059Y19536D01*
X15088Y19069D01*
X15137Y18916D01*
X15157Y18757D01*
X15329Y18323D01*
X15474Y17877D01*
X15559Y17742D01*
X15618Y17593D01*
X15892Y17215D01*
X16143Y16819D01*
X16260Y16709D01*
X16354Y16579D01*
X16714Y16281D01*
X17055Y15960D01*
X17195Y15883D01*
X17318Y15781D01*
X17742Y15581D01*
X18151Y15355D01*
X18306Y15315D01*
X18451Y15247D01*
X18910Y15159D01*
X19364Y15041D01*
X19602Y15026D01*
X19681Y15011D01*
X19762Y15016D01*
X20000Y15001D01*
X1822008Y15001D01*
X1822472Y15059D01*
G37*
%LPC*%
G36*
X110441Y411999D02*
X110441Y411999D01*
X96474Y417784D01*
X85784Y428474D01*
X79999Y442441D01*
X79999Y457559D01*
X85784Y471525D01*
X96474Y482215D01*
X110441Y488001D01*
X189559Y488001D01*
X203525Y482215D01*
X214215Y471525D01*
X218125Y462087D01*
X218182Y461987D01*
X218218Y461877D01*
X218492Y461443D01*
X218745Y460999D01*
X218825Y460917D01*
X218887Y460819D01*
X219261Y460466D01*
X219617Y460099D01*
X219715Y460039D01*
X219799Y459960D01*
X220247Y459713D01*
X220684Y459445D01*
X220795Y459411D01*
X220895Y459355D01*
X221392Y459226D01*
X221881Y459076D01*
X221996Y459070D01*
X222108Y459041D01*
X222744Y459001D01*
X239280Y459001D01*
X239665Y459049D01*
X240054Y459061D01*
X240284Y459127D01*
X240522Y459157D01*
X240883Y459300D01*
X241257Y459408D01*
X241464Y459530D01*
X241687Y459618D01*
X242001Y459846D01*
X242336Y460044D01*
X242635Y460306D01*
X242700Y460354D01*
X242731Y460391D01*
X242815Y460465D01*
X287614Y505264D01*
X287852Y505571D01*
X288118Y505854D01*
X288234Y506064D01*
X288381Y506253D01*
X288536Y506610D01*
X288724Y506950D01*
X288784Y507182D01*
X288879Y507403D01*
X288940Y507786D01*
X289037Y508163D01*
X289063Y508559D01*
X289075Y508639D01*
X289071Y508688D01*
X289078Y508799D01*
X289078Y702485D01*
X292593Y706001D01*
X497564Y706001D01*
X501079Y702485D01*
X501079Y664000D01*
X501138Y663536D01*
X501167Y663069D01*
X501216Y662916D01*
X501236Y662757D01*
X501408Y662323D01*
X501552Y661877D01*
X501638Y661742D01*
X501697Y661593D01*
X501971Y661215D01*
X502222Y660819D01*
X502339Y660709D01*
X502433Y660579D01*
X502793Y660281D01*
X503134Y659960D01*
X503274Y659883D01*
X503397Y659781D01*
X503820Y659581D01*
X504230Y659355D01*
X504385Y659315D01*
X504530Y659247D01*
X504989Y659159D01*
X505442Y659041D01*
X505681Y659026D01*
X505760Y659011D01*
X505841Y659016D01*
X506079Y659001D01*
X572245Y659001D01*
X572359Y659015D01*
X572474Y659006D01*
X572979Y659093D01*
X573487Y659157D01*
X573594Y659200D01*
X573708Y659219D01*
X574175Y659430D01*
X574652Y659618D01*
X574745Y659686D01*
X574850Y659733D01*
X575250Y660052D01*
X575665Y660354D01*
X575739Y660443D01*
X575829Y660515D01*
X576137Y660924D01*
X576464Y661318D01*
X576513Y661422D01*
X576583Y661515D01*
X576864Y662087D01*
X577958Y664728D01*
X585272Y672042D01*
X585913Y672308D01*
X586013Y672365D01*
X586123Y672400D01*
X586557Y672675D01*
X587001Y672928D01*
X587083Y673008D01*
X587181Y673070D01*
X587533Y673443D01*
X587900Y673799D01*
X587961Y673898D01*
X588040Y673982D01*
X588287Y674430D01*
X588555Y674867D01*
X588589Y674977D01*
X588645Y675078D01*
X588773Y675575D01*
X588924Y676064D01*
X588930Y676179D01*
X588959Y676290D01*
X588999Y676927D01*
X588999Y773073D01*
X588985Y773188D01*
X588994Y773303D01*
X588907Y773807D01*
X588842Y774316D01*
X588800Y774423D01*
X588780Y774537D01*
X588570Y775005D01*
X588382Y775480D01*
X588314Y775573D01*
X588267Y775679D01*
X587946Y776080D01*
X587646Y776494D01*
X587557Y776567D01*
X587485Y776657D01*
X587076Y776966D01*
X586681Y777293D01*
X586577Y777342D01*
X586485Y777411D01*
X585913Y777692D01*
X585272Y777958D01*
X577958Y785272D01*
X573999Y794828D01*
X573999Y805172D01*
X577958Y814728D01*
X585272Y822042D01*
X585913Y822308D01*
X586013Y822365D01*
X586123Y822400D01*
X586557Y822675D01*
X587001Y822928D01*
X587083Y823008D01*
X587181Y823070D01*
X587533Y823443D01*
X587900Y823799D01*
X587961Y823898D01*
X588040Y823982D01*
X588287Y824430D01*
X588555Y824867D01*
X588589Y824977D01*
X588645Y825078D01*
X588773Y825575D01*
X588924Y826064D01*
X588930Y826179D01*
X588959Y826290D01*
X588999Y826927D01*
X588999Y973073D01*
X588985Y973188D01*
X588994Y973303D01*
X588907Y973807D01*
X588842Y974316D01*
X588800Y974423D01*
X588780Y974537D01*
X588570Y975005D01*
X588382Y975480D01*
X588314Y975573D01*
X588267Y975679D01*
X587946Y976080D01*
X587646Y976494D01*
X587557Y976567D01*
X587485Y976657D01*
X587076Y976966D01*
X586681Y977293D01*
X586577Y977342D01*
X586485Y977411D01*
X585913Y977692D01*
X585272Y977958D01*
X577958Y985272D01*
X573999Y994828D01*
X573999Y1005172D01*
X577958Y1014728D01*
X585272Y1022042D01*
X594828Y1026001D01*
X605172Y1026001D01*
X614728Y1022042D01*
X622042Y1014728D01*
X626001Y1005172D01*
X626001Y994828D01*
X622042Y985272D01*
X614728Y977958D01*
X614087Y977692D01*
X613987Y977635D01*
X613877Y977600D01*
X613443Y977325D01*
X612999Y977072D01*
X612916Y976992D01*
X612819Y976930D01*
X612467Y976557D01*
X612099Y976201D01*
X612039Y976102D01*
X611960Y976018D01*
X611713Y975570D01*
X611445Y975133D01*
X611411Y975023D01*
X611355Y974922D01*
X611227Y974425D01*
X611076Y973936D01*
X611070Y973821D01*
X611041Y973710D01*
X611001Y973073D01*
X611001Y826927D01*
X611015Y826812D01*
X611006Y826697D01*
X611093Y826192D01*
X611157Y825684D01*
X611200Y825577D01*
X611219Y825463D01*
X611430Y824995D01*
X611618Y824520D01*
X611686Y824427D01*
X611733Y824321D01*
X612053Y823920D01*
X612354Y823506D01*
X612443Y823432D01*
X612515Y823343D01*
X612923Y823034D01*
X613318Y822707D01*
X613423Y822658D01*
X613515Y822589D01*
X614087Y822308D01*
X614728Y822042D01*
X622042Y814728D01*
X626001Y805172D01*
X626001Y794828D01*
X622042Y785272D01*
X614728Y777958D01*
X614087Y777692D01*
X613987Y777635D01*
X613877Y777600D01*
X613443Y777325D01*
X612999Y777072D01*
X612916Y776992D01*
X612819Y776930D01*
X612467Y776557D01*
X612099Y776201D01*
X612039Y776102D01*
X611960Y776018D01*
X611713Y775570D01*
X611445Y775133D01*
X611411Y775023D01*
X611355Y774922D01*
X611227Y774425D01*
X611076Y773936D01*
X611070Y773821D01*
X611041Y773710D01*
X611001Y773073D01*
X611001Y676927D01*
X611015Y676812D01*
X611006Y676697D01*
X611093Y676192D01*
X611157Y675684D01*
X611200Y675577D01*
X611219Y675463D01*
X611430Y674995D01*
X611618Y674520D01*
X611686Y674427D01*
X611733Y674321D01*
X612053Y673920D01*
X612354Y673506D01*
X612443Y673432D01*
X612515Y673343D01*
X612923Y673034D01*
X613318Y672707D01*
X613423Y672658D01*
X613515Y672589D01*
X614087Y672308D01*
X614728Y672042D01*
X622042Y664728D01*
X626001Y655172D01*
X626001Y644828D01*
X624906Y642187D01*
X624876Y642076D01*
X624824Y641973D01*
X624711Y641473D01*
X624576Y640979D01*
X624574Y640863D01*
X624549Y640751D01*
X624564Y640239D01*
X624556Y639727D01*
X624583Y639614D01*
X624586Y639499D01*
X624728Y639007D01*
X624848Y638509D01*
X624902Y638407D01*
X624934Y638296D01*
X625193Y637855D01*
X625433Y637402D01*
X625511Y637316D01*
X625569Y637217D01*
X625990Y636738D01*
X739217Y523512D01*
X739524Y523274D01*
X739807Y523007D01*
X740017Y522891D01*
X740206Y522744D01*
X740563Y522590D01*
X740903Y522402D01*
X741135Y522342D01*
X741355Y522247D01*
X741739Y522186D01*
X742116Y522088D01*
X742512Y522063D01*
X742592Y522050D01*
X742640Y522055D01*
X742752Y522048D01*
X807047Y522048D01*
X807511Y522106D01*
X807978Y522135D01*
X808131Y522185D01*
X808290Y522205D01*
X808725Y522377D01*
X809170Y522521D01*
X809305Y522607D01*
X809454Y522665D01*
X809832Y522940D01*
X810228Y523190D01*
X810338Y523307D01*
X810468Y523401D01*
X810766Y523761D01*
X811087Y524102D01*
X811164Y524242D01*
X811266Y524366D01*
X811466Y524789D01*
X811692Y525199D01*
X811732Y525354D01*
X811801Y525498D01*
X811889Y525957D01*
X812006Y526411D01*
X812021Y526649D01*
X812036Y526728D01*
X812031Y526809D01*
X812047Y527047D01*
X812047Y590001D01*
X895000Y590001D01*
X895464Y590059D01*
X895931Y590088D01*
X896083Y590138D01*
X896242Y590158D01*
X896677Y590330D01*
X897122Y590474D01*
X897258Y590560D01*
X897406Y590618D01*
X897784Y590893D01*
X898181Y591143D01*
X898291Y591260D01*
X898420Y591354D01*
X898718Y591714D01*
X899039Y592055D01*
X899117Y592195D01*
X899219Y592319D01*
X899418Y592742D01*
X899644Y593152D01*
X899685Y593307D01*
X899753Y593451D01*
X899841Y593910D01*
X899958Y594364D01*
X899973Y594602D01*
X899989Y594681D01*
X899984Y594762D01*
X899999Y595000D01*
X899999Y600001D01*
X900001Y600001D01*
X900001Y595000D01*
X900060Y594536D01*
X900089Y594069D01*
X900138Y593916D01*
X900158Y593758D01*
X900330Y593323D01*
X900474Y592877D01*
X900560Y592742D01*
X900619Y592593D01*
X900893Y592215D01*
X901144Y591819D01*
X901261Y591709D01*
X901354Y591580D01*
X901714Y591281D01*
X902055Y590960D01*
X902196Y590883D01*
X902319Y590781D01*
X902742Y590581D01*
X903152Y590355D01*
X903307Y590315D01*
X903452Y590247D01*
X903911Y590159D01*
X904364Y590041D01*
X904602Y590026D01*
X904682Y590011D01*
X904762Y590016D01*
X905000Y590001D01*
X987953Y590001D01*
X987953Y544118D01*
X988022Y543575D01*
X988073Y543031D01*
X988100Y542955D01*
X988110Y542876D01*
X988312Y542367D01*
X988496Y541852D01*
X988541Y541786D01*
X988571Y541711D01*
X988892Y541268D01*
X989199Y540816D01*
X989259Y540763D01*
X989307Y540698D01*
X989727Y540349D01*
X990138Y539986D01*
X990210Y539950D01*
X990271Y539899D01*
X990765Y539666D01*
X991253Y539417D01*
X991331Y539399D01*
X991404Y539365D01*
X991940Y539262D01*
X992475Y539142D01*
X992555Y539144D01*
X992634Y539129D01*
X993179Y539163D01*
X993727Y539179D01*
X993804Y539201D01*
X993884Y539206D01*
X994404Y539375D01*
X994930Y539526D01*
X994999Y539567D01*
X995075Y539592D01*
X995539Y539885D01*
X996009Y540162D01*
X996092Y540235D01*
X996134Y540261D01*
X996190Y540321D01*
X996488Y540583D01*
X1064905Y609001D01*
X1293921Y609001D01*
X1294385Y609059D01*
X1294852Y609088D01*
X1295005Y609137D01*
X1295164Y609157D01*
X1295599Y609329D01*
X1296044Y609474D01*
X1296180Y609559D01*
X1296328Y609618D01*
X1296706Y609892D01*
X1297102Y610143D01*
X1297212Y610260D01*
X1297342Y610354D01*
X1297640Y610714D01*
X1297961Y611055D01*
X1298038Y611195D01*
X1298141Y611318D01*
X1298340Y611742D01*
X1298566Y612151D01*
X1298606Y612306D01*
X1298675Y612451D01*
X1298763Y612910D01*
X1298880Y613364D01*
X1298895Y613602D01*
X1298910Y613681D01*
X1298905Y613762D01*
X1298921Y614000D01*
X1298921Y702485D01*
X1302436Y706001D01*
X1507407Y706001D01*
X1510922Y702485D01*
X1510922Y497514D01*
X1507407Y493999D01*
X1302436Y493999D01*
X1298921Y497514D01*
X1298921Y586000D01*
X1298862Y586464D01*
X1298833Y586931D01*
X1298784Y587084D01*
X1298764Y587242D01*
X1298592Y587677D01*
X1298447Y588123D01*
X1298362Y588258D01*
X1298303Y588407D01*
X1298029Y588785D01*
X1297778Y589181D01*
X1297661Y589291D01*
X1297567Y589421D01*
X1297207Y589719D01*
X1296866Y590040D01*
X1296726Y590117D01*
X1296603Y590219D01*
X1296180Y590419D01*
X1295770Y590645D01*
X1295615Y590685D01*
X1295470Y590753D01*
X1295011Y590841D01*
X1294557Y590959D01*
X1294319Y590974D01*
X1294240Y590989D01*
X1294159Y590984D01*
X1293921Y590999D01*
X1074432Y590999D01*
X1074047Y590951D01*
X1073658Y590939D01*
X1073428Y590872D01*
X1073190Y590842D01*
X1072829Y590700D01*
X1072455Y590592D01*
X1072248Y590470D01*
X1072025Y590382D01*
X1071711Y590153D01*
X1071376Y589956D01*
X1071077Y589694D01*
X1071012Y589646D01*
X1070981Y589609D01*
X1070897Y589535D01*
X985409Y504047D01*
X733225Y504047D01*
X613261Y624010D01*
X613170Y624080D01*
X613096Y624168D01*
X612677Y624463D01*
X612272Y624777D01*
X612166Y624823D01*
X612072Y624889D01*
X611593Y625071D01*
X611123Y625275D01*
X611009Y625293D01*
X610901Y625334D01*
X610391Y625391D01*
X609886Y625471D01*
X609771Y625461D01*
X609657Y625473D01*
X609148Y625402D01*
X608639Y625354D01*
X608531Y625315D01*
X608417Y625299D01*
X607813Y625093D01*
X605172Y623999D01*
X594828Y623999D01*
X585272Y627958D01*
X577958Y635272D01*
X576864Y637913D01*
X576806Y638013D01*
X576771Y638123D01*
X576496Y638557D01*
X576243Y639001D01*
X576163Y639083D01*
X576102Y639181D01*
X575727Y639533D01*
X575372Y639901D01*
X575274Y639961D01*
X575190Y640040D01*
X574742Y640287D01*
X574304Y640555D01*
X574194Y640589D01*
X574093Y640645D01*
X573597Y640773D01*
X573108Y640924D01*
X572993Y640930D01*
X572881Y640959D01*
X572245Y640999D01*
X506079Y640999D01*
X505614Y640941D01*
X505147Y640912D01*
X504995Y640862D01*
X504836Y640842D01*
X504401Y640670D01*
X503956Y640526D01*
X503820Y640440D01*
X503672Y640382D01*
X503294Y640107D01*
X502898Y639857D01*
X502788Y639740D01*
X502658Y639646D01*
X502360Y639286D01*
X502039Y638945D01*
X501961Y638805D01*
X501859Y638681D01*
X501660Y638258D01*
X501434Y637849D01*
X501394Y637694D01*
X501325Y637549D01*
X501237Y637090D01*
X501120Y636636D01*
X501105Y636398D01*
X501090Y636319D01*
X501095Y636238D01*
X501079Y636000D01*
X501079Y497514D01*
X497564Y493999D01*
X303878Y493999D01*
X303492Y493951D01*
X303103Y493939D01*
X302873Y493872D01*
X302635Y493842D01*
X302274Y493700D01*
X301900Y493592D01*
X301694Y493470D01*
X301471Y493382D01*
X301156Y493153D01*
X300821Y492956D01*
X300523Y492694D01*
X300457Y492646D01*
X300426Y492609D01*
X300343Y492535D01*
X255544Y447736D01*
X255543Y447736D01*
X248807Y440999D01*
X222744Y440999D01*
X222629Y440985D01*
X222515Y440994D01*
X222010Y440907D01*
X221501Y440842D01*
X221394Y440800D01*
X221281Y440780D01*
X220813Y440570D01*
X220337Y440382D01*
X220243Y440314D01*
X220139Y440267D01*
X219739Y439948D01*
X219323Y439646D01*
X219250Y439557D01*
X219160Y439485D01*
X218851Y439076D01*
X218524Y438681D01*
X218476Y438578D01*
X218406Y438485D01*
X218125Y437913D01*
X214215Y428474D01*
X203525Y417784D01*
X189559Y411999D01*
X110441Y411999D01*
G37*
%LPD*%
%LPC*%
G36*
X110441Y911999D02*
X110441Y911999D01*
X96474Y917784D01*
X85784Y928474D01*
X79999Y942441D01*
X79999Y957559D01*
X85784Y971525D01*
X96474Y982215D01*
X110441Y988001D01*
X189559Y988001D01*
X203525Y982215D01*
X214215Y971525D01*
X220001Y957559D01*
X220001Y942441D01*
X214215Y928474D01*
X203525Y917784D01*
X189559Y911999D01*
X110441Y911999D01*
G37*
%LPD*%
%LPC*%
G36*
X110441Y811999D02*
X110441Y811999D01*
X96474Y817784D01*
X85784Y828474D01*
X79999Y842441D01*
X79999Y857559D01*
X85784Y871525D01*
X96474Y882215D01*
X110441Y888001D01*
X189559Y888001D01*
X203525Y882215D01*
X214215Y871525D01*
X220001Y857559D01*
X220001Y842441D01*
X214215Y828474D01*
X203525Y817784D01*
X189559Y811999D01*
X110441Y811999D01*
G37*
%LPD*%
%LPC*%
G36*
X110441Y611999D02*
X110441Y611999D01*
X96474Y617784D01*
X85784Y628474D01*
X79999Y642441D01*
X79999Y657559D01*
X85784Y671525D01*
X96474Y682215D01*
X110441Y688001D01*
X189559Y688001D01*
X203525Y682215D01*
X214215Y671525D01*
X220001Y657559D01*
X220001Y642441D01*
X214215Y628474D01*
X203525Y617784D01*
X189559Y611999D01*
X110441Y611999D01*
G37*
%LPD*%
%LPC*%
G36*
X110441Y511999D02*
X110441Y511999D01*
X96474Y517784D01*
X85784Y528474D01*
X79999Y542441D01*
X79999Y557559D01*
X85784Y571525D01*
X96474Y582215D01*
X110441Y588001D01*
X189559Y588001D01*
X203525Y582215D01*
X214215Y571525D01*
X220001Y557559D01*
X220001Y542441D01*
X214215Y528474D01*
X203525Y517784D01*
X189559Y511999D01*
X110441Y511999D01*
G37*
%LPD*%
%LPC*%
G36*
X1192441Y79999D02*
X1192441Y79999D01*
X1178474Y85784D01*
X1167784Y96474D01*
X1161999Y110441D01*
X1161999Y189559D01*
X1167784Y203525D01*
X1178474Y214215D01*
X1192441Y220001D01*
X1207559Y220001D01*
X1221525Y214215D01*
X1232215Y203525D01*
X1238001Y189559D01*
X1238001Y110441D01*
X1232215Y96474D01*
X1221525Y85784D01*
X1207559Y79999D01*
X1192441Y79999D01*
G37*
%LPD*%
%LPC*%
G36*
X1092441Y79999D02*
X1092441Y79999D01*
X1078474Y85784D01*
X1067784Y96474D01*
X1061999Y110441D01*
X1061999Y189559D01*
X1067784Y203525D01*
X1078474Y214215D01*
X1092441Y220001D01*
X1107559Y220001D01*
X1121525Y214215D01*
X1132215Y203525D01*
X1138001Y189559D01*
X1138001Y110441D01*
X1132215Y96474D01*
X1121525Y85784D01*
X1107559Y79999D01*
X1092441Y79999D01*
G37*
%LPD*%
%LPC*%
G36*
X992441Y79999D02*
X992441Y79999D01*
X978474Y85784D01*
X967784Y96474D01*
X961999Y110441D01*
X961999Y189559D01*
X967784Y203525D01*
X978474Y214215D01*
X992441Y220001D01*
X1007559Y220001D01*
X1021525Y214215D01*
X1032215Y203525D01*
X1038001Y189559D01*
X1038001Y110441D01*
X1032215Y96474D01*
X1021525Y85784D01*
X1007559Y79999D01*
X992441Y79999D01*
G37*
%LPD*%
%LPC*%
G36*
X742441Y79999D02*
X742441Y79999D01*
X728474Y85784D01*
X717784Y96474D01*
X711999Y110441D01*
X711999Y189559D01*
X717784Y203525D01*
X728474Y214215D01*
X742441Y220001D01*
X757559Y220001D01*
X771525Y214215D01*
X782215Y203525D01*
X788001Y189559D01*
X788001Y110441D01*
X782215Y96474D01*
X771525Y85784D01*
X757559Y79999D01*
X742441Y79999D01*
G37*
%LPD*%
%LPC*%
G36*
X642441Y79999D02*
X642441Y79999D01*
X628474Y85784D01*
X617784Y96474D01*
X611999Y110441D01*
X611999Y189559D01*
X617784Y203525D01*
X628474Y214215D01*
X642441Y220001D01*
X657559Y220001D01*
X671525Y214215D01*
X682215Y203525D01*
X688001Y189559D01*
X688001Y110441D01*
X682215Y96474D01*
X671525Y85784D01*
X657559Y79999D01*
X642441Y79999D01*
G37*
%LPD*%
%LPC*%
G36*
X542441Y79999D02*
X542441Y79999D01*
X528474Y85784D01*
X517784Y96474D01*
X511999Y110441D01*
X511999Y189559D01*
X517784Y203525D01*
X528474Y214215D01*
X542441Y220001D01*
X557559Y220001D01*
X571525Y214215D01*
X582215Y203525D01*
X588001Y189559D01*
X588001Y110441D01*
X582215Y96474D01*
X571525Y85784D01*
X557559Y79999D01*
X542441Y79999D01*
G37*
%LPD*%
%LPC*%
G36*
X442441Y79999D02*
X442441Y79999D01*
X428474Y85784D01*
X417784Y96474D01*
X411999Y110441D01*
X411999Y189559D01*
X417784Y203525D01*
X428474Y214215D01*
X442441Y220001D01*
X457559Y220001D01*
X471525Y214215D01*
X482215Y203525D01*
X488001Y189559D01*
X488001Y110441D01*
X482215Y96474D01*
X471525Y85784D01*
X457559Y79999D01*
X442441Y79999D01*
G37*
%LPD*%
%LPC*%
G36*
X909999Y609999D02*
X909999Y609999D01*
X909999Y687953D01*
X979270Y687953D01*
X981813Y687272D01*
X984093Y685955D01*
X985955Y684093D01*
X987272Y681813D01*
X987953Y679270D01*
X987953Y609999D01*
X909999Y609999D01*
G37*
%LPD*%
%LPC*%
G36*
X812046Y609999D02*
X812046Y609999D01*
X812047Y679270D01*
X812728Y681813D01*
X814045Y684093D01*
X815907Y685955D01*
X818187Y687272D01*
X820730Y687953D01*
X890001Y687953D01*
X890001Y609999D01*
X812046Y609999D01*
G37*
%LPD*%
%LPC*%
G36*
X159999Y359999D02*
X159999Y359999D01*
X159999Y392001D01*
X185305Y392001D01*
X191835Y390966D01*
X198123Y388923D01*
X204013Y385922D01*
X209361Y382036D01*
X214036Y377361D01*
X217922Y372013D01*
X220923Y366123D01*
X222913Y359999D01*
X159999Y359999D01*
G37*
%LPD*%
%LPC*%
G36*
X77087Y359999D02*
X77087Y359999D01*
X79076Y366123D01*
X82077Y372013D01*
X85963Y377361D01*
X90639Y382036D01*
X95987Y385922D01*
X101877Y388923D01*
X108164Y390966D01*
X114695Y392001D01*
X140001Y392001D01*
X140001Y359999D01*
X77087Y359999D01*
G37*
%LPD*%
%LPC*%
G36*
X159999Y307999D02*
X159999Y307999D01*
X159999Y340001D01*
X222913Y340001D01*
X220923Y333877D01*
X217922Y327987D01*
X214036Y322639D01*
X209361Y317963D01*
X204013Y314077D01*
X198123Y311076D01*
X191835Y309033D01*
X185305Y307999D01*
X159999Y307999D01*
G37*
%LPD*%
%LPC*%
G36*
X114695Y307999D02*
X114695Y307999D01*
X108164Y309033D01*
X101877Y311076D01*
X95987Y314077D01*
X90639Y317963D01*
X85963Y322639D01*
X82077Y327987D01*
X79076Y333877D01*
X77087Y340001D01*
X140001Y340001D01*
X140001Y307999D01*
X114695Y307999D01*
G37*
%LPD*%
%LPC*%
G36*
X1409999Y159999D02*
X1409999Y159999D01*
X1409999Y192001D01*
X1417397Y192001D01*
X1442001Y167397D01*
X1442001Y159999D01*
X1409999Y159999D01*
G37*
%LPD*%
%LPC*%
G36*
X1357999Y159999D02*
X1357999Y159999D01*
X1357999Y167397D01*
X1382603Y192001D01*
X1390001Y192001D01*
X1390001Y159999D01*
X1357999Y159999D01*
G37*
%LPD*%
%LPC*%
G36*
X1409999Y107999D02*
X1409999Y107999D01*
X1409999Y140001D01*
X1442001Y140001D01*
X1442001Y132603D01*
X1417397Y107999D01*
X1409999Y107999D01*
G37*
%LPD*%
%LPC*%
G36*
X1382603Y107999D02*
X1382603Y107999D01*
X1357999Y132603D01*
X1357999Y140001D01*
X1390001Y140001D01*
X1390001Y107999D01*
X1382603Y107999D01*
G37*
%LPD*%
%LPC*%
G36*
X149999Y349999D02*
X149999Y349999D01*
X149999Y350001D01*
X150001Y350001D01*
X150001Y349999D01*
X149999Y349999D01*
G37*
%LPD*%
%LPC*%
G36*
X1399999Y149999D02*
X1399999Y149999D01*
X1399999Y150001D01*
X1400001Y150001D01*
X1400001Y149999D01*
X1399999Y149999D01*
G37*
%LPD*%
D10*
X1400000Y150000D03*
D11*
X1000000Y118000D02*
X1000000Y182000D01*
X1100000Y182000D02*
X1100000Y118000D01*
X1200000Y118000D02*
X1200000Y182000D01*
X182000Y850000D02*
X118000Y850000D01*
X118000Y950000D02*
X182000Y950000D01*
X450000Y182000D02*
X450000Y118000D01*
X550000Y118000D02*
X550000Y182000D01*
X650000Y182000D02*
X650000Y118000D01*
X750000Y118000D02*
X750000Y182000D01*
X182000Y350000D02*
X118000Y350000D01*
X118000Y450000D02*
X182000Y450000D01*
X182000Y550000D02*
X118000Y550000D01*
X118000Y650000D02*
X182000Y650000D01*
D12*
X900000Y600000D03*
D13*
X395079Y600000D03*
X1404921Y600000D03*
D14*
X1450000Y400000D03*
X1150000Y500000D03*
X850000Y350000D03*
X750000Y850000D03*
X650000Y488567D03*
X600000Y1000000D03*
D15*
X600000Y800000D02*
X600000Y650000D01*
D14*
X600000Y650000D03*
D15*
X600000Y800000D02*
X600000Y1000000D01*
D14*
X600000Y800000D03*
D16*
X395079Y600000D02*
X245079Y450000D01*
X150000Y450000D01*
X395079Y600000D02*
X445079Y650000D01*
X600000Y650000D01*
X1068633Y600000D02*
X1404921Y600000D01*
X1068633Y600000D02*
X981681Y513047D01*
X736953Y513047D01*
X600000Y650000D01*
M02*
