G04 EAGLE Gerber RS-274X export*
G75*
%MOIN*%
%FSLAX36Y36*%
%LPD*%
%INBottom Copper Layer*%
%IPPOS*%
%AMOC8*
5,1,8,0,0,1.08239X$1,22.5*%
G01*
%ADD10P,0.069273X8X22.500000*%
%ADD11C,0.064000*%
%ADD12R,0.155906X0.155906*%
%ADD13R,0.200000X0.200000*%
%ADD14C,0.040000*%
%ADD15C,0.006000*%
%ADD16C,0.010000*%

G36*
X1560267Y15059D02*
X1560267Y15059D01*
X1560734Y15088D01*
X1560887Y15137D01*
X1561046Y15157D01*
X1561480Y15329D01*
X1561926Y15474D01*
X1562061Y15559D01*
X1562210Y15618D01*
X1562588Y15892D01*
X1562984Y16143D01*
X1563094Y16260D01*
X1563224Y16354D01*
X1563522Y16714D01*
X1563843Y17055D01*
X1563920Y17195D01*
X1564022Y17318D01*
X1564222Y17742D01*
X1564448Y18151D01*
X1564488Y18306D01*
X1564556Y18451D01*
X1564644Y18910D01*
X1564762Y19364D01*
X1564777Y19602D01*
X1564792Y19681D01*
X1564787Y19762D01*
X1564802Y20000D01*
X1564802Y1166102D01*
X1564744Y1166567D01*
X1564715Y1167034D01*
X1564666Y1167186D01*
X1564646Y1167345D01*
X1564474Y1167780D01*
X1564329Y1168225D01*
X1564244Y1168361D01*
X1564185Y1168509D01*
X1563911Y1168887D01*
X1563660Y1169283D01*
X1563543Y1169393D01*
X1563449Y1169523D01*
X1563089Y1169821D01*
X1562748Y1170142D01*
X1562608Y1170219D01*
X1562485Y1170322D01*
X1562062Y1170521D01*
X1561652Y1170747D01*
X1561497Y1170787D01*
X1561352Y1170856D01*
X1560893Y1170944D01*
X1560439Y1171061D01*
X1560201Y1171076D01*
X1560122Y1171091D01*
X1560041Y1171086D01*
X1559803Y1171102D01*
X20000Y1171102D01*
X19536Y1171043D01*
X19069Y1171014D01*
X18916Y1170965D01*
X18757Y1170945D01*
X18323Y1170773D01*
X17877Y1170629D01*
X17742Y1170543D01*
X17593Y1170484D01*
X17215Y1170210D01*
X16819Y1169959D01*
X16709Y1169842D01*
X16579Y1169748D01*
X16281Y1169388D01*
X15960Y1169047D01*
X15883Y1168907D01*
X15781Y1168784D01*
X15581Y1168361D01*
X15355Y1167951D01*
X15315Y1167796D01*
X15247Y1167651D01*
X15159Y1167192D01*
X15041Y1166739D01*
X15026Y1166500D01*
X15011Y1166421D01*
X15016Y1166340D01*
X15001Y1166102D01*
X15001Y20000D01*
X15059Y19536D01*
X15088Y19069D01*
X15137Y18916D01*
X15157Y18757D01*
X15329Y18323D01*
X15474Y17877D01*
X15559Y17742D01*
X15618Y17593D01*
X15892Y17215D01*
X16143Y16819D01*
X16260Y16709D01*
X16354Y16579D01*
X16714Y16281D01*
X17055Y15960D01*
X17195Y15883D01*
X17318Y15781D01*
X17742Y15581D01*
X18151Y15355D01*
X18306Y15315D01*
X18451Y15247D01*
X18910Y15159D01*
X19364Y15041D01*
X19602Y15026D01*
X19681Y15011D01*
X19762Y15016D01*
X20000Y15001D01*
X1559803Y15001D01*
X1560267Y15059D01*
G37*
%LPC*%
G36*
X396828Y394499D02*
X396828Y394499D01*
X387272Y398458D01*
X379958Y405772D01*
X375999Y415328D01*
X375999Y425672D01*
X379958Y435228D01*
X387272Y442542D01*
X387913Y442808D01*
X388013Y442865D01*
X388123Y442900D01*
X388557Y443175D01*
X389001Y443428D01*
X389083Y443508D01*
X389181Y443570D01*
X389533Y443943D01*
X389900Y444299D01*
X389961Y444398D01*
X390040Y444482D01*
X390287Y444930D01*
X390555Y445367D01*
X390589Y445477D01*
X390645Y445578D01*
X390773Y446075D01*
X390924Y446564D01*
X390930Y446679D01*
X390959Y446790D01*
X390999Y447427D01*
X390999Y489000D01*
X390941Y489464D01*
X390912Y489931D01*
X390862Y490084D01*
X390842Y490242D01*
X390670Y490677D01*
X390526Y491123D01*
X390440Y491258D01*
X390382Y491407D01*
X390107Y491785D01*
X389857Y492181D01*
X389740Y492291D01*
X389646Y492421D01*
X389286Y492719D01*
X388945Y493040D01*
X388805Y493117D01*
X388681Y493219D01*
X388258Y493419D01*
X387849Y493645D01*
X387694Y493685D01*
X387549Y493753D01*
X387090Y493841D01*
X386636Y493959D01*
X386398Y493974D01*
X386319Y493989D01*
X386238Y493984D01*
X386000Y493999D01*
X303878Y493999D01*
X303492Y493951D01*
X303104Y493939D01*
X302873Y493872D01*
X302635Y493842D01*
X302274Y493700D01*
X301900Y493592D01*
X301694Y493470D01*
X301471Y493382D01*
X301156Y493153D01*
X300821Y492956D01*
X300523Y492694D01*
X300457Y492646D01*
X300426Y492609D01*
X300343Y492535D01*
X248807Y440999D01*
X222744Y440999D01*
X222629Y440985D01*
X222515Y440994D01*
X222010Y440907D01*
X221501Y440842D01*
X221394Y440800D01*
X221281Y440780D01*
X220813Y440570D01*
X220337Y440382D01*
X220243Y440314D01*
X220139Y440267D01*
X219739Y439948D01*
X219323Y439646D01*
X219250Y439557D01*
X219160Y439485D01*
X218851Y439076D01*
X218524Y438681D01*
X218476Y438578D01*
X218406Y438485D01*
X218125Y437913D01*
X214215Y428474D01*
X203525Y417784D01*
X189559Y411999D01*
X110441Y411999D01*
X96474Y417784D01*
X85784Y428474D01*
X79999Y442441D01*
X79999Y457559D01*
X85784Y471525D01*
X96474Y482215D01*
X110441Y488001D01*
X189559Y488001D01*
X203525Y482215D01*
X214215Y471525D01*
X218125Y462087D01*
X218182Y461987D01*
X218218Y461877D01*
X218492Y461443D01*
X218745Y460999D01*
X218825Y460917D01*
X218887Y460819D01*
X219261Y460466D01*
X219617Y460099D01*
X219715Y460039D01*
X219799Y459960D01*
X220247Y459713D01*
X220684Y459445D01*
X220795Y459411D01*
X220895Y459355D01*
X221392Y459226D01*
X221881Y459076D01*
X221996Y459070D01*
X222108Y459041D01*
X222744Y459001D01*
X239280Y459001D01*
X239665Y459049D01*
X240054Y459061D01*
X240284Y459127D01*
X240522Y459157D01*
X240883Y459300D01*
X241257Y459408D01*
X241464Y459530D01*
X241687Y459618D01*
X242001Y459846D01*
X242336Y460044D01*
X242635Y460306D01*
X242700Y460354D01*
X242731Y460391D01*
X242815Y460465D01*
X287614Y505264D01*
X287852Y505571D01*
X288118Y505854D01*
X288234Y506064D01*
X288381Y506253D01*
X288536Y506610D01*
X288724Y506950D01*
X288784Y507183D01*
X288879Y507403D01*
X288940Y507786D01*
X289037Y508163D01*
X289063Y508560D01*
X289075Y508640D01*
X289071Y508688D01*
X289078Y508799D01*
X289078Y702485D01*
X292593Y706001D01*
X379079Y706001D01*
X379543Y706059D01*
X380010Y706088D01*
X380162Y706137D01*
X380321Y706157D01*
X380756Y706329D01*
X381202Y706474D01*
X381337Y706559D01*
X381486Y706618D01*
X381864Y706892D01*
X382260Y707143D01*
X382370Y707260D01*
X382499Y707354D01*
X382797Y707714D01*
X383118Y708055D01*
X383196Y708195D01*
X383298Y708318D01*
X383497Y708742D01*
X383724Y709151D01*
X383764Y709306D01*
X383832Y709451D01*
X383920Y709910D01*
X384037Y710364D01*
X384053Y710602D01*
X384068Y710681D01*
X384063Y710762D01*
X384078Y711000D01*
X384078Y798135D01*
X440181Y854238D01*
X440252Y854330D01*
X440340Y854404D01*
X440634Y854822D01*
X440949Y855228D01*
X440995Y855334D01*
X441061Y855428D01*
X441243Y855907D01*
X441447Y856377D01*
X441465Y856491D01*
X441506Y856599D01*
X441563Y857108D01*
X441643Y857614D01*
X441632Y857729D01*
X441645Y857843D01*
X441574Y858351D01*
X441526Y858861D01*
X441487Y858969D01*
X441471Y859083D01*
X441265Y859687D01*
X440999Y860328D01*
X440999Y870672D01*
X444958Y880228D01*
X452272Y887542D01*
X452913Y887808D01*
X453013Y887865D01*
X453123Y887900D01*
X453557Y888175D01*
X454001Y888428D01*
X454083Y888508D01*
X454181Y888570D01*
X454533Y888943D01*
X454900Y889299D01*
X454961Y889398D01*
X455040Y889482D01*
X455287Y889930D01*
X455555Y890367D01*
X455589Y890477D01*
X455645Y890578D01*
X455773Y891075D01*
X455924Y891564D01*
X455930Y891679D01*
X455959Y891790D01*
X455999Y892427D01*
X455999Y1069000D01*
X455941Y1069464D01*
X455912Y1069931D01*
X455862Y1070084D01*
X455842Y1070242D01*
X455670Y1070677D01*
X455526Y1071123D01*
X455440Y1071258D01*
X455382Y1071407D01*
X455107Y1071785D01*
X454857Y1072181D01*
X454740Y1072291D01*
X454646Y1072421D01*
X454286Y1072719D01*
X453945Y1073040D01*
X453805Y1073117D01*
X453681Y1073219D01*
X453258Y1073419D01*
X452849Y1073645D01*
X452694Y1073685D01*
X452549Y1073753D01*
X452090Y1073841D01*
X451636Y1073959D01*
X451398Y1073974D01*
X451319Y1073989D01*
X451238Y1073984D01*
X451000Y1073999D01*
X444828Y1073999D01*
X435272Y1077958D01*
X427958Y1085272D01*
X423999Y1094828D01*
X423999Y1105172D01*
X427958Y1114728D01*
X435272Y1122042D01*
X444828Y1126001D01*
X455172Y1126001D01*
X455813Y1125735D01*
X455925Y1125704D01*
X456027Y1125652D01*
X456525Y1125540D01*
X457021Y1125404D01*
X457137Y1125402D01*
X457249Y1125377D01*
X457761Y1125392D01*
X458273Y1125384D01*
X458385Y1125411D01*
X458500Y1125415D01*
X458994Y1125557D01*
X459491Y1125676D01*
X459593Y1125730D01*
X459704Y1125762D01*
X460147Y1126023D01*
X460598Y1126262D01*
X460683Y1126339D01*
X460783Y1126398D01*
X461261Y1126819D01*
X472943Y1138501D01*
X1401056Y1138501D01*
X1408965Y1130592D01*
X1415922Y1123635D01*
X1415922Y711000D01*
X1415980Y710536D01*
X1416009Y710069D01*
X1416059Y709916D01*
X1416079Y709757D01*
X1416251Y709323D01*
X1416395Y708877D01*
X1416481Y708742D01*
X1416539Y708593D01*
X1416814Y708215D01*
X1417064Y707819D01*
X1417181Y707709D01*
X1417275Y707579D01*
X1417635Y707281D01*
X1417976Y706960D01*
X1418116Y706883D01*
X1418240Y706781D01*
X1418663Y706581D01*
X1419073Y706355D01*
X1419228Y706315D01*
X1419372Y706247D01*
X1419831Y706159D01*
X1420285Y706041D01*
X1420523Y706026D01*
X1420602Y706011D01*
X1420683Y706016D01*
X1420921Y706001D01*
X1507407Y706001D01*
X1510922Y702485D01*
X1510922Y497514D01*
X1507407Y493999D01*
X1302436Y493999D01*
X1298921Y497514D01*
X1298921Y702485D01*
X1302436Y706001D01*
X1388921Y706001D01*
X1389385Y706059D01*
X1389852Y706088D01*
X1390005Y706137D01*
X1390164Y706157D01*
X1390599Y706329D01*
X1391044Y706474D01*
X1391180Y706559D01*
X1391328Y706618D01*
X1391706Y706892D01*
X1392102Y707143D01*
X1392212Y707260D01*
X1392342Y707354D01*
X1392640Y707714D01*
X1392961Y708055D01*
X1393038Y708195D01*
X1393141Y708318D01*
X1393340Y708742D01*
X1393566Y709151D01*
X1393606Y709306D01*
X1393675Y709451D01*
X1393763Y709910D01*
X1393880Y710364D01*
X1393895Y710602D01*
X1393910Y710681D01*
X1393905Y710762D01*
X1393921Y711000D01*
X1393921Y1111500D01*
X1393862Y1111964D01*
X1393833Y1112431D01*
X1393784Y1112584D01*
X1393764Y1112742D01*
X1393592Y1113177D01*
X1393447Y1113623D01*
X1393362Y1113758D01*
X1393303Y1113907D01*
X1393029Y1114285D01*
X1392778Y1114681D01*
X1392661Y1114791D01*
X1392567Y1114921D01*
X1392207Y1115219D01*
X1391866Y1115540D01*
X1391726Y1115617D01*
X1391603Y1115719D01*
X1391180Y1115919D01*
X1390770Y1116145D01*
X1390615Y1116185D01*
X1390470Y1116253D01*
X1390011Y1116341D01*
X1389557Y1116459D01*
X1389319Y1116474D01*
X1389240Y1116489D01*
X1389159Y1116484D01*
X1388921Y1116499D01*
X484127Y1116499D01*
X483742Y1116451D01*
X483353Y1116439D01*
X483123Y1116372D01*
X482885Y1116342D01*
X482524Y1116199D01*
X482150Y1116092D01*
X481943Y1115970D01*
X481720Y1115882D01*
X481406Y1115654D01*
X481071Y1115456D01*
X480773Y1115194D01*
X480707Y1115146D01*
X480676Y1115108D01*
X480592Y1115035D01*
X476819Y1111261D01*
X476748Y1111170D01*
X476660Y1111096D01*
X476366Y1110678D01*
X476051Y1110272D01*
X476005Y1110166D01*
X475939Y1110072D01*
X475757Y1109594D01*
X475553Y1109123D01*
X475535Y1109009D01*
X475494Y1108901D01*
X475437Y1108392D01*
X475357Y1107886D01*
X475368Y1107771D01*
X475355Y1107657D01*
X475426Y1107149D01*
X475474Y1106639D01*
X475513Y1106531D01*
X475529Y1106416D01*
X475735Y1105813D01*
X476001Y1105172D01*
X476001Y1094828D01*
X475735Y1094187D01*
X475704Y1094075D01*
X475652Y1093973D01*
X475540Y1093475D01*
X475404Y1092979D01*
X475402Y1092863D01*
X475377Y1092751D01*
X475392Y1092239D01*
X475384Y1091727D01*
X475411Y1091615D01*
X475415Y1091499D01*
X475557Y1091007D01*
X475676Y1090509D01*
X475730Y1090407D01*
X475762Y1090296D01*
X476022Y1089854D01*
X476262Y1089402D01*
X476339Y1089317D01*
X476398Y1089217D01*
X476819Y1088738D01*
X478001Y1087556D01*
X478001Y892427D01*
X478015Y892312D01*
X478006Y892197D01*
X478093Y891692D01*
X478157Y891184D01*
X478200Y891077D01*
X478219Y890963D01*
X478430Y890495D01*
X478618Y890020D01*
X478686Y889927D01*
X478733Y889821D01*
X479053Y889420D01*
X479354Y889006D01*
X479443Y888932D01*
X479515Y888843D01*
X479923Y888534D01*
X480318Y888207D01*
X480423Y888158D01*
X480515Y888089D01*
X481087Y887808D01*
X481728Y887542D01*
X489042Y880228D01*
X493001Y870672D01*
X493001Y860328D01*
X489042Y850772D01*
X481728Y843458D01*
X472172Y839499D01*
X461828Y839499D01*
X461187Y839765D01*
X461076Y839796D01*
X460973Y839848D01*
X460474Y839960D01*
X459979Y840096D01*
X459863Y840097D01*
X459751Y840123D01*
X459239Y840107D01*
X458727Y840116D01*
X458615Y840089D01*
X458499Y840085D01*
X458006Y839943D01*
X457509Y839824D01*
X457407Y839770D01*
X457296Y839738D01*
X456854Y839477D01*
X456402Y839238D01*
X456317Y839161D01*
X456217Y839102D01*
X455738Y838681D01*
X407544Y790486D01*
X407305Y790179D01*
X407039Y789896D01*
X406923Y789686D01*
X406776Y789497D01*
X406621Y789140D01*
X406434Y788800D01*
X406374Y788568D01*
X406278Y788348D01*
X406217Y787964D01*
X406120Y787587D01*
X406095Y787191D01*
X406082Y787111D01*
X406086Y787063D01*
X406079Y786951D01*
X406079Y711000D01*
X406138Y710536D01*
X406167Y710069D01*
X406216Y709916D01*
X406236Y709757D01*
X406408Y709323D01*
X406552Y708877D01*
X406638Y708742D01*
X406697Y708593D01*
X406971Y708215D01*
X407222Y707819D01*
X407339Y707709D01*
X407433Y707579D01*
X407793Y707281D01*
X408134Y706960D01*
X408274Y706883D01*
X408397Y706781D01*
X408820Y706581D01*
X409230Y706355D01*
X409385Y706315D01*
X409530Y706247D01*
X409989Y706159D01*
X410442Y706041D01*
X410681Y706026D01*
X410760Y706011D01*
X410841Y706016D01*
X411079Y706001D01*
X497564Y706001D01*
X501079Y702485D01*
X501079Y497514D01*
X497564Y493999D01*
X418000Y493999D01*
X417536Y493941D01*
X417069Y493912D01*
X416916Y493862D01*
X416757Y493842D01*
X416323Y493670D01*
X415877Y493526D01*
X415742Y493440D01*
X415593Y493382D01*
X415215Y493107D01*
X414819Y492857D01*
X414709Y492740D01*
X414579Y492646D01*
X414281Y492286D01*
X413960Y491945D01*
X413883Y491805D01*
X413781Y491681D01*
X413581Y491258D01*
X413355Y490849D01*
X413315Y490694D01*
X413247Y490549D01*
X413159Y490090D01*
X413041Y489636D01*
X413026Y489398D01*
X413011Y489319D01*
X413016Y489238D01*
X413001Y489000D01*
X413001Y447427D01*
X413015Y447312D01*
X413006Y447197D01*
X413093Y446692D01*
X413157Y446184D01*
X413200Y446077D01*
X413219Y445963D01*
X413430Y445495D01*
X413618Y445020D01*
X413686Y444927D01*
X413733Y444821D01*
X414053Y444420D01*
X414354Y444006D01*
X414443Y443932D01*
X414515Y443843D01*
X414923Y443534D01*
X415318Y443207D01*
X415423Y443158D01*
X415515Y443089D01*
X416087Y442808D01*
X416728Y442542D01*
X424042Y435228D01*
X428001Y425672D01*
X428001Y415328D01*
X424042Y405772D01*
X416728Y398458D01*
X407172Y394499D01*
X396828Y394499D01*
G37*
%LPD*%
%LPC*%
G36*
X110441Y911999D02*
X110441Y911999D01*
X96474Y917784D01*
X85784Y928474D01*
X79999Y942441D01*
X79999Y957559D01*
X85784Y971525D01*
X96474Y982215D01*
X110441Y988001D01*
X189559Y988001D01*
X203525Y982215D01*
X214215Y971525D01*
X220001Y957559D01*
X220001Y942441D01*
X214215Y928474D01*
X203525Y917784D01*
X189559Y911999D01*
X110441Y911999D01*
G37*
%LPD*%
%LPC*%
G36*
X110441Y811999D02*
X110441Y811999D01*
X96474Y817784D01*
X85784Y828474D01*
X79999Y842441D01*
X79999Y857559D01*
X85784Y871525D01*
X96474Y882215D01*
X110441Y888001D01*
X189559Y888001D01*
X203525Y882215D01*
X214215Y871525D01*
X220001Y857559D01*
X220001Y842441D01*
X214215Y828474D01*
X203525Y817784D01*
X189559Y811999D01*
X110441Y811999D01*
G37*
%LPD*%
%LPC*%
G36*
X110441Y611999D02*
X110441Y611999D01*
X96474Y617784D01*
X85784Y628474D01*
X79999Y642441D01*
X79999Y657559D01*
X85784Y671525D01*
X96474Y682215D01*
X110441Y688001D01*
X189559Y688001D01*
X203525Y682215D01*
X214215Y671525D01*
X220001Y657559D01*
X220001Y642441D01*
X214215Y628474D01*
X203525Y617784D01*
X189559Y611999D01*
X110441Y611999D01*
G37*
%LPD*%
%LPC*%
G36*
X110441Y511999D02*
X110441Y511999D01*
X96474Y517784D01*
X85784Y528474D01*
X79999Y542441D01*
X79999Y557559D01*
X85784Y571525D01*
X96474Y582215D01*
X110441Y588001D01*
X189559Y588001D01*
X203525Y582215D01*
X214215Y571525D01*
X220001Y557559D01*
X220001Y542441D01*
X214215Y528474D01*
X203525Y517784D01*
X189559Y511999D01*
X110441Y511999D01*
G37*
%LPD*%
%LPC*%
G36*
X1192441Y79999D02*
X1192441Y79999D01*
X1178474Y85784D01*
X1167784Y96474D01*
X1161999Y110441D01*
X1161999Y189559D01*
X1167784Y203525D01*
X1178474Y214215D01*
X1192441Y220001D01*
X1207559Y220001D01*
X1221525Y214215D01*
X1232215Y203525D01*
X1238001Y189559D01*
X1238001Y110441D01*
X1232215Y96474D01*
X1221525Y85784D01*
X1207559Y79999D01*
X1192441Y79999D01*
G37*
%LPD*%
%LPC*%
G36*
X1092441Y79999D02*
X1092441Y79999D01*
X1078474Y85784D01*
X1067784Y96474D01*
X1061999Y110441D01*
X1061999Y189559D01*
X1067784Y203525D01*
X1078474Y214215D01*
X1092441Y220001D01*
X1107559Y220001D01*
X1121525Y214215D01*
X1132215Y203525D01*
X1138001Y189559D01*
X1138001Y110441D01*
X1132215Y96474D01*
X1121525Y85784D01*
X1107559Y79999D01*
X1092441Y79999D01*
G37*
%LPD*%
%LPC*%
G36*
X992441Y79999D02*
X992441Y79999D01*
X978474Y85784D01*
X967784Y96474D01*
X961999Y110441D01*
X961999Y189559D01*
X967784Y203525D01*
X978474Y214215D01*
X992441Y220001D01*
X1007559Y220001D01*
X1021525Y214215D01*
X1032215Y203525D01*
X1038001Y189559D01*
X1038001Y110441D01*
X1032215Y96474D01*
X1021525Y85784D01*
X1007559Y79999D01*
X992441Y79999D01*
G37*
%LPD*%
%LPC*%
G36*
X742441Y79999D02*
X742441Y79999D01*
X728474Y85784D01*
X717784Y96474D01*
X711999Y110441D01*
X711999Y189559D01*
X717784Y203525D01*
X728474Y214215D01*
X742441Y220001D01*
X757559Y220001D01*
X771525Y214215D01*
X782215Y203525D01*
X788001Y189559D01*
X788001Y110441D01*
X782215Y96474D01*
X771525Y85784D01*
X757559Y79999D01*
X742441Y79999D01*
G37*
%LPD*%
%LPC*%
G36*
X642441Y79999D02*
X642441Y79999D01*
X628474Y85784D01*
X617784Y96474D01*
X611999Y110441D01*
X611999Y189559D01*
X617784Y203525D01*
X628474Y214215D01*
X642441Y220001D01*
X657559Y220001D01*
X671525Y214215D01*
X682215Y203525D01*
X688001Y189559D01*
X688001Y110441D01*
X682215Y96474D01*
X671525Y85784D01*
X657559Y79999D01*
X642441Y79999D01*
G37*
%LPD*%
%LPC*%
G36*
X542441Y79999D02*
X542441Y79999D01*
X528474Y85784D01*
X517784Y96474D01*
X511999Y110441D01*
X511999Y189559D01*
X517784Y203525D01*
X528474Y214215D01*
X542441Y220001D01*
X557559Y220001D01*
X571525Y214215D01*
X582215Y203525D01*
X588001Y189559D01*
X588001Y110441D01*
X582215Y96474D01*
X571525Y85784D01*
X557559Y79999D01*
X542441Y79999D01*
G37*
%LPD*%
%LPC*%
G36*
X442441Y79999D02*
X442441Y79999D01*
X428474Y85784D01*
X417784Y96474D01*
X411999Y110441D01*
X411999Y189559D01*
X417784Y203525D01*
X428474Y214215D01*
X442441Y220001D01*
X457559Y220001D01*
X471525Y214215D01*
X482215Y203525D01*
X488001Y189559D01*
X488001Y110441D01*
X482215Y96474D01*
X471525Y85784D01*
X457559Y79999D01*
X442441Y79999D01*
G37*
%LPD*%
%LPC*%
G36*
X909999Y609999D02*
X909999Y609999D01*
X909999Y687953D01*
X979270Y687953D01*
X981813Y687272D01*
X984093Y685955D01*
X985955Y684093D01*
X987272Y681813D01*
X987953Y679270D01*
X987953Y609999D01*
X909999Y609999D01*
G37*
%LPD*%
%LPC*%
G36*
X812046Y609999D02*
X812046Y609999D01*
X812047Y679270D01*
X812728Y681813D01*
X814045Y684093D01*
X815907Y685955D01*
X818187Y687272D01*
X820730Y687953D01*
X890001Y687953D01*
X890001Y609999D01*
X812046Y609999D01*
G37*
%LPD*%
%LPC*%
G36*
X909999Y512047D02*
X909999Y512047D01*
X909999Y590001D01*
X987953Y590001D01*
X987953Y520730D01*
X987272Y518187D01*
X985955Y515907D01*
X984093Y514045D01*
X981813Y512728D01*
X979270Y512047D01*
X909999Y512047D01*
G37*
%LPD*%
%LPC*%
G36*
X820730Y512047D02*
X820730Y512047D01*
X818187Y512728D01*
X815907Y514045D01*
X814045Y515907D01*
X812728Y518187D01*
X812047Y520730D01*
X812047Y590001D01*
X890001Y590001D01*
X890001Y512046D01*
X820730Y512047D01*
G37*
%LPD*%
%LPC*%
G36*
X159999Y359999D02*
X159999Y359999D01*
X159999Y392001D01*
X185305Y392001D01*
X191835Y390966D01*
X198123Y388923D01*
X204013Y385922D01*
X209361Y382036D01*
X214036Y377361D01*
X217922Y372013D01*
X220923Y366123D01*
X222913Y359999D01*
X159999Y359999D01*
G37*
%LPD*%
%LPC*%
G36*
X77087Y359999D02*
X77087Y359999D01*
X79076Y366123D01*
X82077Y372013D01*
X85963Y377361D01*
X90639Y382036D01*
X95987Y385922D01*
X101877Y388923D01*
X108164Y390966D01*
X114695Y392001D01*
X140001Y392001D01*
X140001Y359999D01*
X77087Y359999D01*
G37*
%LPD*%
%LPC*%
G36*
X159999Y307999D02*
X159999Y307999D01*
X159999Y340001D01*
X222913Y340001D01*
X220923Y333877D01*
X217922Y327987D01*
X214036Y322639D01*
X209361Y317963D01*
X204013Y314077D01*
X198123Y311076D01*
X191835Y309033D01*
X185305Y307999D01*
X159999Y307999D01*
G37*
%LPD*%
%LPC*%
G36*
X114695Y307999D02*
X114695Y307999D01*
X108164Y309033D01*
X101877Y311076D01*
X95987Y314077D01*
X90639Y317963D01*
X85963Y322639D01*
X82077Y327987D01*
X79076Y333877D01*
X77087Y340001D01*
X140001Y340001D01*
X140001Y307999D01*
X114695Y307999D01*
G37*
%LPD*%
%LPC*%
G36*
X1409999Y159999D02*
X1409999Y159999D01*
X1409999Y192001D01*
X1417397Y192001D01*
X1442001Y167397D01*
X1442001Y159999D01*
X1409999Y159999D01*
G37*
%LPD*%
%LPC*%
G36*
X1357999Y159999D02*
X1357999Y159999D01*
X1357999Y167397D01*
X1382603Y192001D01*
X1390001Y192001D01*
X1390001Y159999D01*
X1357999Y159999D01*
G37*
%LPD*%
%LPC*%
G36*
X1409999Y107999D02*
X1409999Y107999D01*
X1409999Y140001D01*
X1442001Y140001D01*
X1442001Y132603D01*
X1417397Y107999D01*
X1409999Y107999D01*
G37*
%LPD*%
%LPC*%
G36*
X1382603Y107999D02*
X1382603Y107999D01*
X1357999Y132603D01*
X1357999Y140001D01*
X1390001Y140001D01*
X1390001Y107999D01*
X1382603Y107999D01*
G37*
%LPD*%
%LPC*%
G36*
X149999Y349999D02*
X149999Y349999D01*
X149999Y350001D01*
X150001Y350001D01*
X150001Y349999D01*
X149999Y349999D01*
G37*
%LPD*%
%LPC*%
G36*
X1399999Y149999D02*
X1399999Y149999D01*
X1399999Y150001D01*
X1400001Y150001D01*
X1400001Y149999D01*
X1399999Y149999D01*
G37*
%LPD*%
%LPC*%
G36*
X899999Y599999D02*
X899999Y599999D01*
X899999Y600001D01*
X900001Y600001D01*
X900001Y599999D01*
X899999Y599999D01*
G37*
%LPD*%
D10*
X1400000Y150000D03*
D11*
X1000000Y118000D02*
X1000000Y182000D01*
X1100000Y182000D02*
X1100000Y118000D01*
X1200000Y118000D02*
X1200000Y182000D01*
X182000Y850000D02*
X118000Y850000D01*
X118000Y950000D02*
X182000Y950000D01*
X450000Y182000D02*
X450000Y118000D01*
X550000Y118000D02*
X550000Y182000D01*
X650000Y182000D02*
X650000Y118000D01*
X750000Y118000D02*
X750000Y182000D01*
X182000Y350000D02*
X118000Y350000D01*
X118000Y450000D02*
X182000Y450000D01*
X182000Y550000D02*
X118000Y550000D01*
X118000Y650000D02*
X182000Y650000D01*
D12*
X900000Y600000D03*
D13*
X395079Y600000D03*
X1404921Y600000D03*
D14*
X1450000Y400000D03*
X1150000Y500000D03*
X850000Y350000D03*
X750000Y850000D03*
X650000Y488567D03*
D15*
X395079Y600000D02*
X386289Y591211D01*
X245079Y450000D01*
X150000Y450000D01*
D14*
X450000Y1100000D03*
D16*
X1404921Y1119079D02*
X1404921Y600000D01*
X1404921Y1119079D02*
X1396500Y1127500D01*
X477500Y1127500D01*
X450000Y1100000D01*
D14*
X467000Y865500D03*
D16*
X467000Y1083000D01*
X450000Y1100000D01*
X395079Y793579D02*
X395079Y600000D01*
X395079Y793579D02*
X467000Y865500D01*
D14*
X402000Y420500D03*
D16*
X402000Y575500D01*
X386289Y591211D01*
M02*
